G04 #@! TF.GenerationSoftware,KiCad,Pcbnew,(6.0.5)*
G04 #@! TF.CreationDate,2022-08-14T17:30:35+10:00*
G04 #@! TF.ProjectId,ESP32 PicoDev,45535033-3220-4506-9963-6f4465762e6b,rev?*
G04 #@! TF.SameCoordinates,Original*
G04 #@! TF.FileFunction,Copper,L2,Bot*
G04 #@! TF.FilePolarity,Positive*
%FSLAX46Y46*%
G04 Gerber Fmt 4.6, Leading zero omitted, Abs format (unit mm)*
G04 Created by KiCad (PCBNEW (6.0.5)) date 2022-08-14 17:30:35*
%MOMM*%
%LPD*%
G01*
G04 APERTURE LIST*
G04 #@! TA.AperFunction,ComponentPad*
%ADD10O,2.100000X1.050000*%
G04 #@! TD*
G04 #@! TA.AperFunction,ComponentPad*
%ADD11O,2.000000X1.000000*%
G04 #@! TD*
G04 #@! TA.AperFunction,ComponentPad*
%ADD12C,2.540000*%
G04 #@! TD*
G04 #@! TA.AperFunction,ComponentPad*
%ADD13R,1.700000X1.700000*%
G04 #@! TD*
G04 #@! TA.AperFunction,ComponentPad*
%ADD14O,1.700000X1.700000*%
G04 #@! TD*
G04 #@! TA.AperFunction,ViaPad*
%ADD15C,0.800000*%
G04 #@! TD*
G04 #@! TA.AperFunction,ViaPad*
%ADD16C,0.750000*%
G04 #@! TD*
G04 #@! TA.AperFunction,Conductor*
%ADD17C,0.508000*%
G04 #@! TD*
G04 #@! TA.AperFunction,Conductor*
%ADD18C,0.762000*%
G04 #@! TD*
G04 #@! TA.AperFunction,Conductor*
%ADD19C,0.254000*%
G04 #@! TD*
G04 #@! TA.AperFunction,Conductor*
%ADD20C,0.200000*%
G04 #@! TD*
G04 APERTURE END LIST*
D10*
X129636000Y-87395000D03*
D11*
X125456000Y-87395000D03*
X125456000Y-96035000D03*
D10*
X129636000Y-96035000D03*
D12*
X171811000Y-98065000D03*
X125456000Y-85365000D03*
X171811000Y-85365000D03*
X125456000Y-98065000D03*
D13*
X128300800Y-85339600D03*
D14*
X130840800Y-85339600D03*
X133380800Y-85339600D03*
X135920800Y-85339600D03*
X138460800Y-85339600D03*
X141000800Y-85339600D03*
X143540800Y-85339600D03*
X146080800Y-85339600D03*
X148620800Y-85339600D03*
X151160800Y-85339600D03*
X153700800Y-85339600D03*
X156240800Y-85339600D03*
X158780800Y-85339600D03*
X161320800Y-85339600D03*
X163860800Y-85339600D03*
X166400800Y-85339600D03*
X168940800Y-85339600D03*
D13*
X128300800Y-98039600D03*
D14*
X130840800Y-98039600D03*
X133380800Y-98039600D03*
X135920800Y-98039600D03*
X138460800Y-98039600D03*
X141000800Y-98039600D03*
X143540800Y-98039600D03*
X146080800Y-98039600D03*
X148620800Y-98039600D03*
X151160800Y-98039600D03*
X153700800Y-98039600D03*
X156240800Y-98039600D03*
X158780800Y-98039600D03*
X161320800Y-98039600D03*
X163860800Y-98039600D03*
X166400800Y-98039600D03*
X168940800Y-98039600D03*
D15*
X144043400Y-91770200D03*
X137414000Y-89154000D03*
X131116760Y-89315000D03*
X141554200Y-89281000D03*
X161671000Y-92456000D03*
X145288000Y-88138000D03*
X163195000Y-92456000D03*
X146558000Y-88138000D03*
X162433000Y-92456000D03*
X163957000Y-92456000D03*
X160909000Y-92456000D03*
X134239000Y-89179400D03*
X143840200Y-88214200D03*
X132207000Y-87452200D03*
X145920046Y-89869480D03*
X156133800Y-89890600D03*
X156063000Y-92031501D03*
X165989000Y-94869000D03*
X166547800Y-93238500D03*
X162132875Y-86992970D03*
X167830729Y-95291181D03*
X145492584Y-94930126D03*
X139014200Y-96457500D03*
X146773546Y-91567000D03*
X139776940Y-93638685D03*
X155067000Y-97015059D03*
X147554000Y-91588000D03*
X167130522Y-87367517D03*
X167935061Y-87960579D03*
X151586946Y-86754989D03*
X150647400Y-91059000D03*
X154151060Y-90890489D03*
X139762947Y-92185674D03*
X126238000Y-91059000D03*
X133438101Y-91731999D03*
X126238000Y-93091000D03*
X139747896Y-91186285D03*
X126238000Y-90043000D03*
X126238000Y-92075000D03*
X133451336Y-90730124D03*
X144780000Y-95631000D03*
X152430799Y-98738280D03*
X166424834Y-95768475D03*
X167670801Y-84640919D03*
X147828000Y-93026500D03*
X169480500Y-96193482D03*
X146403498Y-95341511D03*
X148089112Y-95267210D03*
X163531886Y-86762000D03*
X168277682Y-96750675D03*
X151641854Y-94658618D03*
X157607000Y-97155000D03*
X157099000Y-91694000D03*
X135459574Y-94607350D03*
X165100000Y-97017540D03*
X150242843Y-94592511D03*
X161098190Y-96196016D03*
X148843832Y-94564200D03*
X135564903Y-95601287D03*
D16*
X168706460Y-90551000D03*
D15*
X148569065Y-86788179D03*
X149339080Y-87855272D03*
X168680667Y-91525162D03*
X168681460Y-92524664D03*
X149156625Y-88837980D03*
X167694807Y-92684414D03*
X166991661Y-88360258D03*
X167223878Y-89405283D03*
X166172725Y-87653221D03*
X165913562Y-88618538D03*
X164846797Y-86402081D03*
X158546122Y-96584500D03*
X134478723Y-93715279D03*
X141029432Y-93967532D03*
X136524003Y-95882589D03*
X141859000Y-95758000D03*
D17*
X131116760Y-89315000D02*
X130429000Y-90002760D01*
X138282000Y-88286000D02*
X137414000Y-89154000D01*
X130429000Y-94919164D02*
X131139520Y-95629684D01*
X131139520Y-95629684D02*
X131139520Y-97740880D01*
X141554200Y-89281000D02*
X140559200Y-88286000D01*
X141554200Y-89281000D02*
X144043400Y-91770200D01*
X140559200Y-88286000D02*
X138282000Y-88286000D01*
X131139520Y-97740880D02*
X130840800Y-98039600D01*
X130429000Y-90002760D02*
X130429000Y-94919164D01*
D18*
X156722240Y-89818640D02*
X159359600Y-92456000D01*
X146558000Y-88265000D02*
X146558000Y-88138000D01*
X150165840Y-89818640D02*
X149766469Y-90218011D01*
X156133800Y-89890600D02*
X156061840Y-89818640D01*
X156061840Y-89818640D02*
X150165840Y-89818640D01*
X156205760Y-89818640D02*
X156722240Y-89818640D01*
X159359600Y-92456000D02*
X163957000Y-92456000D01*
X146558000Y-88138000D02*
X145288000Y-88138000D01*
X156133800Y-89890600D02*
X156205760Y-89818640D01*
X148511011Y-90218011D02*
X146558000Y-88265000D01*
X149766469Y-90218011D02*
X148511011Y-90218011D01*
D17*
X130740511Y-88461489D02*
X129548479Y-89653521D01*
D19*
X147130009Y-95040579D02*
X147130009Y-95472819D01*
X148120759Y-96463569D02*
X154515510Y-96463569D01*
X146704430Y-94615000D02*
X147130009Y-95040579D01*
D17*
X131470297Y-88461489D02*
X130740511Y-88461489D01*
X131785551Y-89853257D02*
X131970271Y-89668537D01*
D19*
X165481000Y-94869000D02*
X164363920Y-93751920D01*
D20*
X167130522Y-87367517D02*
X167130522Y-87247522D01*
D17*
X139776940Y-93638685D02*
X140151231Y-93638685D01*
X128792814Y-89653521D02*
X128132480Y-88993187D01*
D20*
X166771631Y-86888631D02*
X165914512Y-86888631D01*
D17*
X134688293Y-96736089D02*
X131785551Y-93833347D01*
X129548479Y-89653521D02*
X128792814Y-89653521D01*
D19*
X147130009Y-95472819D02*
X148120759Y-96463569D01*
D17*
X140151231Y-93638685D02*
X140675895Y-93114021D01*
D20*
X166547800Y-93873535D02*
X166547800Y-93238500D01*
D17*
X145226525Y-93114021D02*
X146773546Y-91567000D01*
D19*
X154515510Y-96463569D02*
X155067000Y-97015059D01*
D20*
X165914512Y-86888631D02*
X165300143Y-87503000D01*
X162642905Y-87503000D02*
X162132875Y-86992970D01*
D19*
X145787440Y-94930126D02*
X146102566Y-94615000D01*
D17*
X146794546Y-91588000D02*
X147554000Y-91588000D01*
X147997501Y-92031501D02*
X147554000Y-91588000D01*
D20*
X167130522Y-87247522D02*
X166771631Y-86888631D01*
D17*
X138735611Y-96736089D02*
X134688293Y-96736089D01*
X156063000Y-92031501D02*
X147997501Y-92031501D01*
X131970271Y-89668537D02*
X131970271Y-88961463D01*
X131785551Y-93833347D02*
X131785551Y-89853257D01*
X128132480Y-85507920D02*
X128300800Y-85339600D01*
D19*
X145492584Y-94930126D02*
X145787440Y-94930126D01*
D17*
X146773546Y-91567000D02*
X146794546Y-91588000D01*
X128132480Y-88993187D02*
X128132480Y-85507920D01*
D19*
X146102566Y-94615000D02*
X146704430Y-94615000D01*
X165989000Y-94869000D02*
X165481000Y-94869000D01*
X164363920Y-93751920D02*
X157783419Y-93751920D01*
D20*
X167088031Y-94846355D02*
X167088030Y-94413765D01*
X165300143Y-87503000D02*
X162642905Y-87503000D01*
D17*
X139014200Y-96457500D02*
X138735611Y-96736089D01*
X131970271Y-88961463D02*
X131470297Y-88461489D01*
D20*
X167532857Y-95291181D02*
X167088031Y-94846355D01*
X167088030Y-94413765D02*
X166547800Y-93873535D01*
X167830729Y-95291181D02*
X167532857Y-95291181D01*
D17*
X140675895Y-93114021D02*
X145226525Y-93114021D01*
D19*
X157783419Y-93751920D02*
X156063000Y-92031501D01*
D20*
X146514285Y-90867489D02*
X146215775Y-90568980D01*
X157854022Y-87540040D02*
X152371997Y-87540040D01*
X150647400Y-91059000D02*
X150753400Y-90953000D01*
X152371997Y-87540040D02*
X151586946Y-86754989D01*
X150753400Y-90953000D02*
X154088549Y-90953000D01*
X167679112Y-90504314D02*
X166768644Y-90504314D01*
X148014259Y-91059000D02*
X147822748Y-90867489D01*
X139883200Y-86762000D02*
X138460800Y-85339600D01*
X150647400Y-91059000D02*
X148014259Y-91059000D01*
X141037196Y-86762000D02*
X139883200Y-86762000D01*
X147822748Y-90867489D02*
X146514285Y-90867489D01*
X144844176Y-90568980D02*
X141037196Y-86762000D01*
X146215775Y-90568980D02*
X144844176Y-90568980D01*
X166768644Y-90504314D02*
X166381406Y-90117076D01*
X168322908Y-88348426D02*
X168322908Y-89860518D01*
X160431058Y-90117076D02*
X157854022Y-87540040D01*
X167935061Y-87960579D02*
X168322908Y-88348426D01*
X154088549Y-90953000D02*
X154151060Y-90890489D01*
X168322908Y-89860518D02*
X167679112Y-90504314D01*
X166381406Y-90117076D02*
X160431058Y-90117076D01*
X126238000Y-93091000D02*
X126492000Y-92837000D01*
X125193000Y-93378800D02*
X125193000Y-91279200D01*
X127127000Y-92837000D02*
X127127000Y-93668994D01*
X127127000Y-93668994D02*
X126813987Y-93982007D01*
X125796207Y-93982007D02*
X125193000Y-93378800D01*
X133380800Y-98039600D02*
X133863400Y-98039600D01*
X139762947Y-92185674D02*
X139483784Y-91906511D01*
X126492000Y-92837000D02*
X127127000Y-92837000D01*
X138833392Y-91432001D02*
X133738099Y-91432001D01*
X125696199Y-90776001D02*
X125955001Y-90776001D01*
X125955001Y-90776001D02*
X126238000Y-91059000D01*
X138853489Y-91452098D02*
X138833392Y-91432001D01*
X126813987Y-93982007D02*
X125796207Y-93982007D01*
X125193000Y-91279200D02*
X125696199Y-90776001D01*
X133738099Y-91432001D02*
X133438101Y-91731999D01*
X139263252Y-91906511D02*
X138853489Y-91496748D01*
X139483784Y-91906511D02*
X139263252Y-91906511D01*
X138853489Y-91496748D02*
X138853489Y-91452098D01*
X125955001Y-90325999D02*
X126238000Y-90043000D01*
X135920800Y-97988800D02*
X135920800Y-98039600D01*
X136810824Y-90753110D02*
X136810621Y-90752907D01*
X126928993Y-94432007D02*
X125609807Y-94432007D01*
X136810824Y-90763752D02*
X136810824Y-90753110D01*
X126492000Y-92329000D02*
X127184006Y-92329000D01*
X127526520Y-92671514D02*
X127526520Y-93834480D01*
X127526520Y-93834480D02*
X126928993Y-94432007D01*
X136810621Y-90752907D02*
X136217097Y-90752907D01*
X136811715Y-90796283D02*
X136811715Y-90796282D01*
X127184006Y-92329000D02*
X127526520Y-92671514D01*
X125609807Y-94432007D02*
X124743000Y-93565200D01*
X136217097Y-90752907D02*
X136214502Y-90755502D01*
X136025999Y-90981999D02*
X133703211Y-90981999D01*
X125509801Y-90325999D02*
X125955001Y-90325999D01*
X139152682Y-91186285D02*
X138948396Y-90981999D01*
X133703211Y-90981999D02*
X133451336Y-90730124D01*
X126238000Y-92075000D02*
X126492000Y-92329000D01*
X124743000Y-93565200D02*
X124743000Y-91092800D01*
X124743000Y-91092800D02*
X125509801Y-90325999D01*
X139747896Y-91186285D02*
X139152682Y-91186285D01*
X138948396Y-90981999D02*
X136997431Y-90981999D01*
X136211715Y-90796282D02*
X136211715Y-90796283D01*
X136025999Y-90982015D02*
G75*
G03*
X136211715Y-90796283I1J185715D01*
G01*
X136811701Y-90796283D02*
G75*
G03*
X136997431Y-90981999I185699J-17D01*
G01*
X136211714Y-90796282D02*
G75*
G03*
X136214501Y-90755502I-8547914J604682D01*
G01*
X136810825Y-90763752D02*
G75*
G03*
X136811716Y-90796282I3188075J71052D01*
G01*
X142753400Y-96287000D02*
X141000800Y-98039600D01*
X144124000Y-96287000D02*
X142753400Y-96287000D01*
X144780000Y-95631000D02*
X144124000Y-96287000D01*
X151979968Y-99189111D02*
X152430799Y-98738280D01*
X147230311Y-99189111D02*
X151979968Y-99189111D01*
X146080800Y-98039600D02*
X147230311Y-99189111D01*
X146403498Y-95341511D02*
X146403498Y-95349498D01*
X155627261Y-92585021D02*
X148269479Y-92585021D01*
X148269479Y-92585021D02*
X147828000Y-93026500D01*
X169293111Y-86489111D02*
X168464656Y-86489111D01*
X165577321Y-95568511D02*
X164187251Y-94178441D01*
X147944089Y-96890089D02*
X152551289Y-96890089D01*
X166224870Y-95568511D02*
X165577321Y-95568511D01*
X164187251Y-94178441D02*
X157220681Y-94178441D01*
X169780480Y-86976480D02*
X169293111Y-86489111D01*
X146403498Y-95349498D02*
X147944089Y-96890089D01*
X157220681Y-94178441D02*
X155627261Y-92585021D01*
X169780480Y-95893502D02*
X169780480Y-86976480D01*
X166424834Y-95768475D02*
X166224870Y-95568511D01*
X168464656Y-86489111D02*
X167670801Y-85695256D01*
X169480500Y-96193482D02*
X169780480Y-95893502D01*
X152551289Y-96890089D02*
X153700800Y-98039600D01*
X167670801Y-85695256D02*
X167670801Y-84640919D01*
X148858951Y-96037049D02*
X155676249Y-96037049D01*
X148089112Y-95267210D02*
X148858951Y-96037049D01*
X155676249Y-96037049D02*
X156240800Y-96601600D01*
X156240800Y-96601600D02*
X156240800Y-98039600D01*
X168780989Y-96247368D02*
X168780989Y-95903734D01*
X167895428Y-86489111D02*
X165749025Y-86489112D01*
X165136545Y-87101592D02*
X164557049Y-87101592D01*
X165749025Y-86489112D02*
X165136545Y-87101592D01*
X169380960Y-87141966D02*
X169127625Y-86888631D01*
X168277682Y-96750675D02*
X168780989Y-96247368D01*
X167897539Y-86487000D02*
X167895428Y-86489111D01*
X168780989Y-95903734D02*
X169380960Y-95303763D01*
X164217457Y-86762000D02*
X163531886Y-86762000D01*
X164557049Y-87101592D02*
X164217457Y-86762000D01*
X169127625Y-86888631D02*
X168299169Y-86888630D01*
X168299169Y-86888630D02*
X167897539Y-86487000D01*
X169380960Y-95303763D02*
X169380960Y-87141966D01*
X159245633Y-96313772D02*
X160971461Y-98039600D01*
X151641854Y-94658618D02*
X152214716Y-95231480D01*
X156558736Y-95776520D02*
X158727401Y-95776520D01*
X158727401Y-95776520D02*
X159245633Y-96294752D01*
X156013696Y-95231480D02*
X156558736Y-95776520D01*
X159245633Y-96294752D02*
X159245633Y-96313772D01*
X160971461Y-98039600D02*
X161320800Y-98039600D01*
X152214716Y-95231480D02*
X156013696Y-95231480D01*
X149543332Y-94302763D02*
X150462034Y-93384061D01*
X161144480Y-94977480D02*
X163860800Y-97693800D01*
X150037800Y-95631000D02*
X149543332Y-95136532D01*
X150462034Y-93384061D02*
X155296289Y-93384061D01*
X157607000Y-97155000D02*
X156628040Y-96176040D01*
X155296289Y-93384061D02*
X156889708Y-94977480D01*
X156889708Y-94977480D02*
X161144480Y-94977480D01*
X155848210Y-95631000D02*
X150037800Y-95631000D01*
X156628040Y-96176040D02*
X156393249Y-96176039D01*
X156393249Y-96176039D02*
X155848210Y-95631000D01*
X163860800Y-97693800D02*
X163860800Y-98039600D01*
X149543332Y-95136532D02*
X149543332Y-94302763D01*
X166688511Y-95011841D02*
X166688511Y-94579252D01*
X167157400Y-97637600D02*
X167157400Y-95480730D01*
X165391089Y-94169489D02*
X164547000Y-93325400D01*
X158730400Y-93325400D02*
X157099000Y-91694000D01*
X167157400Y-95480730D02*
X166688511Y-95011841D01*
X166400800Y-98039600D02*
X166755400Y-98039600D01*
X166278748Y-94169489D02*
X165391089Y-94169489D01*
X164547000Y-93325400D02*
X158730400Y-93325400D01*
X166688511Y-94579252D02*
X166278748Y-94169489D01*
X166755400Y-98039600D02*
X167157400Y-97637600D01*
X148859218Y-92984541D02*
X148117748Y-93726011D01*
X132738590Y-90446058D02*
X133495519Y-89689129D01*
X141077034Y-94958960D02*
X139542949Y-94958959D01*
X142309983Y-93726011D02*
X141077034Y-94958960D01*
X155461775Y-92984541D02*
X148859218Y-92984541D01*
X135459574Y-94607350D02*
X133907356Y-94607350D01*
X139542949Y-94958959D02*
X137820510Y-93236520D01*
X136830404Y-93236520D02*
X135459574Y-94607350D01*
X162141961Y-94577961D02*
X157055195Y-94577961D01*
X165100000Y-97017540D02*
X164581540Y-97017540D01*
X157055195Y-94577961D02*
X155461775Y-92984541D01*
X133495519Y-89689129D02*
X133495519Y-85454319D01*
X133907356Y-94607350D02*
X132738590Y-93438584D01*
X133495519Y-85454319D02*
X133380800Y-85339600D01*
X148117748Y-93726011D02*
X142309983Y-93726011D01*
X164581540Y-97017540D02*
X162141961Y-94577961D01*
X132738590Y-93438584D02*
X132738590Y-90446058D01*
X137820510Y-93236520D02*
X136830404Y-93236520D01*
X135564903Y-95601287D02*
X135467616Y-95504000D01*
X141269261Y-95358480D02*
X142502221Y-94125520D01*
X134239000Y-95504000D02*
X132339071Y-93604071D01*
X132339071Y-90280571D02*
X133096000Y-89523642D01*
X135983112Y-95183078D02*
X136813751Y-95183078D01*
X136989153Y-95358480D02*
X141269261Y-95358480D01*
X150242843Y-94592511D02*
X151051773Y-93783581D01*
X148405152Y-94125520D02*
X148843832Y-94564200D01*
X134771289Y-84190089D02*
X135920800Y-85339600D01*
X133096000Y-89523642D02*
X133096000Y-86680455D01*
X135564903Y-95601287D02*
X135983112Y-95183078D01*
X132231289Y-84863456D02*
X132904656Y-84190089D01*
X132231289Y-85815744D02*
X132231289Y-84863456D01*
X136813751Y-95183078D02*
X136989153Y-95358480D01*
X135467616Y-95504000D02*
X134239000Y-95504000D01*
X151051773Y-93783581D02*
X155130803Y-93783581D01*
X142502221Y-94125520D02*
X148405152Y-94125520D01*
X156724222Y-95377000D02*
X160279174Y-95377000D01*
X132339071Y-93604071D02*
X132339071Y-90280571D01*
X160279174Y-95377000D02*
X161098190Y-96196016D01*
X155130803Y-93783581D02*
X156724222Y-95377000D01*
X133096000Y-86680455D02*
X132231289Y-85815744D01*
X132904656Y-84190089D02*
X134771289Y-84190089D01*
X166215919Y-90516595D02*
X160265571Y-90516595D01*
X168706460Y-90551000D02*
X168353627Y-90903833D01*
X168353627Y-90903833D02*
X166603157Y-90903833D01*
X166603157Y-90903833D02*
X166215919Y-90516595D01*
X160265571Y-90516595D02*
X157688536Y-87939560D01*
X157688536Y-87939560D02*
X150793834Y-87939558D01*
X150793834Y-87939558D02*
X149642455Y-86788179D01*
X149642455Y-86788179D02*
X148569065Y-86788179D01*
X168458858Y-91303353D02*
X166437671Y-91303353D01*
X168680667Y-91525162D02*
X168458858Y-91303353D01*
X160100084Y-90916114D02*
X157523050Y-88339080D01*
X157523050Y-88339080D02*
X149822888Y-88339080D01*
X164740926Y-90916114D02*
X160100084Y-90916114D01*
X149822888Y-88339080D02*
X149339080Y-87855272D01*
X166050433Y-90916115D02*
X164740926Y-90916114D01*
X166437671Y-91303353D02*
X166050433Y-90916115D01*
X157357564Y-88738600D02*
X149256005Y-88738600D01*
X149256005Y-88738600D02*
X149156625Y-88837980D01*
X167869118Y-91702872D02*
X166272184Y-91702872D01*
X159934597Y-91315633D02*
X157357564Y-88738600D01*
X168681460Y-92515214D02*
X167869118Y-91702872D01*
X168681460Y-92524664D02*
X168681460Y-92515214D01*
X166272184Y-91702872D02*
X165884945Y-91315633D01*
X165884945Y-91315633D02*
X159934597Y-91315633D01*
X147869554Y-87077927D02*
X147869554Y-86090846D01*
X167694807Y-92684414D02*
X167112784Y-92102391D01*
X159769110Y-91715152D02*
X157192078Y-89138120D01*
X157192078Y-89138120D02*
X149845744Y-89138120D01*
X149845744Y-89138120D02*
X149446373Y-89537491D01*
X148866877Y-89537491D02*
X148443000Y-89113614D01*
X167112784Y-92102391D02*
X166106697Y-92102391D01*
X148443000Y-87651373D02*
X147869554Y-87077927D01*
X149446373Y-89537491D02*
X148866877Y-89537491D01*
X166106697Y-92102391D02*
X165719458Y-91715152D01*
X165719458Y-91715152D02*
X159769110Y-91715152D01*
X148443000Y-89113614D02*
X148443000Y-87651373D01*
X147869554Y-86090846D02*
X148620800Y-85339600D01*
X166934130Y-90104794D02*
X166546893Y-89717557D01*
X166991661Y-88360258D02*
X167168112Y-88360258D01*
X166546893Y-89717557D02*
X160596545Y-89717557D01*
X167168112Y-88360258D02*
X167923389Y-89115535D01*
X167513626Y-90104794D02*
X166934130Y-90104794D01*
X158019508Y-87140520D02*
X152961720Y-87140520D01*
X167923389Y-89115535D02*
X167923389Y-89695031D01*
X160596545Y-89717557D02*
X158019508Y-87140520D01*
X152961720Y-87140520D02*
X151160800Y-85339600D01*
X167923389Y-89695031D02*
X167513626Y-90104794D01*
X167223878Y-89405283D02*
X167136633Y-89318038D01*
X158184994Y-86741000D02*
X155102200Y-86741000D01*
X160762032Y-89318038D02*
X158184994Y-86741000D01*
X167136633Y-89318038D02*
X160762032Y-89318038D01*
X155102200Y-86741000D02*
X153700800Y-85339600D01*
X161163000Y-88519000D02*
X160127000Y-87483000D01*
X157390311Y-84190089D02*
X156240800Y-85339600D01*
X160127000Y-85060145D02*
X159256944Y-84190089D01*
X165748472Y-87653221D02*
X164882693Y-88519000D01*
X164882693Y-88519000D02*
X161163000Y-88519000D01*
X166172725Y-87653221D02*
X165748472Y-87653221D01*
X159256944Y-84190089D02*
X157390311Y-84190089D01*
X160127000Y-87483000D02*
X160127000Y-85060145D01*
X158780800Y-86771800D02*
X158780800Y-85339600D01*
X165913562Y-88618538D02*
X165381462Y-88618538D01*
X160927519Y-88918519D02*
X158780800Y-86771800D01*
X165081481Y-88918519D02*
X160927519Y-88918519D01*
X165381462Y-88618538D02*
X165081481Y-88918519D01*
X165010311Y-84787311D02*
X164413089Y-84190089D01*
X164413089Y-84190089D02*
X162470311Y-84190089D01*
X164846797Y-86402081D02*
X165010311Y-86238567D01*
X162470311Y-84190089D02*
X161320800Y-85339600D01*
X165010311Y-86238567D02*
X165010311Y-84787311D01*
X164339055Y-99187000D02*
X165922545Y-99187000D01*
X160844656Y-99189111D02*
X164336944Y-99189111D01*
X165922545Y-99187000D02*
X165924656Y-99189111D01*
X159930311Y-97563456D02*
X159930311Y-98274766D01*
X159930311Y-98274766D02*
X160844656Y-99189111D01*
X164336944Y-99189111D02*
X164339055Y-99187000D01*
X170090311Y-97563456D02*
X170180000Y-97473767D01*
X158546122Y-96584500D02*
X158951355Y-96584500D01*
X165924656Y-99189111D02*
X169542889Y-99189111D01*
X170180000Y-86578800D02*
X168940800Y-85339600D01*
X170090311Y-98641689D02*
X170090311Y-97563456D01*
X169542889Y-99189111D02*
X170090311Y-98641689D01*
X170180000Y-97473767D02*
X170180000Y-86578800D01*
X158951355Y-96584500D02*
X159930311Y-97563456D01*
X135357002Y-92837000D02*
X134478723Y-93715279D01*
X137985996Y-92837000D02*
X135357002Y-92837000D01*
X141029432Y-93967532D02*
X140437524Y-94559440D01*
X140437524Y-94559440D02*
X139708436Y-94559440D01*
X139708436Y-94559440D02*
X137985996Y-92837000D01*
X136648592Y-95758000D02*
X141859000Y-95758000D01*
X136524003Y-95882589D02*
X136648592Y-95758000D01*
G04 #@! TA.AperFunction,Conductor*
G36*
X126904141Y-98816444D02*
G01*
X126939375Y-98878080D01*
X126942801Y-98907261D01*
X126942801Y-98934269D01*
X126943171Y-98941090D01*
X126948695Y-98991952D01*
X126952321Y-99007204D01*
X126997476Y-99127654D01*
X127006014Y-99143249D01*
X127082515Y-99245324D01*
X127095076Y-99257885D01*
X127197151Y-99334386D01*
X127212746Y-99342924D01*
X127215664Y-99344018D01*
X127218137Y-99345875D01*
X127220618Y-99347234D01*
X127220422Y-99347592D01*
X127272429Y-99386660D01*
X127297128Y-99453222D01*
X127281920Y-99522570D01*
X127231634Y-99572689D01*
X127171434Y-99588000D01*
X126233458Y-99588000D01*
X126165337Y-99567998D01*
X126118844Y-99514342D01*
X126108740Y-99444068D01*
X126138234Y-99379488D01*
X126178027Y-99348848D01*
X126206894Y-99334706D01*
X126211540Y-99332430D01*
X126408399Y-99192012D01*
X126579680Y-99021327D01*
X126641050Y-98935922D01*
X126714479Y-98833735D01*
X126770473Y-98790087D01*
X126841177Y-98783641D01*
X126904141Y-98816444D01*
G37*
G04 #@! TD.AperFunction*
G04 #@! TA.AperFunction,Conductor*
G36*
X131249083Y-89929603D02*
G01*
X131305919Y-89972150D01*
X131330730Y-90038670D01*
X131331051Y-90047659D01*
X131331051Y-93798891D01*
X131330178Y-93813700D01*
X131326144Y-93847785D01*
X131327836Y-93857049D01*
X131327836Y-93857052D01*
X131336780Y-93906027D01*
X131337429Y-93909929D01*
X131344835Y-93959183D01*
X131346236Y-93968498D01*
X131349389Y-93975065D01*
X131350698Y-93982230D01*
X131378013Y-94034814D01*
X131379756Y-94038304D01*
X131405397Y-94091700D01*
X131410292Y-94096995D01*
X131410385Y-94097134D01*
X131413699Y-94103513D01*
X131418045Y-94108601D01*
X131455627Y-94146183D01*
X131459057Y-94149748D01*
X131498168Y-94192059D01*
X131504568Y-94195777D01*
X131510828Y-94201384D01*
X134342544Y-97033100D01*
X134352399Y-97044189D01*
X134373652Y-97071148D01*
X134381399Y-97076502D01*
X134381403Y-97076506D01*
X134422365Y-97104817D01*
X134425585Y-97107118D01*
X134465635Y-97136699D01*
X134465637Y-97136700D01*
X134473216Y-97142298D01*
X134480091Y-97144712D01*
X134486082Y-97148853D01*
X134542502Y-97166696D01*
X134546258Y-97167949D01*
X134593277Y-97184461D01*
X134593283Y-97184462D01*
X134602167Y-97187582D01*
X134609371Y-97187865D01*
X134609542Y-97187898D01*
X134616390Y-97190064D01*
X134623061Y-97190589D01*
X134676231Y-97190589D01*
X134681177Y-97190686D01*
X134738730Y-97192947D01*
X134745885Y-97191050D01*
X134754260Y-97190589D01*
X134991608Y-97190589D01*
X135059729Y-97210591D01*
X135106222Y-97264247D01*
X135116326Y-97334521D01*
X135088129Y-97397580D01*
X135049824Y-97443230D01*
X135046859Y-97448624D01*
X135046853Y-97448633D01*
X134957034Y-97612014D01*
X134950576Y-97623762D01*
X134888284Y-97820132D01*
X134887598Y-97826249D01*
X134887597Y-97826253D01*
X134882738Y-97869576D01*
X134865320Y-98024862D01*
X134865836Y-98031006D01*
X134870526Y-98086852D01*
X134882559Y-98230153D01*
X134939344Y-98428186D01*
X134942159Y-98433663D01*
X134942160Y-98433666D01*
X135030645Y-98605840D01*
X135033512Y-98611418D01*
X135161477Y-98772870D01*
X135166170Y-98776864D01*
X135166171Y-98776865D01*
X135300965Y-98891583D01*
X135318364Y-98906391D01*
X135323742Y-98909397D01*
X135323744Y-98909398D01*
X135379153Y-98940365D01*
X135498198Y-99006897D01*
X135580046Y-99033491D01*
X135688271Y-99068656D01*
X135688275Y-99068657D01*
X135694129Y-99070559D01*
X135898694Y-99094951D01*
X135904829Y-99094479D01*
X135904831Y-99094479D01*
X135960839Y-99090169D01*
X136104100Y-99079146D01*
X136110030Y-99077490D01*
X136110032Y-99077490D01*
X136240291Y-99041121D01*
X136302525Y-99023745D01*
X136308014Y-99020972D01*
X136308020Y-99020970D01*
X136480916Y-98933633D01*
X136486410Y-98930858D01*
X136500321Y-98919990D01*
X136592711Y-98847807D01*
X136648751Y-98804024D01*
X136697071Y-98748045D01*
X136779340Y-98652734D01*
X136779340Y-98652733D01*
X136783364Y-98648072D01*
X136786910Y-98641831D01*
X136882076Y-98474307D01*
X136885123Y-98468944D01*
X136950151Y-98273463D01*
X136975971Y-98069074D01*
X136976383Y-98039600D01*
X136956280Y-97834570D01*
X136896735Y-97637349D01*
X136800018Y-97455449D01*
X136751716Y-97396225D01*
X136724162Y-97330793D01*
X136736357Y-97260852D01*
X136784430Y-97208607D01*
X136849359Y-97190589D01*
X137531608Y-97190589D01*
X137599729Y-97210591D01*
X137646222Y-97264247D01*
X137656326Y-97334521D01*
X137628129Y-97397580D01*
X137589824Y-97443230D01*
X137586859Y-97448624D01*
X137586853Y-97448633D01*
X137497034Y-97612014D01*
X137490576Y-97623762D01*
X137428284Y-97820132D01*
X137427598Y-97826249D01*
X137427597Y-97826253D01*
X137422738Y-97869576D01*
X137405320Y-98024862D01*
X137405836Y-98031006D01*
X137410526Y-98086852D01*
X137422559Y-98230153D01*
X137479344Y-98428186D01*
X137482159Y-98433663D01*
X137482160Y-98433666D01*
X137570645Y-98605840D01*
X137573512Y-98611418D01*
X137701477Y-98772870D01*
X137706170Y-98776864D01*
X137706171Y-98776865D01*
X137840965Y-98891583D01*
X137858364Y-98906391D01*
X137863742Y-98909397D01*
X137863744Y-98909398D01*
X137919153Y-98940365D01*
X138038198Y-99006897D01*
X138120046Y-99033491D01*
X138228271Y-99068656D01*
X138228275Y-99068657D01*
X138234129Y-99070559D01*
X138438694Y-99094951D01*
X138444829Y-99094479D01*
X138444831Y-99094479D01*
X138500839Y-99090169D01*
X138644100Y-99079146D01*
X138650030Y-99077490D01*
X138650032Y-99077490D01*
X138780291Y-99041121D01*
X138842525Y-99023745D01*
X138848014Y-99020972D01*
X138848020Y-99020970D01*
X139020916Y-98933633D01*
X139026410Y-98930858D01*
X139040321Y-98919990D01*
X139132711Y-98847807D01*
X139188751Y-98804024D01*
X139237071Y-98748045D01*
X139319340Y-98652734D01*
X139319340Y-98652733D01*
X139323364Y-98648072D01*
X139326910Y-98641831D01*
X139422076Y-98474307D01*
X139425123Y-98468944D01*
X139490151Y-98273463D01*
X139515971Y-98069074D01*
X139516383Y-98039600D01*
X139496280Y-97834570D01*
X139436735Y-97637349D01*
X139340018Y-97455449D01*
X139251271Y-97346635D01*
X139213706Y-97300575D01*
X139213703Y-97300572D01*
X139209811Y-97295800D01*
X139205062Y-97291871D01*
X139205061Y-97291870D01*
X139154112Y-97249721D01*
X139114374Y-97190887D01*
X139112753Y-97119909D01*
X139149762Y-97059322D01*
X139186210Y-97036228D01*
X139193762Y-97033100D01*
X139317041Y-96982036D01*
X139406282Y-96913559D01*
X139435936Y-96890805D01*
X139442482Y-96885782D01*
X139538736Y-96760341D01*
X139599244Y-96614262D01*
X139602223Y-96591638D01*
X139618804Y-96465688D01*
X139619882Y-96457500D01*
X139599244Y-96300738D01*
X139571069Y-96232718D01*
X139563480Y-96162129D01*
X139595259Y-96098642D01*
X139656317Y-96062414D01*
X139687478Y-96058500D01*
X141270531Y-96058500D01*
X141338652Y-96078502D01*
X141370493Y-96107795D01*
X141430718Y-96186282D01*
X141556159Y-96282536D01*
X141702238Y-96343044D01*
X141859000Y-96363682D01*
X141867188Y-96362604D01*
X141943285Y-96352586D01*
X142013434Y-96363526D01*
X142066532Y-96410654D01*
X142085722Y-96479008D01*
X142064911Y-96546886D01*
X142048828Y-96566600D01*
X142010965Y-96604464D01*
X141566534Y-97048895D01*
X141504222Y-97082921D01*
X141433407Y-97077856D01*
X141417517Y-97070639D01*
X141415280Y-97069430D01*
X141415278Y-97069429D01*
X141409855Y-97066497D01*
X141213054Y-97005577D01*
X141206929Y-97004933D01*
X141206928Y-97004933D01*
X141014298Y-96984687D01*
X141014296Y-96984687D01*
X141008169Y-96984043D01*
X140921329Y-96991946D01*
X140809142Y-97002155D01*
X140809139Y-97002156D01*
X140803003Y-97002714D01*
X140605372Y-97060880D01*
X140599907Y-97063737D01*
X140554933Y-97087249D01*
X140422802Y-97156326D01*
X140418001Y-97160186D01*
X140417998Y-97160188D01*
X140281049Y-97270298D01*
X140262247Y-97285415D01*
X140129824Y-97443230D01*
X140126859Y-97448624D01*
X140126853Y-97448633D01*
X140037034Y-97612014D01*
X140030576Y-97623762D01*
X139968284Y-97820132D01*
X139967598Y-97826249D01*
X139967597Y-97826253D01*
X139962738Y-97869576D01*
X139945320Y-98024862D01*
X139945836Y-98031006D01*
X139950526Y-98086852D01*
X139962559Y-98230153D01*
X140019344Y-98428186D01*
X140022159Y-98433663D01*
X140022160Y-98433666D01*
X140110645Y-98605840D01*
X140113512Y-98611418D01*
X140241477Y-98772870D01*
X140246170Y-98776864D01*
X140246171Y-98776865D01*
X140380965Y-98891583D01*
X140398364Y-98906391D01*
X140403742Y-98909397D01*
X140403744Y-98909398D01*
X140459153Y-98940365D01*
X140578198Y-99006897D01*
X140660046Y-99033491D01*
X140768271Y-99068656D01*
X140768275Y-99068657D01*
X140774129Y-99070559D01*
X140978694Y-99094951D01*
X140984829Y-99094479D01*
X140984831Y-99094479D01*
X141040839Y-99090169D01*
X141184100Y-99079146D01*
X141190030Y-99077490D01*
X141190032Y-99077490D01*
X141320291Y-99041121D01*
X141382525Y-99023745D01*
X141388014Y-99020972D01*
X141388020Y-99020970D01*
X141560916Y-98933633D01*
X141566410Y-98930858D01*
X141580321Y-98919990D01*
X141672711Y-98847807D01*
X141728751Y-98804024D01*
X141777071Y-98748045D01*
X141859340Y-98652734D01*
X141859340Y-98652733D01*
X141863364Y-98648072D01*
X141866910Y-98641831D01*
X141962076Y-98474307D01*
X141965123Y-98468944D01*
X142030151Y-98273463D01*
X142055971Y-98069074D01*
X142056383Y-98039600D01*
X142054938Y-98024862D01*
X142485320Y-98024862D01*
X142485836Y-98031006D01*
X142490526Y-98086852D01*
X142502559Y-98230153D01*
X142559344Y-98428186D01*
X142562159Y-98433663D01*
X142562160Y-98433666D01*
X142650645Y-98605840D01*
X142653512Y-98611418D01*
X142781477Y-98772870D01*
X142786170Y-98776864D01*
X142786171Y-98776865D01*
X142920965Y-98891583D01*
X142938364Y-98906391D01*
X142943742Y-98909397D01*
X142943744Y-98909398D01*
X142999153Y-98940365D01*
X143118198Y-99006897D01*
X143200046Y-99033491D01*
X143308271Y-99068656D01*
X143308275Y-99068657D01*
X143314129Y-99070559D01*
X143518694Y-99094951D01*
X143524829Y-99094479D01*
X143524831Y-99094479D01*
X143580839Y-99090169D01*
X143724100Y-99079146D01*
X143730030Y-99077490D01*
X143730032Y-99077490D01*
X143860291Y-99041121D01*
X143922525Y-99023745D01*
X143928014Y-99020972D01*
X143928020Y-99020970D01*
X144100916Y-98933633D01*
X144106410Y-98930858D01*
X144120321Y-98919990D01*
X144212711Y-98847807D01*
X144268751Y-98804024D01*
X144317071Y-98748045D01*
X144399340Y-98652734D01*
X144399340Y-98652733D01*
X144403364Y-98648072D01*
X144406910Y-98641831D01*
X144502076Y-98474307D01*
X144505123Y-98468944D01*
X144570151Y-98273463D01*
X144595971Y-98069074D01*
X144596383Y-98039600D01*
X144576280Y-97834570D01*
X144516735Y-97637349D01*
X144420018Y-97455449D01*
X144331271Y-97346635D01*
X144293706Y-97300575D01*
X144293703Y-97300572D01*
X144289811Y-97295800D01*
X144285062Y-97291871D01*
X144135825Y-97168411D01*
X144135821Y-97168408D01*
X144131075Y-97164482D01*
X143960022Y-97071994D01*
X143955274Y-97069427D01*
X143949855Y-97066497D01*
X143753054Y-97005577D01*
X143746929Y-97004933D01*
X143746928Y-97004933D01*
X143554298Y-96984687D01*
X143554296Y-96984687D01*
X143548169Y-96984043D01*
X143461329Y-96991946D01*
X143349142Y-97002155D01*
X143349139Y-97002156D01*
X143343003Y-97002714D01*
X143145372Y-97060880D01*
X143139907Y-97063737D01*
X143094933Y-97087249D01*
X142962802Y-97156326D01*
X142958001Y-97160186D01*
X142957998Y-97160188D01*
X142821049Y-97270298D01*
X142802247Y-97285415D01*
X142669824Y-97443230D01*
X142666859Y-97448624D01*
X142666853Y-97448633D01*
X142577034Y-97612014D01*
X142570576Y-97623762D01*
X142508284Y-97820132D01*
X142507598Y-97826249D01*
X142507597Y-97826253D01*
X142502738Y-97869576D01*
X142485320Y-98024862D01*
X142054938Y-98024862D01*
X142036280Y-97834570D01*
X141976735Y-97637349D01*
X141973843Y-97631910D01*
X141973842Y-97631907D01*
X141968883Y-97622581D01*
X141954563Y-97553044D01*
X141980110Y-97486803D01*
X141991039Y-97474332D01*
X142840966Y-96624405D01*
X142903278Y-96590379D01*
X142930061Y-96587500D01*
X144071634Y-96587500D01*
X144074307Y-96587696D01*
X144079342Y-96589425D01*
X144090964Y-96588989D01*
X144090966Y-96588989D01*
X144128255Y-96587589D01*
X144132981Y-96587500D01*
X144151948Y-96587500D01*
X144156683Y-96586618D01*
X144160209Y-96586390D01*
X144163949Y-96586249D01*
X144191208Y-96585226D01*
X144201893Y-96580636D01*
X144206493Y-96579599D01*
X144218214Y-96576038D01*
X144222617Y-96574339D01*
X144234053Y-96572209D01*
X144255041Y-96559272D01*
X144271411Y-96550769D01*
X144285888Y-96544549D01*
X144285892Y-96544547D01*
X144294063Y-96541036D01*
X144298949Y-96537022D01*
X144301134Y-96534837D01*
X144303397Y-96532785D01*
X144303542Y-96532945D01*
X144312549Y-96525825D01*
X144319444Y-96519573D01*
X144329348Y-96513468D01*
X144345916Y-96491680D01*
X144357110Y-96478861D01*
X144576375Y-96259596D01*
X144638687Y-96225570D01*
X144681916Y-96223769D01*
X144780000Y-96236682D01*
X144788188Y-96235604D01*
X144802970Y-96233658D01*
X144864404Y-96225570D01*
X144928574Y-96217122D01*
X144936762Y-96216044D01*
X145082841Y-96155536D01*
X145183234Y-96078502D01*
X145201736Y-96064305D01*
X145208282Y-96059282D01*
X145304536Y-95933841D01*
X145365044Y-95787762D01*
X145383933Y-95644284D01*
X145412655Y-95579357D01*
X145471920Y-95540265D01*
X145492760Y-95537142D01*
X145492584Y-95535808D01*
X145601614Y-95521454D01*
X145641158Y-95516248D01*
X145649346Y-95515170D01*
X145656973Y-95512011D01*
X145656976Y-95512010D01*
X145683254Y-95501125D01*
X145753844Y-95493536D01*
X145817331Y-95525316D01*
X145847881Y-95569316D01*
X145878962Y-95644352D01*
X145975216Y-95769793D01*
X145981762Y-95774816D01*
X145987963Y-95779574D01*
X146100657Y-95866047D01*
X146246736Y-95926555D01*
X146403498Y-95947193D01*
X146494524Y-95935209D01*
X146564672Y-95946148D01*
X146600065Y-95971036D01*
X147694570Y-97065541D01*
X147696326Y-97067575D01*
X147698664Y-97072358D01*
X147707193Y-97080270D01*
X147707194Y-97080271D01*
X147734566Y-97105662D01*
X147737971Y-97108942D01*
X147751366Y-97122337D01*
X147755336Y-97125061D01*
X147757984Y-97127386D01*
X147780735Y-97148490D01*
X147791541Y-97152801D01*
X147801370Y-97159015D01*
X147799030Y-97162716D01*
X147836931Y-97192470D01*
X147860208Y-97259542D01*
X147843528Y-97328552D01*
X147830882Y-97346629D01*
X147749824Y-97443230D01*
X147746859Y-97448624D01*
X147746853Y-97448633D01*
X147657034Y-97612014D01*
X147650576Y-97623762D01*
X147588284Y-97820132D01*
X147587598Y-97826249D01*
X147587597Y-97826253D01*
X147582738Y-97869576D01*
X147565320Y-98024862D01*
X147565836Y-98031006D01*
X147570526Y-98086852D01*
X147582559Y-98230153D01*
X147639344Y-98428186D01*
X147642159Y-98433663D01*
X147642160Y-98433666D01*
X147730645Y-98605840D01*
X147733512Y-98611418D01*
X147757326Y-98641464D01*
X147791314Y-98684346D01*
X147817952Y-98750156D01*
X147804781Y-98819921D01*
X147755984Y-98871490D01*
X147692569Y-98888611D01*
X147406972Y-98888611D01*
X147338851Y-98868609D01*
X147317877Y-98851706D01*
X147072011Y-98605840D01*
X147037985Y-98543528D01*
X147043050Y-98472713D01*
X147043225Y-98472286D01*
X147045123Y-98468944D01*
X147056859Y-98433666D01*
X147108204Y-98279315D01*
X147110151Y-98273463D01*
X147135971Y-98069074D01*
X147136383Y-98039600D01*
X147116280Y-97834570D01*
X147056735Y-97637349D01*
X146960018Y-97455449D01*
X146871271Y-97346635D01*
X146833706Y-97300575D01*
X146833703Y-97300572D01*
X146829811Y-97295800D01*
X146825062Y-97291871D01*
X146675825Y-97168411D01*
X146675821Y-97168408D01*
X146671075Y-97164482D01*
X146500022Y-97071994D01*
X146495274Y-97069427D01*
X146489855Y-97066497D01*
X146293054Y-97005577D01*
X146286929Y-97004933D01*
X146286928Y-97004933D01*
X146094298Y-96984687D01*
X146094296Y-96984687D01*
X146088169Y-96984043D01*
X146001329Y-96991946D01*
X145889142Y-97002155D01*
X145889139Y-97002156D01*
X145883003Y-97002714D01*
X145685372Y-97060880D01*
X145679907Y-97063737D01*
X145634933Y-97087249D01*
X145502802Y-97156326D01*
X145498001Y-97160186D01*
X145497998Y-97160188D01*
X145361049Y-97270298D01*
X145342247Y-97285415D01*
X145209824Y-97443230D01*
X145206859Y-97448624D01*
X145206853Y-97448633D01*
X145117034Y-97612014D01*
X145110576Y-97623762D01*
X145048284Y-97820132D01*
X145047598Y-97826249D01*
X145047597Y-97826253D01*
X145042738Y-97869576D01*
X145025320Y-98024862D01*
X145025836Y-98031006D01*
X145030526Y-98086852D01*
X145042559Y-98230153D01*
X145099344Y-98428186D01*
X145102159Y-98433663D01*
X145102160Y-98433666D01*
X145190645Y-98605840D01*
X145193512Y-98611418D01*
X145321477Y-98772870D01*
X145326170Y-98776864D01*
X145326171Y-98776865D01*
X145460965Y-98891583D01*
X145478364Y-98906391D01*
X145483742Y-98909397D01*
X145483744Y-98909398D01*
X145539153Y-98940365D01*
X145658198Y-99006897D01*
X145740046Y-99033491D01*
X145848271Y-99068656D01*
X145848275Y-99068657D01*
X145854129Y-99070559D01*
X146058694Y-99094951D01*
X146064829Y-99094479D01*
X146064831Y-99094479D01*
X146120839Y-99090169D01*
X146264100Y-99079146D01*
X146270030Y-99077490D01*
X146270032Y-99077490D01*
X146400291Y-99041121D01*
X146462525Y-99023745D01*
X146499011Y-99005315D01*
X146568831Y-98992455D01*
X146634522Y-99019384D01*
X146644915Y-99028686D01*
X146980792Y-99364563D01*
X146982548Y-99366597D01*
X146984886Y-99371380D01*
X146993416Y-99379293D01*
X146999044Y-99386870D01*
X147023605Y-99453483D01*
X147008253Y-99522800D01*
X146957863Y-99572814D01*
X146897893Y-99588000D01*
X129430166Y-99588000D01*
X129362045Y-99567998D01*
X129315552Y-99514342D01*
X129305448Y-99444068D01*
X129334942Y-99379488D01*
X129381073Y-99347400D01*
X129380982Y-99347234D01*
X129382534Y-99346384D01*
X129385936Y-99344018D01*
X129388854Y-99342924D01*
X129404449Y-99334386D01*
X129506524Y-99257885D01*
X129519085Y-99245324D01*
X129595586Y-99143249D01*
X129604124Y-99127654D01*
X129649278Y-99007206D01*
X129652905Y-98991951D01*
X129658431Y-98941086D01*
X129658800Y-98934272D01*
X129658800Y-98558792D01*
X129678802Y-98490671D01*
X129732458Y-98444178D01*
X129802732Y-98434074D01*
X129867312Y-98463568D01*
X129896867Y-98501198D01*
X129949957Y-98604500D01*
X129953512Y-98611418D01*
X130081477Y-98772870D01*
X130086170Y-98776864D01*
X130086171Y-98776865D01*
X130220965Y-98891583D01*
X130238364Y-98906391D01*
X130243742Y-98909397D01*
X130243744Y-98909398D01*
X130299153Y-98940365D01*
X130418198Y-99006897D01*
X130500046Y-99033491D01*
X130608271Y-99068656D01*
X130608275Y-99068657D01*
X130614129Y-99070559D01*
X130818694Y-99094951D01*
X130824829Y-99094479D01*
X130824831Y-99094479D01*
X130880839Y-99090169D01*
X131024100Y-99079146D01*
X131030030Y-99077490D01*
X131030032Y-99077490D01*
X131160291Y-99041121D01*
X131222525Y-99023745D01*
X131228014Y-99020972D01*
X131228020Y-99020970D01*
X131400916Y-98933633D01*
X131406410Y-98930858D01*
X131420321Y-98919990D01*
X131512711Y-98847807D01*
X131568751Y-98804024D01*
X131617071Y-98748045D01*
X131699340Y-98652734D01*
X131699340Y-98652733D01*
X131703364Y-98648072D01*
X131706910Y-98641831D01*
X131802076Y-98474307D01*
X131805123Y-98468944D01*
X131870151Y-98273463D01*
X131895971Y-98069074D01*
X131896383Y-98039600D01*
X131894938Y-98024862D01*
X132325320Y-98024862D01*
X132325836Y-98031006D01*
X132330526Y-98086852D01*
X132342559Y-98230153D01*
X132399344Y-98428186D01*
X132402159Y-98433663D01*
X132402160Y-98433666D01*
X132490645Y-98605840D01*
X132493512Y-98611418D01*
X132621477Y-98772870D01*
X132626170Y-98776864D01*
X132626171Y-98776865D01*
X132760965Y-98891583D01*
X132778364Y-98906391D01*
X132783742Y-98909397D01*
X132783744Y-98909398D01*
X132839153Y-98940365D01*
X132958198Y-99006897D01*
X133040046Y-99033491D01*
X133148271Y-99068656D01*
X133148275Y-99068657D01*
X133154129Y-99070559D01*
X133358694Y-99094951D01*
X133364829Y-99094479D01*
X133364831Y-99094479D01*
X133420839Y-99090169D01*
X133564100Y-99079146D01*
X133570030Y-99077490D01*
X133570032Y-99077490D01*
X133700291Y-99041121D01*
X133762525Y-99023745D01*
X133768014Y-99020972D01*
X133768020Y-99020970D01*
X133940916Y-98933633D01*
X133946410Y-98930858D01*
X133960321Y-98919990D01*
X134052711Y-98847807D01*
X134108751Y-98804024D01*
X134157071Y-98748045D01*
X134239340Y-98652734D01*
X134239340Y-98652733D01*
X134243364Y-98648072D01*
X134246910Y-98641831D01*
X134342076Y-98474307D01*
X134345123Y-98468944D01*
X134410151Y-98273463D01*
X134435971Y-98069074D01*
X134436383Y-98039600D01*
X134416280Y-97834570D01*
X134356735Y-97637349D01*
X134260018Y-97455449D01*
X134171271Y-97346635D01*
X134133706Y-97300575D01*
X134133703Y-97300572D01*
X134129811Y-97295800D01*
X134125062Y-97291871D01*
X133975825Y-97168411D01*
X133975821Y-97168408D01*
X133971075Y-97164482D01*
X133800022Y-97071994D01*
X133795274Y-97069427D01*
X133789855Y-97066497D01*
X133593054Y-97005577D01*
X133586929Y-97004933D01*
X133586928Y-97004933D01*
X133394298Y-96984687D01*
X133394296Y-96984687D01*
X133388169Y-96984043D01*
X133301329Y-96991946D01*
X133189142Y-97002155D01*
X133189139Y-97002156D01*
X133183003Y-97002714D01*
X132985372Y-97060880D01*
X132979907Y-97063737D01*
X132934933Y-97087249D01*
X132802802Y-97156326D01*
X132798001Y-97160186D01*
X132797998Y-97160188D01*
X132661049Y-97270298D01*
X132642247Y-97285415D01*
X132509824Y-97443230D01*
X132506859Y-97448624D01*
X132506853Y-97448633D01*
X132417034Y-97612014D01*
X132410576Y-97623762D01*
X132348284Y-97820132D01*
X132347598Y-97826249D01*
X132347597Y-97826253D01*
X132342738Y-97869576D01*
X132325320Y-98024862D01*
X131894938Y-98024862D01*
X131876280Y-97834570D01*
X131816735Y-97637349D01*
X131720018Y-97455449D01*
X131712167Y-97445822D01*
X131622377Y-97335730D01*
X131594823Y-97270298D01*
X131594020Y-97256094D01*
X131594020Y-95664139D01*
X131594893Y-95649330D01*
X131597820Y-95624599D01*
X131598927Y-95615246D01*
X131596369Y-95601238D01*
X131588291Y-95557004D01*
X131587642Y-95553102D01*
X131580236Y-95503848D01*
X131580235Y-95503845D01*
X131578835Y-95494533D01*
X131575682Y-95487966D01*
X131574373Y-95480801D01*
X131547058Y-95428217D01*
X131545308Y-95424714D01*
X131523752Y-95379824D01*
X131519674Y-95371331D01*
X131514779Y-95366036D01*
X131514686Y-95365897D01*
X131511372Y-95359518D01*
X131507026Y-95354430D01*
X131469444Y-95316848D01*
X131466014Y-95313282D01*
X131464349Y-95311481D01*
X131426903Y-95270972D01*
X131420503Y-95267254D01*
X131414243Y-95261647D01*
X130920405Y-94767809D01*
X130886379Y-94705497D01*
X130883500Y-94678714D01*
X130883500Y-90243210D01*
X130903502Y-90175089D01*
X130920405Y-90154115D01*
X131115956Y-89958564D01*
X131178268Y-89924538D01*
X131249083Y-89929603D01*
G37*
G04 #@! TD.AperFunction*
G04 #@! TA.AperFunction,Conductor*
G36*
X130084491Y-97088002D02*
G01*
X130130984Y-97141658D01*
X130141088Y-97211932D01*
X130111594Y-97276512D01*
X130106235Y-97282209D01*
X130102247Y-97285415D01*
X129969824Y-97443230D01*
X129966854Y-97448633D01*
X129966853Y-97448634D01*
X129895214Y-97578945D01*
X129844868Y-97629004D01*
X129775451Y-97643897D01*
X129709002Y-97618896D01*
X129666618Y-97561939D01*
X129658799Y-97518244D01*
X129658799Y-97194000D01*
X129678801Y-97125879D01*
X129732457Y-97079386D01*
X129784799Y-97068000D01*
X130016370Y-97068000D01*
X130084491Y-97088002D01*
G37*
G04 #@! TD.AperFunction*
G04 #@! TA.AperFunction,Conductor*
G36*
X130331388Y-83862002D02*
G01*
X130377881Y-83915658D01*
X130387985Y-83985932D01*
X130358491Y-84050512D01*
X130312095Y-84084154D01*
X130308162Y-84085807D01*
X130119263Y-84184142D01*
X130110538Y-84189636D01*
X129940233Y-84317505D01*
X129932526Y-84324348D01*
X129785390Y-84478317D01*
X129778904Y-84486327D01*
X129658898Y-84662249D01*
X129653800Y-84671223D01*
X129591588Y-84805247D01*
X129544764Y-84858614D01*
X129476520Y-84878195D01*
X129408525Y-84857771D01*
X129362365Y-84803829D01*
X129351300Y-84752197D01*
X129351300Y-84469852D01*
X129344649Y-84436413D01*
X129342088Y-84423539D01*
X129342088Y-84423538D01*
X129339667Y-84411369D01*
X129295352Y-84345048D01*
X129229031Y-84300733D01*
X129216862Y-84298312D01*
X129216861Y-84298312D01*
X129176616Y-84290307D01*
X129170548Y-84289100D01*
X127431052Y-84289100D01*
X127424984Y-84290307D01*
X127384739Y-84298312D01*
X127384738Y-84298312D01*
X127372569Y-84300733D01*
X127306248Y-84345048D01*
X127261933Y-84411369D01*
X127259512Y-84423538D01*
X127259512Y-84423539D01*
X127256951Y-84436413D01*
X127250300Y-84469852D01*
X127250300Y-86209348D01*
X127251507Y-86215414D01*
X127251507Y-86215416D01*
X127258230Y-86249213D01*
X127261933Y-86267831D01*
X127306248Y-86334152D01*
X127316561Y-86341043D01*
X127357885Y-86368655D01*
X127372569Y-86378467D01*
X127384738Y-86380888D01*
X127384739Y-86380888D01*
X127405925Y-86385102D01*
X127431052Y-86390100D01*
X127551980Y-86390100D01*
X127620101Y-86410102D01*
X127666594Y-86463758D01*
X127677980Y-86516100D01*
X127677980Y-88958731D01*
X127677107Y-88973540D01*
X127673073Y-89007625D01*
X127674765Y-89016889D01*
X127674765Y-89016892D01*
X127683709Y-89065867D01*
X127684358Y-89069769D01*
X127691764Y-89119023D01*
X127693165Y-89128338D01*
X127696318Y-89134905D01*
X127697627Y-89142070D01*
X127724942Y-89194654D01*
X127726685Y-89198144D01*
X127752326Y-89251540D01*
X127757221Y-89256835D01*
X127757314Y-89256974D01*
X127760628Y-89263353D01*
X127764974Y-89268441D01*
X127802556Y-89306023D01*
X127805986Y-89309588D01*
X127845097Y-89351899D01*
X127851497Y-89355617D01*
X127857757Y-89361224D01*
X128447065Y-89950532D01*
X128456920Y-89961621D01*
X128478173Y-89988580D01*
X128485920Y-89993934D01*
X128485924Y-89993938D01*
X128526886Y-90022249D01*
X128530106Y-90024550D01*
X128570156Y-90054131D01*
X128570158Y-90054132D01*
X128577737Y-90059730D01*
X128584612Y-90062144D01*
X128590603Y-90066285D01*
X128647115Y-90084157D01*
X128650799Y-90085387D01*
X128697798Y-90101892D01*
X128697802Y-90101893D01*
X128706687Y-90105013D01*
X128713887Y-90105296D01*
X128714063Y-90105330D01*
X128720911Y-90107496D01*
X128727582Y-90108021D01*
X128780762Y-90108021D01*
X128785708Y-90108118D01*
X128843251Y-90110379D01*
X128850406Y-90108482D01*
X128858781Y-90108021D01*
X129514023Y-90108021D01*
X129528833Y-90108894D01*
X129562917Y-90112928D01*
X129572181Y-90111236D01*
X129572184Y-90111236D01*
X129621159Y-90102292D01*
X129625061Y-90101643D01*
X129674315Y-90094237D01*
X129674318Y-90094236D01*
X129683630Y-90092836D01*
X129690197Y-90089683D01*
X129697362Y-90088374D01*
X129749947Y-90061059D01*
X129753385Y-90059340D01*
X129793961Y-90039855D01*
X129864025Y-90028400D01*
X129929162Y-90056643D01*
X129968689Y-90115618D01*
X129974500Y-90153440D01*
X129974500Y-94876000D01*
X129954498Y-94944121D01*
X129900842Y-94990614D01*
X129848500Y-95002000D01*
X129783046Y-95002000D01*
X129714925Y-94981998D01*
X129668432Y-94928342D01*
X129658328Y-94858068D01*
X129666636Y-94827786D01*
X129696687Y-94755236D01*
X129698676Y-94740132D01*
X129715388Y-94613188D01*
X129716466Y-94605000D01*
X129696687Y-94454764D01*
X129638698Y-94314767D01*
X129546451Y-94194549D01*
X129426233Y-94102302D01*
X129286236Y-94044313D01*
X129278048Y-94043235D01*
X129177807Y-94030038D01*
X129177806Y-94030038D01*
X129173720Y-94029500D01*
X129098280Y-94029500D01*
X129094194Y-94030038D01*
X129094193Y-94030038D01*
X128993952Y-94043235D01*
X128985764Y-94044313D01*
X128845767Y-94102302D01*
X128725549Y-94194549D01*
X128633302Y-94314767D01*
X128575313Y-94454764D01*
X128555534Y-94605000D01*
X128556612Y-94613188D01*
X128573325Y-94740132D01*
X128575313Y-94755236D01*
X128633302Y-94895233D01*
X128664647Y-94936082D01*
X128690246Y-95002300D01*
X128675981Y-95071849D01*
X128623836Y-95124036D01*
X128542016Y-95167540D01*
X128531807Y-95174322D01*
X128384366Y-95294572D01*
X128375662Y-95303216D01*
X128254390Y-95449809D01*
X128247530Y-95459980D01*
X128157038Y-95627342D01*
X128152286Y-95638647D01*
X128113578Y-95763692D01*
X128113372Y-95777795D01*
X128120127Y-95781000D01*
X129764000Y-95781000D01*
X129832121Y-95801002D01*
X129878614Y-95854658D01*
X129890000Y-95907000D01*
X129890000Y-96163000D01*
X129869998Y-96231121D01*
X129816342Y-96277614D01*
X129764000Y-96289000D01*
X128127014Y-96289000D01*
X128113483Y-96292973D01*
X128112363Y-96300768D01*
X128146846Y-96417932D01*
X128151439Y-96429301D01*
X128186949Y-96497225D01*
X128200783Y-96566861D01*
X128174773Y-96632921D01*
X128117177Y-96674433D01*
X128075287Y-96681600D01*
X127406131Y-96681601D01*
X127399310Y-96681971D01*
X127348448Y-96687495D01*
X127333196Y-96691121D01*
X127212746Y-96736276D01*
X127197151Y-96744814D01*
X127095076Y-96821315D01*
X127082515Y-96833876D01*
X127006014Y-96935951D01*
X126997476Y-96951546D01*
X126952322Y-97071994D01*
X126948695Y-97087249D01*
X126943169Y-97138114D01*
X126942800Y-97144928D01*
X126942800Y-97229130D01*
X126922798Y-97297251D01*
X126869142Y-97343744D01*
X126798868Y-97353848D01*
X126734288Y-97324354D01*
X126711008Y-97297570D01*
X126706204Y-97290143D01*
X126643086Y-97192577D01*
X126627863Y-97169046D01*
X126627861Y-97169043D01*
X126625055Y-97164706D01*
X126621579Y-97160886D01*
X126621574Y-97160879D01*
X126518925Y-97048070D01*
X126487873Y-96984224D01*
X126496268Y-96913725D01*
X126532482Y-96865627D01*
X126664933Y-96757603D01*
X126673637Y-96748959D01*
X126791784Y-96606144D01*
X126798644Y-96595973D01*
X126886804Y-96432924D01*
X126891556Y-96421619D01*
X126927250Y-96306308D01*
X126927456Y-96292205D01*
X126920701Y-96289000D01*
X125328000Y-96289000D01*
X125259879Y-96268998D01*
X125213386Y-96215342D01*
X125202000Y-96163000D01*
X125202000Y-95762885D01*
X125710000Y-95762885D01*
X125714475Y-95778124D01*
X125715865Y-95779329D01*
X125723548Y-95781000D01*
X126913924Y-95781000D01*
X126927455Y-95777027D01*
X126928575Y-95769232D01*
X126896862Y-95661479D01*
X126892269Y-95650111D01*
X126806393Y-95485846D01*
X126799679Y-95475585D01*
X126683532Y-95331127D01*
X126674954Y-95322368D01*
X126532961Y-95203222D01*
X126522841Y-95196292D01*
X126360415Y-95106998D01*
X126349142Y-95102166D01*
X126172462Y-95046120D01*
X126160468Y-95043570D01*
X126016239Y-95027393D01*
X126009215Y-95027000D01*
X125728115Y-95027000D01*
X125712876Y-95031475D01*
X125711671Y-95032865D01*
X125710000Y-95040548D01*
X125710000Y-95762885D01*
X125202000Y-95762885D01*
X125202000Y-95045115D01*
X125197525Y-95029876D01*
X125196135Y-95028671D01*
X125188452Y-95027000D01*
X124909343Y-95027000D01*
X124903195Y-95027301D01*
X124765397Y-95040812D01*
X124753362Y-95043195D01*
X124575924Y-95096767D01*
X124564584Y-95101441D01*
X124400923Y-95188460D01*
X124390706Y-95195249D01*
X124247067Y-95312397D01*
X124238368Y-95321037D01*
X124156085Y-95420499D01*
X124097251Y-95460237D01*
X124026273Y-95461858D01*
X123965685Y-95424849D01*
X123934725Y-95360959D01*
X123933000Y-95340183D01*
X123933000Y-91077866D01*
X124437660Y-91077866D01*
X124439229Y-91089395D01*
X124439229Y-91089396D01*
X124441349Y-91104973D01*
X124442500Y-91121964D01*
X124442500Y-93512834D01*
X124442304Y-93515507D01*
X124440575Y-93520542D01*
X124441011Y-93532164D01*
X124441011Y-93532166D01*
X124442411Y-93569455D01*
X124442500Y-93574181D01*
X124442500Y-93593148D01*
X124443382Y-93597883D01*
X124443610Y-93601409D01*
X124444774Y-93632408D01*
X124449364Y-93643093D01*
X124450401Y-93647693D01*
X124453962Y-93659414D01*
X124455661Y-93663817D01*
X124457791Y-93675253D01*
X124463895Y-93685155D01*
X124470727Y-93696239D01*
X124479231Y-93712611D01*
X124485451Y-93727088D01*
X124485453Y-93727092D01*
X124488964Y-93735263D01*
X124492978Y-93740149D01*
X124495163Y-93742334D01*
X124497215Y-93744597D01*
X124497055Y-93744742D01*
X124504175Y-93753749D01*
X124510427Y-93760644D01*
X124516532Y-93770548D01*
X124538119Y-93786963D01*
X124538307Y-93787106D01*
X124551136Y-93798307D01*
X124961244Y-94208416D01*
X125360295Y-94607467D01*
X125362044Y-94609493D01*
X125364382Y-94614276D01*
X125400297Y-94647592D01*
X125403676Y-94650848D01*
X125417083Y-94664255D01*
X125421062Y-94666985D01*
X125423691Y-94669293D01*
X125446453Y-94690408D01*
X125457260Y-94694719D01*
X125461255Y-94697245D01*
X125472049Y-94703008D01*
X125476361Y-94704919D01*
X125485953Y-94711499D01*
X125497270Y-94714185D01*
X125497271Y-94714185D01*
X125509934Y-94717190D01*
X125527531Y-94722755D01*
X125542169Y-94728595D01*
X125542172Y-94728596D01*
X125550429Y-94731890D01*
X125556722Y-94732507D01*
X125559801Y-94732507D01*
X125562874Y-94732657D01*
X125562863Y-94732873D01*
X125574238Y-94734205D01*
X125583553Y-94734661D01*
X125594873Y-94737347D01*
X125606402Y-94735778D01*
X125606403Y-94735778D01*
X125621980Y-94733658D01*
X125638971Y-94732507D01*
X126876627Y-94732507D01*
X126879300Y-94732703D01*
X126884335Y-94734432D01*
X126895957Y-94733996D01*
X126895959Y-94733996D01*
X126933248Y-94732596D01*
X126937974Y-94732507D01*
X126956941Y-94732507D01*
X126961676Y-94731625D01*
X126965202Y-94731397D01*
X126968942Y-94731256D01*
X126996201Y-94730233D01*
X127006886Y-94725643D01*
X127011486Y-94724606D01*
X127023207Y-94721045D01*
X127027610Y-94719346D01*
X127039046Y-94717216D01*
X127060034Y-94704279D01*
X127076404Y-94695776D01*
X127090881Y-94689556D01*
X127090885Y-94689554D01*
X127099056Y-94686043D01*
X127103942Y-94682029D01*
X127106127Y-94679844D01*
X127108390Y-94677792D01*
X127108535Y-94677952D01*
X127117542Y-94670832D01*
X127124437Y-94664580D01*
X127134341Y-94658475D01*
X127150909Y-94636687D01*
X127162103Y-94623868D01*
X127701972Y-94083999D01*
X127704006Y-94082243D01*
X127708789Y-94079905D01*
X127722335Y-94065303D01*
X127742093Y-94044003D01*
X127745373Y-94040598D01*
X127758768Y-94027203D01*
X127761492Y-94023233D01*
X127763817Y-94020585D01*
X127777010Y-94006362D01*
X127784921Y-93997834D01*
X127789233Y-93987027D01*
X127791752Y-93983042D01*
X127797524Y-93972233D01*
X127799431Y-93967928D01*
X127806013Y-93958334D01*
X127811706Y-93934344D01*
X127817271Y-93916748D01*
X127823106Y-93902122D01*
X127826403Y-93893858D01*
X127827020Y-93887565D01*
X127827020Y-93884483D01*
X127827170Y-93881413D01*
X127827386Y-93881424D01*
X127828718Y-93870049D01*
X127829173Y-93860735D01*
X127831860Y-93849414D01*
X127828171Y-93822307D01*
X127827020Y-93805316D01*
X127827020Y-92723880D01*
X127827216Y-92721207D01*
X127828945Y-92716172D01*
X127828475Y-92703637D01*
X127827109Y-92667259D01*
X127827020Y-92662533D01*
X127827020Y-92643566D01*
X127826138Y-92638831D01*
X127825910Y-92635305D01*
X127825358Y-92620602D01*
X127824746Y-92604306D01*
X127820156Y-92593621D01*
X127819119Y-92589021D01*
X127815558Y-92577300D01*
X127813859Y-92572897D01*
X127811729Y-92561461D01*
X127798792Y-92540473D01*
X127790289Y-92524103D01*
X127784069Y-92509626D01*
X127784067Y-92509622D01*
X127780556Y-92501451D01*
X127776542Y-92496565D01*
X127774357Y-92494380D01*
X127772305Y-92492117D01*
X127772465Y-92491972D01*
X127765345Y-92482965D01*
X127759093Y-92476070D01*
X127752988Y-92466166D01*
X127731200Y-92449598D01*
X127718381Y-92438404D01*
X127433525Y-92153548D01*
X127431769Y-92151514D01*
X127429431Y-92146731D01*
X127416405Y-92134647D01*
X127393529Y-92113427D01*
X127390124Y-92110147D01*
X127376729Y-92096752D01*
X127372759Y-92094028D01*
X127370111Y-92091703D01*
X127355887Y-92078508D01*
X127355884Y-92078506D01*
X127347360Y-92070599D01*
X127336556Y-92066289D01*
X127332567Y-92063767D01*
X127321779Y-92058006D01*
X127317454Y-92056089D01*
X127307860Y-92049508D01*
X127296541Y-92046822D01*
X127296539Y-92046821D01*
X127283879Y-92043817D01*
X127266282Y-92038252D01*
X127251644Y-92032412D01*
X127251641Y-92032411D01*
X127243384Y-92029117D01*
X127237091Y-92028500D01*
X127234012Y-92028500D01*
X127230939Y-92028350D01*
X127230950Y-92028134D01*
X127219575Y-92026802D01*
X127210260Y-92026346D01*
X127198940Y-92023660D01*
X127187411Y-92025229D01*
X127187410Y-92025229D01*
X127171833Y-92027349D01*
X127154842Y-92028500D01*
X126948059Y-92028500D01*
X126879938Y-92008498D01*
X126833445Y-91954842D01*
X126827484Y-91934074D01*
X126826259Y-91934402D01*
X126824122Y-91926426D01*
X126823044Y-91918238D01*
X126762536Y-91772159D01*
X126666282Y-91646718D01*
X126668208Y-91645240D01*
X126640110Y-91593783D01*
X126645175Y-91522968D01*
X126667506Y-91488221D01*
X126666282Y-91487282D01*
X126719115Y-91418428D01*
X126762536Y-91361841D01*
X126823044Y-91215762D01*
X126843682Y-91059000D01*
X126823044Y-90902238D01*
X126762536Y-90756159D01*
X126666282Y-90630718D01*
X126668208Y-90629240D01*
X126640110Y-90577783D01*
X126645175Y-90506968D01*
X126667506Y-90472221D01*
X126666282Y-90471282D01*
X126682242Y-90450482D01*
X126762536Y-90345841D01*
X126823044Y-90199762D01*
X126843682Y-90043000D01*
X126823044Y-89886238D01*
X126762536Y-89740159D01*
X126666282Y-89614718D01*
X126540841Y-89518464D01*
X126394762Y-89457956D01*
X126238000Y-89437318D01*
X126081238Y-89457956D01*
X125935159Y-89518464D01*
X125809718Y-89614718D01*
X125713464Y-89740159D01*
X125652956Y-89886238D01*
X125649162Y-89915061D01*
X125649161Y-89915065D01*
X125620439Y-89979993D01*
X125561175Y-90019085D01*
X125528966Y-90024531D01*
X125506662Y-90025368D01*
X125505545Y-90025410D01*
X125500819Y-90025499D01*
X125481853Y-90025499D01*
X125477118Y-90026380D01*
X125473591Y-90026609D01*
X125469055Y-90026779D01*
X125442592Y-90027773D01*
X125431905Y-90032365D01*
X125427293Y-90033404D01*
X125415601Y-90036956D01*
X125411184Y-90038660D01*
X125399748Y-90040790D01*
X125379620Y-90053197D01*
X125378762Y-90053726D01*
X125362390Y-90062230D01*
X125347913Y-90068450D01*
X125347909Y-90068452D01*
X125339738Y-90071963D01*
X125334852Y-90075977D01*
X125332667Y-90078162D01*
X125330404Y-90080214D01*
X125330259Y-90080054D01*
X125321252Y-90087174D01*
X125314357Y-90093426D01*
X125304453Y-90099531D01*
X125287885Y-90121319D01*
X125276691Y-90134138D01*
X124567548Y-90843281D01*
X124565514Y-90845037D01*
X124560731Y-90847375D01*
X124552819Y-90855904D01*
X124552818Y-90855905D01*
X124527427Y-90883277D01*
X124524147Y-90886682D01*
X124510752Y-90900077D01*
X124508028Y-90904047D01*
X124505703Y-90906695D01*
X124492508Y-90920919D01*
X124492506Y-90920922D01*
X124484599Y-90929446D01*
X124480289Y-90940250D01*
X124477767Y-90944239D01*
X124472006Y-90955027D01*
X124470089Y-90959352D01*
X124463508Y-90968946D01*
X124460822Y-90980265D01*
X124460821Y-90980267D01*
X124457817Y-90992927D01*
X124452252Y-91010524D01*
X124443117Y-91033422D01*
X124442500Y-91039715D01*
X124442500Y-91042794D01*
X124442350Y-91045867D01*
X124442134Y-91045856D01*
X124440802Y-91057231D01*
X124440346Y-91066546D01*
X124437660Y-91077866D01*
X123933000Y-91077866D01*
X123933000Y-88089182D01*
X123953002Y-88021061D01*
X124006658Y-87974568D01*
X124076932Y-87964464D01*
X124141512Y-87993958D01*
X124157197Y-88010230D01*
X124228468Y-88098873D01*
X124237046Y-88107632D01*
X124379039Y-88226778D01*
X124389159Y-88233708D01*
X124551585Y-88323002D01*
X124562858Y-88327834D01*
X124739538Y-88383880D01*
X124751532Y-88386430D01*
X124895761Y-88402607D01*
X124902785Y-88403000D01*
X125183885Y-88403000D01*
X125199124Y-88398525D01*
X125200329Y-88397135D01*
X125202000Y-88389452D01*
X125202000Y-88384885D01*
X125710000Y-88384885D01*
X125714475Y-88400124D01*
X125715865Y-88401329D01*
X125723548Y-88403000D01*
X126002657Y-88403000D01*
X126008805Y-88402699D01*
X126146603Y-88389188D01*
X126158638Y-88386805D01*
X126336076Y-88333233D01*
X126347416Y-88328559D01*
X126511077Y-88241540D01*
X126521294Y-88234751D01*
X126664933Y-88117603D01*
X126673637Y-88108959D01*
X126791784Y-87966144D01*
X126798644Y-87955973D01*
X126886804Y-87792924D01*
X126891556Y-87781619D01*
X126927250Y-87666308D01*
X126927456Y-87652205D01*
X126920701Y-87649000D01*
X125728115Y-87649000D01*
X125712876Y-87653475D01*
X125711671Y-87654865D01*
X125710000Y-87662548D01*
X125710000Y-88384885D01*
X125202000Y-88384885D01*
X125202000Y-87267000D01*
X125222002Y-87198879D01*
X125275658Y-87152386D01*
X125328000Y-87141000D01*
X126913924Y-87141000D01*
X126927455Y-87137027D01*
X126928575Y-87129232D01*
X126896862Y-87021479D01*
X126892269Y-87010111D01*
X126806393Y-86845846D01*
X126799679Y-86835585D01*
X126683532Y-86691127D01*
X126674954Y-86682368D01*
X126532065Y-86562470D01*
X126492738Y-86503360D01*
X126491612Y-86432373D01*
X126524115Y-86376699D01*
X126579680Y-86321327D01*
X126720785Y-86124959D01*
X126805335Y-85953884D01*
X126825628Y-85912825D01*
X126825629Y-85912823D01*
X126827922Y-85908183D01*
X126898216Y-85676818D01*
X126898891Y-85671692D01*
X126929341Y-85440402D01*
X126929342Y-85440396D01*
X126929778Y-85437080D01*
X126931355Y-85372578D01*
X126931458Y-85368364D01*
X126931458Y-85368360D01*
X126931540Y-85365000D01*
X126911727Y-85124006D01*
X126852819Y-84889484D01*
X126756398Y-84667732D01*
X126696359Y-84574925D01*
X126627863Y-84469046D01*
X126627861Y-84469043D01*
X126625055Y-84464706D01*
X126462316Y-84285858D01*
X126272551Y-84135991D01*
X126177955Y-84083771D01*
X126168059Y-84078308D01*
X126118089Y-84027876D01*
X126103317Y-83958433D01*
X126128433Y-83892027D01*
X126185464Y-83849743D01*
X126228953Y-83842000D01*
X130263267Y-83842000D01*
X130331388Y-83862002D01*
G37*
G04 #@! TD.AperFunction*
G04 #@! TA.AperFunction,Conductor*
G36*
X157077360Y-83862002D02*
G01*
X157123853Y-83915658D01*
X157133957Y-83985932D01*
X157104463Y-84050512D01*
X157098334Y-84057095D01*
X156806534Y-84348895D01*
X156744222Y-84382921D01*
X156673407Y-84377856D01*
X156657517Y-84370639D01*
X156655280Y-84369430D01*
X156655278Y-84369429D01*
X156649855Y-84366497D01*
X156453054Y-84305577D01*
X156446929Y-84304933D01*
X156446928Y-84304933D01*
X156254298Y-84284687D01*
X156254296Y-84284687D01*
X156248169Y-84284043D01*
X156161329Y-84291946D01*
X156049142Y-84302155D01*
X156049139Y-84302156D01*
X156043003Y-84302714D01*
X155845372Y-84360880D01*
X155839907Y-84363737D01*
X155768529Y-84401053D01*
X155662802Y-84456326D01*
X155658001Y-84460186D01*
X155657998Y-84460188D01*
X155507054Y-84581550D01*
X155502247Y-84585415D01*
X155369824Y-84743230D01*
X155366856Y-84748628D01*
X155366853Y-84748633D01*
X155293638Y-84881812D01*
X155270576Y-84923762D01*
X155208284Y-85120132D01*
X155207598Y-85126249D01*
X155207597Y-85126253D01*
X155201051Y-85184616D01*
X155185320Y-85324862D01*
X155202559Y-85530153D01*
X155204258Y-85536078D01*
X155243145Y-85671692D01*
X155259344Y-85728186D01*
X155262159Y-85733663D01*
X155262160Y-85733666D01*
X155350645Y-85905840D01*
X155353512Y-85911418D01*
X155481477Y-86072870D01*
X155486170Y-86076864D01*
X155486171Y-86076865D01*
X155633674Y-86202400D01*
X155633677Y-86202402D01*
X155638364Y-86206391D01*
X155643740Y-86209395D01*
X155646099Y-86211035D01*
X155690621Y-86266337D01*
X155698177Y-86336930D01*
X155666368Y-86400402D01*
X155605293Y-86436601D01*
X155574190Y-86440500D01*
X155278861Y-86440500D01*
X155210740Y-86420498D01*
X155189766Y-86403595D01*
X154692011Y-85905840D01*
X154657985Y-85843528D01*
X154663050Y-85772713D01*
X154663225Y-85772286D01*
X154665123Y-85768944D01*
X154676859Y-85733666D01*
X154728204Y-85579315D01*
X154730151Y-85573463D01*
X154755971Y-85369074D01*
X154756383Y-85339600D01*
X154736280Y-85134570D01*
X154676735Y-84937349D01*
X154580018Y-84755449D01*
X154485778Y-84639900D01*
X154453706Y-84600575D01*
X154453703Y-84600572D01*
X154449811Y-84595800D01*
X154432586Y-84581550D01*
X154295825Y-84468411D01*
X154295821Y-84468409D01*
X154291075Y-84464482D01*
X154120684Y-84372352D01*
X154115274Y-84369427D01*
X154109855Y-84366497D01*
X153913054Y-84305577D01*
X153906929Y-84304933D01*
X153906928Y-84304933D01*
X153714298Y-84284687D01*
X153714296Y-84284687D01*
X153708169Y-84284043D01*
X153621329Y-84291946D01*
X153509142Y-84302155D01*
X153509139Y-84302156D01*
X153503003Y-84302714D01*
X153305372Y-84360880D01*
X153299907Y-84363737D01*
X153228529Y-84401053D01*
X153122802Y-84456326D01*
X153118001Y-84460186D01*
X153117998Y-84460188D01*
X152967054Y-84581550D01*
X152962247Y-84585415D01*
X152829824Y-84743230D01*
X152826856Y-84748628D01*
X152826853Y-84748633D01*
X152753638Y-84881812D01*
X152730576Y-84923762D01*
X152668284Y-85120132D01*
X152667598Y-85126249D01*
X152667597Y-85126253D01*
X152661051Y-85184616D01*
X152645320Y-85324862D01*
X152662559Y-85530153D01*
X152664258Y-85536078D01*
X152703145Y-85671692D01*
X152719344Y-85728186D01*
X152722159Y-85733663D01*
X152722160Y-85733666D01*
X152810645Y-85905840D01*
X152813512Y-85911418D01*
X152941477Y-86072870D01*
X152946170Y-86076864D01*
X152946171Y-86076865D01*
X153080146Y-86190886D01*
X153098364Y-86206391D01*
X153103742Y-86209397D01*
X153103744Y-86209398D01*
X153153962Y-86237464D01*
X153278198Y-86306897D01*
X153360744Y-86333718D01*
X153468271Y-86368656D01*
X153468275Y-86368657D01*
X153474129Y-86370559D01*
X153678694Y-86394951D01*
X153684829Y-86394479D01*
X153684831Y-86394479D01*
X153757425Y-86388893D01*
X153884100Y-86379146D01*
X153890030Y-86377490D01*
X153890032Y-86377490D01*
X154010545Y-86343842D01*
X154082525Y-86323745D01*
X154119011Y-86305315D01*
X154188831Y-86292455D01*
X154254522Y-86319384D01*
X154264915Y-86328686D01*
X154561154Y-86624925D01*
X154595180Y-86687237D01*
X154590115Y-86758052D01*
X154547568Y-86814888D01*
X154481048Y-86839699D01*
X154472059Y-86840020D01*
X153138381Y-86840020D01*
X153070260Y-86820018D01*
X153049286Y-86803115D01*
X152152011Y-85905840D01*
X152117985Y-85843528D01*
X152123050Y-85772713D01*
X152123225Y-85772286D01*
X152125123Y-85768944D01*
X152136859Y-85733666D01*
X152188204Y-85579315D01*
X152190151Y-85573463D01*
X152215971Y-85369074D01*
X152216383Y-85339600D01*
X152196280Y-85134570D01*
X152136735Y-84937349D01*
X152040018Y-84755449D01*
X151945778Y-84639900D01*
X151913706Y-84600575D01*
X151913703Y-84600572D01*
X151909811Y-84595800D01*
X151892586Y-84581550D01*
X151755825Y-84468411D01*
X151755821Y-84468409D01*
X151751075Y-84464482D01*
X151580684Y-84372352D01*
X151575274Y-84369427D01*
X151569855Y-84366497D01*
X151373054Y-84305577D01*
X151366929Y-84304933D01*
X151366928Y-84304933D01*
X151174298Y-84284687D01*
X151174296Y-84284687D01*
X151168169Y-84284043D01*
X151081329Y-84291946D01*
X150969142Y-84302155D01*
X150969139Y-84302156D01*
X150963003Y-84302714D01*
X150765372Y-84360880D01*
X150759907Y-84363737D01*
X150688529Y-84401053D01*
X150582802Y-84456326D01*
X150578001Y-84460186D01*
X150577998Y-84460188D01*
X150427054Y-84581550D01*
X150422247Y-84585415D01*
X150289824Y-84743230D01*
X150286856Y-84748628D01*
X150286853Y-84748633D01*
X150213638Y-84881812D01*
X150190576Y-84923762D01*
X150128284Y-85120132D01*
X150127598Y-85126249D01*
X150127597Y-85126253D01*
X150121051Y-85184616D01*
X150105320Y-85324862D01*
X150122559Y-85530153D01*
X150124258Y-85536078D01*
X150163145Y-85671692D01*
X150179344Y-85728186D01*
X150182159Y-85733663D01*
X150182160Y-85733666D01*
X150270645Y-85905840D01*
X150273512Y-85911418D01*
X150401477Y-86072870D01*
X150406170Y-86076864D01*
X150406171Y-86076865D01*
X150540146Y-86190886D01*
X150558364Y-86206391D01*
X150563742Y-86209397D01*
X150563744Y-86209398D01*
X150613962Y-86237464D01*
X150738198Y-86306897D01*
X150822080Y-86334152D01*
X150928268Y-86368655D01*
X150928271Y-86368656D01*
X150934129Y-86370559D01*
X150936991Y-86370900D01*
X150998232Y-86404519D01*
X151032116Y-86466908D01*
X151025344Y-86541633D01*
X151005063Y-86590594D01*
X151005062Y-86590599D01*
X151001902Y-86598227D01*
X151000824Y-86606415D01*
X150997399Y-86632430D01*
X150981264Y-86754989D01*
X151001902Y-86911751D01*
X151062410Y-87057830D01*
X151099276Y-87105875D01*
X151147041Y-87168123D01*
X151158664Y-87183271D01*
X151165210Y-87188294D01*
X151192150Y-87208966D01*
X151284105Y-87279525D01*
X151430184Y-87340033D01*
X151438372Y-87341111D01*
X151508565Y-87350352D01*
X151586946Y-87360671D01*
X151685030Y-87347758D01*
X151755178Y-87358697D01*
X151790571Y-87383585D01*
X151830949Y-87423963D01*
X151864975Y-87486275D01*
X151859910Y-87557090D01*
X151817363Y-87613926D01*
X151750843Y-87638737D01*
X151741854Y-87639058D01*
X150970495Y-87639058D01*
X150902374Y-87619056D01*
X150881400Y-87602153D01*
X149891974Y-86612727D01*
X149890218Y-86610693D01*
X149887880Y-86605910D01*
X149878932Y-86597609D01*
X149851978Y-86572606D01*
X149848573Y-86569326D01*
X149835178Y-86555931D01*
X149831208Y-86553207D01*
X149828560Y-86550882D01*
X149814336Y-86537687D01*
X149814333Y-86537685D01*
X149805809Y-86529778D01*
X149795005Y-86525468D01*
X149791016Y-86522946D01*
X149780228Y-86517185D01*
X149775903Y-86515268D01*
X149766309Y-86508687D01*
X149754990Y-86506001D01*
X149754988Y-86506000D01*
X149742328Y-86502996D01*
X149724731Y-86497431D01*
X149710093Y-86491591D01*
X149710090Y-86491590D01*
X149701833Y-86488296D01*
X149695540Y-86487679D01*
X149692461Y-86487679D01*
X149689388Y-86487529D01*
X149689399Y-86487313D01*
X149678024Y-86485981D01*
X149668709Y-86485525D01*
X149657389Y-86482839D01*
X149645860Y-86484408D01*
X149645859Y-86484408D01*
X149630282Y-86486528D01*
X149613291Y-86487679D01*
X149206884Y-86487679D01*
X149138763Y-86467677D01*
X149092270Y-86414021D01*
X149082166Y-86343747D01*
X149111660Y-86279167D01*
X149150074Y-86249213D01*
X149180913Y-86233635D01*
X149180916Y-86233633D01*
X149186410Y-86230858D01*
X149198140Y-86221694D01*
X149291981Y-86148377D01*
X149348751Y-86104024D01*
X149352881Y-86099240D01*
X149479340Y-85952734D01*
X149479340Y-85952733D01*
X149483364Y-85948072D01*
X149486652Y-85942285D01*
X149548069Y-85834170D01*
X149585123Y-85768944D01*
X149650151Y-85573463D01*
X149675971Y-85369074D01*
X149676383Y-85339600D01*
X149656280Y-85134570D01*
X149596735Y-84937349D01*
X149500018Y-84755449D01*
X149405778Y-84639900D01*
X149373706Y-84600575D01*
X149373703Y-84600572D01*
X149369811Y-84595800D01*
X149352586Y-84581550D01*
X149215825Y-84468411D01*
X149215821Y-84468409D01*
X149211075Y-84464482D01*
X149040684Y-84372352D01*
X149035274Y-84369427D01*
X149029855Y-84366497D01*
X148833054Y-84305577D01*
X148826929Y-84304933D01*
X148826928Y-84304933D01*
X148634298Y-84284687D01*
X148634296Y-84284687D01*
X148628169Y-84284043D01*
X148541329Y-84291946D01*
X148429142Y-84302155D01*
X148429139Y-84302156D01*
X148423003Y-84302714D01*
X148225372Y-84360880D01*
X148219907Y-84363737D01*
X148148529Y-84401053D01*
X148042802Y-84456326D01*
X148038001Y-84460186D01*
X148037998Y-84460188D01*
X147887054Y-84581550D01*
X147882247Y-84585415D01*
X147749824Y-84743230D01*
X147746856Y-84748628D01*
X147746853Y-84748633D01*
X147673638Y-84881812D01*
X147650576Y-84923762D01*
X147588284Y-85120132D01*
X147587598Y-85126249D01*
X147587597Y-85126253D01*
X147581051Y-85184616D01*
X147565320Y-85324862D01*
X147582559Y-85530153D01*
X147584258Y-85536078D01*
X147623145Y-85671692D01*
X147639344Y-85728186D01*
X147642160Y-85733666D01*
X147642162Y-85733670D01*
X147654725Y-85758116D01*
X147668072Y-85827847D01*
X147639832Y-85895597D01*
X147637306Y-85898123D01*
X147634584Y-85902090D01*
X147632257Y-85904741D01*
X147619062Y-85918965D01*
X147619060Y-85918968D01*
X147611153Y-85927492D01*
X147606843Y-85938296D01*
X147604321Y-85942285D01*
X147598560Y-85953073D01*
X147596643Y-85957398D01*
X147590062Y-85966992D01*
X147587376Y-85978311D01*
X147587375Y-85978313D01*
X147584371Y-85990973D01*
X147578806Y-86008570D01*
X147572966Y-86023208D01*
X147569671Y-86031468D01*
X147569054Y-86037761D01*
X147569054Y-86040840D01*
X147568904Y-86043913D01*
X147568688Y-86043902D01*
X147567356Y-86055277D01*
X147566900Y-86064592D01*
X147564214Y-86075912D01*
X147565783Y-86087441D01*
X147565783Y-86087442D01*
X147567903Y-86103019D01*
X147569054Y-86120010D01*
X147569054Y-87025561D01*
X147568858Y-87028234D01*
X147567129Y-87033269D01*
X147567565Y-87044891D01*
X147567565Y-87044893D01*
X147568965Y-87082182D01*
X147569054Y-87086908D01*
X147569054Y-87105875D01*
X147569936Y-87110610D01*
X147570164Y-87114136D01*
X147571328Y-87145135D01*
X147575918Y-87155820D01*
X147576955Y-87160420D01*
X147580516Y-87172141D01*
X147582215Y-87176544D01*
X147584345Y-87187980D01*
X147597281Y-87208966D01*
X147605785Y-87225338D01*
X147612005Y-87239815D01*
X147612007Y-87239819D01*
X147615518Y-87247990D01*
X147619532Y-87252876D01*
X147621717Y-87255061D01*
X147623769Y-87257324D01*
X147623609Y-87257469D01*
X147630729Y-87266476D01*
X147636981Y-87273371D01*
X147643086Y-87283275D01*
X147664874Y-87299843D01*
X147677693Y-87311037D01*
X148105595Y-87738939D01*
X148139621Y-87801251D01*
X148142500Y-87828034D01*
X148142500Y-89061248D01*
X148142304Y-89063921D01*
X148140575Y-89068956D01*
X148141011Y-89080578D01*
X148141011Y-89080580D01*
X148142411Y-89117869D01*
X148142500Y-89122595D01*
X148142500Y-89141562D01*
X148143382Y-89146297D01*
X148143610Y-89149823D01*
X148144774Y-89180822D01*
X148149364Y-89191507D01*
X148150401Y-89196107D01*
X148153962Y-89207828D01*
X148155661Y-89212231D01*
X148157791Y-89223667D01*
X148169737Y-89243047D01*
X148170727Y-89244653D01*
X148179231Y-89261025D01*
X148185451Y-89275502D01*
X148185453Y-89275506D01*
X148188964Y-89283677D01*
X148192978Y-89288563D01*
X148195163Y-89290748D01*
X148197215Y-89293011D01*
X148197055Y-89293156D01*
X148204175Y-89302163D01*
X148210427Y-89309058D01*
X148216532Y-89318962D01*
X148238320Y-89335530D01*
X148251139Y-89346724D01*
X148617358Y-89712943D01*
X148619114Y-89714977D01*
X148621452Y-89719760D01*
X148629981Y-89727672D01*
X148629982Y-89727673D01*
X148657351Y-89753061D01*
X148660756Y-89756341D01*
X148674154Y-89769739D01*
X148678124Y-89772463D01*
X148680772Y-89774788D01*
X148686387Y-89779996D01*
X148703523Y-89795892D01*
X148714330Y-89800204D01*
X148718315Y-89802723D01*
X148729124Y-89808495D01*
X148733429Y-89810402D01*
X148743023Y-89816984D01*
X148766976Y-89822668D01*
X148767013Y-89822677D01*
X148784609Y-89828242D01*
X148807499Y-89837374D01*
X148813792Y-89837991D01*
X148816874Y-89837991D01*
X148819944Y-89838141D01*
X148819933Y-89838357D01*
X148831308Y-89839689D01*
X148840622Y-89840144D01*
X148851943Y-89842831D01*
X148863472Y-89841262D01*
X148863473Y-89841262D01*
X148879050Y-89839142D01*
X148896041Y-89837991D01*
X149394007Y-89837991D01*
X149396680Y-89838187D01*
X149401715Y-89839916D01*
X149413337Y-89839480D01*
X149413339Y-89839480D01*
X149450628Y-89838080D01*
X149455354Y-89837991D01*
X149474321Y-89837991D01*
X149479056Y-89837109D01*
X149482582Y-89836881D01*
X149486322Y-89836740D01*
X149513581Y-89835717D01*
X149524266Y-89831127D01*
X149528866Y-89830090D01*
X149540587Y-89826529D01*
X149544990Y-89824830D01*
X149556426Y-89822700D01*
X149577414Y-89809763D01*
X149593784Y-89801260D01*
X149608261Y-89795040D01*
X149608265Y-89795038D01*
X149616436Y-89791527D01*
X149621322Y-89787513D01*
X149623507Y-89785328D01*
X149625770Y-89783276D01*
X149625915Y-89783436D01*
X149634922Y-89776316D01*
X149641817Y-89770064D01*
X149651721Y-89763959D01*
X149668289Y-89742171D01*
X149679483Y-89729352D01*
X149933310Y-89475525D01*
X149995622Y-89441499D01*
X150022405Y-89438620D01*
X157015417Y-89438620D01*
X157083538Y-89458622D01*
X157104512Y-89475525D01*
X159519591Y-91890604D01*
X159521347Y-91892638D01*
X159523685Y-91897421D01*
X159532214Y-91905333D01*
X159532215Y-91905334D01*
X159559587Y-91930725D01*
X159562992Y-91934005D01*
X159576387Y-91947400D01*
X159580357Y-91950124D01*
X159583005Y-91952449D01*
X159605756Y-91973553D01*
X159616563Y-91977865D01*
X159620548Y-91980384D01*
X159631357Y-91986156D01*
X159635662Y-91988063D01*
X159645256Y-91994645D01*
X159669209Y-92000329D01*
X159669246Y-92000338D01*
X159686842Y-92005903D01*
X159709732Y-92015035D01*
X159716025Y-92015652D01*
X159719107Y-92015652D01*
X159722177Y-92015802D01*
X159722166Y-92016018D01*
X159733541Y-92017350D01*
X159742855Y-92017805D01*
X159754176Y-92020492D01*
X159765705Y-92018923D01*
X159765706Y-92018923D01*
X159781283Y-92016803D01*
X159798274Y-92015652D01*
X165542797Y-92015652D01*
X165610918Y-92035654D01*
X165631892Y-92052557D01*
X165857178Y-92277843D01*
X165858934Y-92279877D01*
X165861272Y-92284660D01*
X165869801Y-92292572D01*
X165869802Y-92292573D01*
X165897174Y-92317964D01*
X165900579Y-92321244D01*
X165913974Y-92334639D01*
X165917944Y-92337363D01*
X165920592Y-92339688D01*
X165943343Y-92360792D01*
X165954150Y-92365104D01*
X165958135Y-92367623D01*
X165968944Y-92373395D01*
X165973249Y-92375302D01*
X165982843Y-92381884D01*
X166006796Y-92387568D01*
X166006833Y-92387577D01*
X166024429Y-92393142D01*
X166047319Y-92402274D01*
X166053612Y-92402891D01*
X166056694Y-92402891D01*
X166059764Y-92403041D01*
X166059753Y-92403257D01*
X166071128Y-92404589D01*
X166080442Y-92405044D01*
X166091763Y-92407731D01*
X166103292Y-92406162D01*
X166103293Y-92406162D01*
X166118870Y-92404042D01*
X166135861Y-92402891D01*
X166373260Y-92402891D01*
X166441381Y-92422893D01*
X166487874Y-92476549D01*
X166497978Y-92546823D01*
X166468484Y-92611403D01*
X166405870Y-92650598D01*
X166399226Y-92652378D01*
X166391038Y-92653456D01*
X166383411Y-92656615D01*
X166383408Y-92656616D01*
X166323496Y-92681433D01*
X166244959Y-92713964D01*
X166205031Y-92744602D01*
X166143696Y-92791666D01*
X166119518Y-92810218D01*
X166114495Y-92816764D01*
X166103788Y-92830718D01*
X166023264Y-92935659D01*
X165962756Y-93081738D01*
X165961678Y-93089926D01*
X165953972Y-93148458D01*
X165942118Y-93238500D01*
X165962756Y-93395262D01*
X166023264Y-93541341D01*
X166028291Y-93547892D01*
X166028294Y-93547897D01*
X166119136Y-93666285D01*
X166144737Y-93732505D01*
X166130472Y-93802054D01*
X166080871Y-93852850D01*
X166019174Y-93868989D01*
X165567750Y-93868989D01*
X165499629Y-93848987D01*
X165478655Y-93832084D01*
X164796519Y-93149948D01*
X164794763Y-93147914D01*
X164792425Y-93143131D01*
X164781930Y-93133395D01*
X164756523Y-93109827D01*
X164753118Y-93106547D01*
X164739723Y-93093152D01*
X164735753Y-93090428D01*
X164733105Y-93088103D01*
X164718881Y-93074908D01*
X164718878Y-93074906D01*
X164710354Y-93066999D01*
X164699550Y-93062689D01*
X164695561Y-93060167D01*
X164684773Y-93054406D01*
X164680448Y-93052489D01*
X164670854Y-93045908D01*
X164659535Y-93043222D01*
X164659533Y-93043221D01*
X164646873Y-93040217D01*
X164629276Y-93034652D01*
X164614638Y-93028812D01*
X164614635Y-93028811D01*
X164606378Y-93025517D01*
X164600085Y-93024900D01*
X164597006Y-93024900D01*
X164593933Y-93024750D01*
X164593944Y-93024534D01*
X164582569Y-93023202D01*
X164573254Y-93022746D01*
X164561934Y-93020060D01*
X164550405Y-93021629D01*
X164550404Y-93021629D01*
X164534827Y-93023749D01*
X164517836Y-93024900D01*
X158907061Y-93024900D01*
X158838940Y-93004898D01*
X158817966Y-92987995D01*
X157727596Y-91897625D01*
X157693570Y-91835313D01*
X157691769Y-91792084D01*
X157693931Y-91775666D01*
X157704682Y-91694000D01*
X157693759Y-91611032D01*
X157685122Y-91545426D01*
X157684044Y-91537238D01*
X157623536Y-91391159D01*
X157555059Y-91301918D01*
X157532305Y-91272264D01*
X157527282Y-91265718D01*
X157401841Y-91169464D01*
X157255762Y-91108956D01*
X157099000Y-91088318D01*
X156942238Y-91108956D01*
X156796159Y-91169464D01*
X156670718Y-91265718D01*
X156665695Y-91272264D01*
X156642941Y-91301918D01*
X156574464Y-91391159D01*
X156552005Y-91445379D01*
X156550057Y-91450083D01*
X156505509Y-91505364D01*
X156438145Y-91527785D01*
X156371288Y-91511145D01*
X156365841Y-91506965D01*
X156358215Y-91503806D01*
X156358213Y-91503805D01*
X156227391Y-91449617D01*
X156219762Y-91446457D01*
X156063000Y-91425819D01*
X155906238Y-91446457D01*
X155760159Y-91506965D01*
X155737566Y-91524301D01*
X155702818Y-91550964D01*
X155636597Y-91576564D01*
X155626114Y-91577001D01*
X154613995Y-91577001D01*
X154545874Y-91556999D01*
X154499381Y-91503343D01*
X154489277Y-91433069D01*
X154518771Y-91368489D01*
X154537291Y-91351039D01*
X154572792Y-91323798D01*
X154572796Y-91323794D01*
X154579342Y-91318771D01*
X154675596Y-91193330D01*
X154736104Y-91047251D01*
X154756742Y-90890489D01*
X154737806Y-90746654D01*
X154737182Y-90741915D01*
X154736104Y-90733727D01*
X154675596Y-90587648D01*
X154599776Y-90488837D01*
X154584365Y-90468753D01*
X154579342Y-90462207D01*
X154569163Y-90454396D01*
X154525291Y-90420732D01*
X154453901Y-90365953D01*
X154307822Y-90305445D01*
X154280455Y-90301842D01*
X154159248Y-90285885D01*
X154151060Y-90284807D01*
X154142872Y-90285885D01*
X154021666Y-90301842D01*
X153994298Y-90305445D01*
X153848219Y-90365953D01*
X153776829Y-90420732D01*
X153732958Y-90454396D01*
X153722778Y-90462207D01*
X153717755Y-90468753D01*
X153702344Y-90488837D01*
X153626524Y-90587648D01*
X153625142Y-90590985D01*
X153575318Y-90638493D01*
X153517580Y-90652500D01*
X151146841Y-90652500D01*
X151078720Y-90632498D01*
X151070137Y-90626463D01*
X151007188Y-90578161D01*
X150950241Y-90534464D01*
X150804162Y-90473956D01*
X150790984Y-90472221D01*
X150655588Y-90454396D01*
X150647400Y-90453318D01*
X150639212Y-90454396D01*
X150503817Y-90472221D01*
X150490638Y-90473956D01*
X150344559Y-90534464D01*
X150219118Y-90630718D01*
X150214095Y-90637264D01*
X150202852Y-90651916D01*
X150166095Y-90699820D01*
X150158894Y-90709204D01*
X150101556Y-90751071D01*
X150058931Y-90758500D01*
X148190920Y-90758500D01*
X148122799Y-90738498D01*
X148101825Y-90721595D01*
X148072267Y-90692037D01*
X148070511Y-90690003D01*
X148068173Y-90685220D01*
X148053531Y-90671637D01*
X148032271Y-90651916D01*
X148028866Y-90648636D01*
X148015471Y-90635241D01*
X148011501Y-90632517D01*
X148008853Y-90630192D01*
X147994629Y-90616997D01*
X147994626Y-90616995D01*
X147986102Y-90609088D01*
X147975298Y-90604778D01*
X147971309Y-90602256D01*
X147960521Y-90596495D01*
X147956196Y-90594578D01*
X147946602Y-90587997D01*
X147935283Y-90585311D01*
X147935281Y-90585310D01*
X147922621Y-90582306D01*
X147905024Y-90576741D01*
X147890386Y-90570901D01*
X147890383Y-90570900D01*
X147882126Y-90567606D01*
X147875833Y-90566989D01*
X147872754Y-90566989D01*
X147869681Y-90566839D01*
X147869692Y-90566623D01*
X147858317Y-90565291D01*
X147849002Y-90564835D01*
X147837682Y-90562149D01*
X147826153Y-90563718D01*
X147826152Y-90563718D01*
X147810575Y-90565838D01*
X147793584Y-90566989D01*
X146690947Y-90566989D01*
X146622826Y-90546987D01*
X146601852Y-90530085D01*
X146465291Y-90393525D01*
X146463538Y-90391495D01*
X146461200Y-90386711D01*
X146425298Y-90353407D01*
X146421893Y-90350127D01*
X146408498Y-90336732D01*
X146404528Y-90334008D01*
X146401880Y-90331683D01*
X146387657Y-90318490D01*
X146379129Y-90310579D01*
X146368322Y-90306267D01*
X146364337Y-90303748D01*
X146353528Y-90297976D01*
X146349223Y-90296069D01*
X146339629Y-90289487D01*
X146315639Y-90283794D01*
X146298043Y-90278229D01*
X146283417Y-90272394D01*
X146275153Y-90269097D01*
X146268860Y-90268480D01*
X146265778Y-90268480D01*
X146262708Y-90268330D01*
X146262719Y-90268114D01*
X146251344Y-90266782D01*
X146242030Y-90266327D01*
X146230709Y-90263640D01*
X146219180Y-90265209D01*
X146219179Y-90265209D01*
X146203602Y-90267329D01*
X146186611Y-90268480D01*
X145020838Y-90268480D01*
X144952717Y-90248478D01*
X144931743Y-90231575D01*
X141286715Y-86586548D01*
X141284959Y-86584514D01*
X141282621Y-86579731D01*
X141258736Y-86557575D01*
X141222399Y-86496583D01*
X141224804Y-86425628D01*
X141265189Y-86367236D01*
X141310545Y-86343842D01*
X141310886Y-86343747D01*
X141333486Y-86337437D01*
X141376595Y-86325401D01*
X141376598Y-86325400D01*
X141382525Y-86323745D01*
X141388014Y-86320972D01*
X141388020Y-86320970D01*
X141555316Y-86236462D01*
X141566410Y-86230858D01*
X141578140Y-86221694D01*
X141671981Y-86148377D01*
X141728751Y-86104024D01*
X141732881Y-86099240D01*
X141859340Y-85952734D01*
X141859340Y-85952733D01*
X141863364Y-85948072D01*
X141866652Y-85942285D01*
X141928069Y-85834170D01*
X141965123Y-85768944D01*
X142030151Y-85573463D01*
X142055971Y-85369074D01*
X142056383Y-85339600D01*
X142054938Y-85324862D01*
X142485320Y-85324862D01*
X142502559Y-85530153D01*
X142504258Y-85536078D01*
X142543145Y-85671692D01*
X142559344Y-85728186D01*
X142562159Y-85733663D01*
X142562160Y-85733666D01*
X142650645Y-85905840D01*
X142653512Y-85911418D01*
X142781477Y-86072870D01*
X142786170Y-86076864D01*
X142786171Y-86076865D01*
X142920146Y-86190886D01*
X142938364Y-86206391D01*
X142943742Y-86209397D01*
X142943744Y-86209398D01*
X142993962Y-86237464D01*
X143118198Y-86306897D01*
X143200744Y-86333718D01*
X143308271Y-86368656D01*
X143308275Y-86368657D01*
X143314129Y-86370559D01*
X143518694Y-86394951D01*
X143524829Y-86394479D01*
X143524831Y-86394479D01*
X143597425Y-86388893D01*
X143724100Y-86379146D01*
X143730030Y-86377490D01*
X143730032Y-86377490D01*
X143865660Y-86339622D01*
X143922525Y-86323745D01*
X143928014Y-86320972D01*
X143928020Y-86320970D01*
X144095316Y-86236462D01*
X144106410Y-86230858D01*
X144118140Y-86221694D01*
X144211981Y-86148377D01*
X144268751Y-86104024D01*
X144272881Y-86099240D01*
X144399340Y-85952734D01*
X144399340Y-85952733D01*
X144403364Y-85948072D01*
X144406652Y-85942285D01*
X144468069Y-85834170D01*
X144505123Y-85768944D01*
X144570151Y-85573463D01*
X144595971Y-85369074D01*
X144596383Y-85339600D01*
X144594938Y-85324862D01*
X145025320Y-85324862D01*
X145042559Y-85530153D01*
X145044258Y-85536078D01*
X145083145Y-85671692D01*
X145099344Y-85728186D01*
X145102159Y-85733663D01*
X145102160Y-85733666D01*
X145190645Y-85905840D01*
X145193512Y-85911418D01*
X145321477Y-86072870D01*
X145326170Y-86076864D01*
X145326171Y-86076865D01*
X145460146Y-86190886D01*
X145478364Y-86206391D01*
X145483742Y-86209397D01*
X145483744Y-86209398D01*
X145533962Y-86237464D01*
X145658198Y-86306897D01*
X145740744Y-86333718D01*
X145848271Y-86368656D01*
X145848275Y-86368657D01*
X145854129Y-86370559D01*
X146058694Y-86394951D01*
X146064829Y-86394479D01*
X146064831Y-86394479D01*
X146137425Y-86388893D01*
X146264100Y-86379146D01*
X146270030Y-86377490D01*
X146270032Y-86377490D01*
X146405660Y-86339622D01*
X146462525Y-86323745D01*
X146468014Y-86320972D01*
X146468020Y-86320970D01*
X146635316Y-86236462D01*
X146646410Y-86230858D01*
X146658140Y-86221694D01*
X146751981Y-86148377D01*
X146808751Y-86104024D01*
X146812881Y-86099240D01*
X146939340Y-85952734D01*
X146939340Y-85952733D01*
X146943364Y-85948072D01*
X146946652Y-85942285D01*
X147008069Y-85834170D01*
X147045123Y-85768944D01*
X147110151Y-85573463D01*
X147135971Y-85369074D01*
X147136383Y-85339600D01*
X147116280Y-85134570D01*
X147056735Y-84937349D01*
X146960018Y-84755449D01*
X146865778Y-84639900D01*
X146833706Y-84600575D01*
X146833703Y-84600572D01*
X146829811Y-84595800D01*
X146812586Y-84581550D01*
X146675825Y-84468411D01*
X146675821Y-84468409D01*
X146671075Y-84464482D01*
X146500684Y-84372352D01*
X146495274Y-84369427D01*
X146489855Y-84366497D01*
X146293054Y-84305577D01*
X146286929Y-84304933D01*
X146286928Y-84304933D01*
X146094298Y-84284687D01*
X146094296Y-84284687D01*
X146088169Y-84284043D01*
X146001329Y-84291946D01*
X145889142Y-84302155D01*
X145889139Y-84302156D01*
X145883003Y-84302714D01*
X145685372Y-84360880D01*
X145679907Y-84363737D01*
X145608529Y-84401053D01*
X145502802Y-84456326D01*
X145498001Y-84460186D01*
X145497998Y-84460188D01*
X145347054Y-84581550D01*
X145342247Y-84585415D01*
X145209824Y-84743230D01*
X145206856Y-84748628D01*
X145206853Y-84748633D01*
X145133638Y-84881812D01*
X145110576Y-84923762D01*
X145048284Y-85120132D01*
X145047598Y-85126249D01*
X145047597Y-85126253D01*
X145041051Y-85184616D01*
X145025320Y-85324862D01*
X144594938Y-85324862D01*
X144576280Y-85134570D01*
X144516735Y-84937349D01*
X144420018Y-84755449D01*
X144325778Y-84639900D01*
X144293706Y-84600575D01*
X144293703Y-84600572D01*
X144289811Y-84595800D01*
X144272586Y-84581550D01*
X144135825Y-84468411D01*
X144135821Y-84468409D01*
X144131075Y-84464482D01*
X143960684Y-84372352D01*
X143955274Y-84369427D01*
X143949855Y-84366497D01*
X143753054Y-84305577D01*
X143746929Y-84304933D01*
X143746928Y-84304933D01*
X143554298Y-84284687D01*
X143554296Y-84284687D01*
X143548169Y-84284043D01*
X143461329Y-84291946D01*
X143349142Y-84302155D01*
X143349139Y-84302156D01*
X143343003Y-84302714D01*
X143145372Y-84360880D01*
X143139907Y-84363737D01*
X143068529Y-84401053D01*
X142962802Y-84456326D01*
X142958001Y-84460186D01*
X142957998Y-84460188D01*
X142807054Y-84581550D01*
X142802247Y-84585415D01*
X142669824Y-84743230D01*
X142666856Y-84748628D01*
X142666853Y-84748633D01*
X142593638Y-84881812D01*
X142570576Y-84923762D01*
X142508284Y-85120132D01*
X142507598Y-85126249D01*
X142507597Y-85126253D01*
X142501051Y-85184616D01*
X142485320Y-85324862D01*
X142054938Y-85324862D01*
X142036280Y-85134570D01*
X141976735Y-84937349D01*
X141880018Y-84755449D01*
X141785778Y-84639900D01*
X141753706Y-84600575D01*
X141753703Y-84600572D01*
X141749811Y-84595800D01*
X141732586Y-84581550D01*
X141595825Y-84468411D01*
X141595821Y-84468409D01*
X141591075Y-84464482D01*
X141420684Y-84372352D01*
X141415274Y-84369427D01*
X141409855Y-84366497D01*
X141213054Y-84305577D01*
X141206929Y-84304933D01*
X141206928Y-84304933D01*
X141014298Y-84284687D01*
X141014296Y-84284687D01*
X141008169Y-84284043D01*
X140921329Y-84291946D01*
X140809142Y-84302155D01*
X140809139Y-84302156D01*
X140803003Y-84302714D01*
X140605372Y-84360880D01*
X140599907Y-84363737D01*
X140528529Y-84401053D01*
X140422802Y-84456326D01*
X140418001Y-84460186D01*
X140417998Y-84460188D01*
X140267054Y-84581550D01*
X140262247Y-84585415D01*
X140129824Y-84743230D01*
X140126856Y-84748628D01*
X140126853Y-84748633D01*
X140053638Y-84881812D01*
X140030576Y-84923762D01*
X139968284Y-85120132D01*
X139967598Y-85126249D01*
X139967597Y-85126253D01*
X139961051Y-85184616D01*
X139945320Y-85324862D01*
X139962559Y-85530153D01*
X139964258Y-85536078D01*
X140003145Y-85671692D01*
X140019344Y-85728186D01*
X140022159Y-85733663D01*
X140022160Y-85733666D01*
X140110645Y-85905840D01*
X140113512Y-85911418D01*
X140241477Y-86072870D01*
X140246170Y-86076864D01*
X140246171Y-86076865D01*
X140380146Y-86190886D01*
X140398364Y-86206391D01*
X140403742Y-86209397D01*
X140403744Y-86209398D01*
X140432577Y-86225512D01*
X140482283Y-86276205D01*
X140496691Y-86345725D01*
X140471228Y-86411998D01*
X140413976Y-86453983D01*
X140371107Y-86461500D01*
X140059861Y-86461500D01*
X139991740Y-86441498D01*
X139970766Y-86424595D01*
X139452011Y-85905840D01*
X139417985Y-85843528D01*
X139423050Y-85772713D01*
X139423225Y-85772286D01*
X139425123Y-85768944D01*
X139436859Y-85733666D01*
X139488204Y-85579315D01*
X139490151Y-85573463D01*
X139515971Y-85369074D01*
X139516383Y-85339600D01*
X139496280Y-85134570D01*
X139436735Y-84937349D01*
X139340018Y-84755449D01*
X139245778Y-84639900D01*
X139213706Y-84600575D01*
X139213703Y-84600572D01*
X139209811Y-84595800D01*
X139192586Y-84581550D01*
X139055825Y-84468411D01*
X139055821Y-84468409D01*
X139051075Y-84464482D01*
X138880684Y-84372352D01*
X138875274Y-84369427D01*
X138869855Y-84366497D01*
X138673054Y-84305577D01*
X138666929Y-84304933D01*
X138666928Y-84304933D01*
X138474298Y-84284687D01*
X138474296Y-84284687D01*
X138468169Y-84284043D01*
X138381329Y-84291946D01*
X138269142Y-84302155D01*
X138269139Y-84302156D01*
X138263003Y-84302714D01*
X138065372Y-84360880D01*
X138059907Y-84363737D01*
X137988529Y-84401053D01*
X137882802Y-84456326D01*
X137878001Y-84460186D01*
X137877998Y-84460188D01*
X137727054Y-84581550D01*
X137722247Y-84585415D01*
X137589824Y-84743230D01*
X137586856Y-84748628D01*
X137586853Y-84748633D01*
X137513638Y-84881812D01*
X137490576Y-84923762D01*
X137428284Y-85120132D01*
X137427598Y-85126249D01*
X137427597Y-85126253D01*
X137421051Y-85184616D01*
X137405320Y-85324862D01*
X137422559Y-85530153D01*
X137424258Y-85536078D01*
X137463145Y-85671692D01*
X137479344Y-85728186D01*
X137482159Y-85733663D01*
X137482160Y-85733666D01*
X137570645Y-85905840D01*
X137573512Y-85911418D01*
X137701477Y-86072870D01*
X137706170Y-86076864D01*
X137706171Y-86076865D01*
X137840146Y-86190886D01*
X137858364Y-86206391D01*
X137863742Y-86209397D01*
X137863744Y-86209398D01*
X137913962Y-86237464D01*
X138038198Y-86306897D01*
X138120744Y-86333718D01*
X138228271Y-86368656D01*
X138228275Y-86368657D01*
X138234129Y-86370559D01*
X138438694Y-86394951D01*
X138444829Y-86394479D01*
X138444831Y-86394479D01*
X138517425Y-86388893D01*
X138644100Y-86379146D01*
X138650030Y-86377490D01*
X138650032Y-86377490D01*
X138785660Y-86339622D01*
X138842525Y-86323745D01*
X138848018Y-86320970D01*
X138848024Y-86320968D01*
X138879010Y-86305316D01*
X138948833Y-86292456D01*
X139014523Y-86319386D01*
X139024915Y-86328687D01*
X139633684Y-86937456D01*
X139635438Y-86939487D01*
X139637775Y-86944269D01*
X139646304Y-86952181D01*
X139646305Y-86952182D01*
X139673663Y-86977560D01*
X139677068Y-86980840D01*
X139690476Y-86994248D01*
X139694455Y-86996978D01*
X139697084Y-86999286D01*
X139719846Y-87020401D01*
X139730653Y-87024712D01*
X139734648Y-87027238D01*
X139745442Y-87033001D01*
X139749754Y-87034912D01*
X139759346Y-87041492D01*
X139770663Y-87044178D01*
X139770664Y-87044178D01*
X139783327Y-87047183D01*
X139800924Y-87052748D01*
X139815562Y-87058588D01*
X139815565Y-87058589D01*
X139823822Y-87061883D01*
X139830115Y-87062500D01*
X139833194Y-87062500D01*
X139836267Y-87062650D01*
X139836256Y-87062866D01*
X139847631Y-87064198D01*
X139856946Y-87064654D01*
X139868266Y-87067340D01*
X139879795Y-87065771D01*
X139879796Y-87065771D01*
X139895373Y-87063651D01*
X139912364Y-87062500D01*
X140860535Y-87062500D01*
X140928656Y-87082502D01*
X140949630Y-87099405D01*
X144594657Y-90744432D01*
X144596413Y-90746466D01*
X144598751Y-90751249D01*
X144607280Y-90759161D01*
X144607281Y-90759162D01*
X144634653Y-90784553D01*
X144638058Y-90787833D01*
X144651453Y-90801228D01*
X144655423Y-90803952D01*
X144658071Y-90806277D01*
X144680822Y-90827381D01*
X144691629Y-90831693D01*
X144695614Y-90834212D01*
X144706423Y-90839984D01*
X144710728Y-90841891D01*
X144720322Y-90848473D01*
X144744275Y-90854157D01*
X144744312Y-90854166D01*
X144761908Y-90859731D01*
X144784798Y-90868863D01*
X144791091Y-90869480D01*
X144794173Y-90869480D01*
X144797243Y-90869630D01*
X144797232Y-90869846D01*
X144808607Y-90871178D01*
X144817921Y-90871633D01*
X144829242Y-90874320D01*
X144840771Y-90872751D01*
X144840772Y-90872751D01*
X144856349Y-90870631D01*
X144873340Y-90869480D01*
X146039113Y-90869480D01*
X146107234Y-90889482D01*
X146128208Y-90906384D01*
X146264769Y-91042944D01*
X146266522Y-91044974D01*
X146268860Y-91049758D01*
X146277390Y-91057671D01*
X146284324Y-91067007D01*
X146280842Y-91069593D01*
X146305565Y-91111043D01*
X146303196Y-91182000D01*
X146283515Y-91219191D01*
X146249010Y-91264159D01*
X146188502Y-91410238D01*
X146179121Y-91481496D01*
X146179068Y-91481896D01*
X146150346Y-91546823D01*
X146143241Y-91554545D01*
X145075170Y-92622616D01*
X145012858Y-92656642D01*
X144986075Y-92659521D01*
X140710351Y-92659521D01*
X140695542Y-92658648D01*
X140678592Y-92656642D01*
X140661457Y-92654614D01*
X140652193Y-92656306D01*
X140652190Y-92656306D01*
X140603215Y-92665250D01*
X140599313Y-92665899D01*
X140550059Y-92673305D01*
X140550056Y-92673306D01*
X140540744Y-92674706D01*
X140534177Y-92677859D01*
X140527012Y-92679168D01*
X140474428Y-92706483D01*
X140470938Y-92708226D01*
X140417542Y-92733867D01*
X140412248Y-92738761D01*
X140412107Y-92738856D01*
X140405729Y-92742169D01*
X140400641Y-92746515D01*
X140400434Y-92746722D01*
X140396976Y-92749052D01*
X140336802Y-92768154D01*
X140314310Y-92830718D01*
X140301646Y-92845510D01*
X140106239Y-93040917D01*
X140043927Y-93074943D01*
X139968927Y-93068231D01*
X139941335Y-93056802D01*
X139941330Y-93056801D01*
X139933702Y-93053641D01*
X139900600Y-93049283D01*
X139801074Y-93036180D01*
X139771498Y-93023096D01*
X139738813Y-93038022D01*
X139620178Y-93053641D01*
X139474099Y-93114149D01*
X139395572Y-93174405D01*
X139364898Y-93197942D01*
X139348658Y-93210403D01*
X139343635Y-93216949D01*
X139333381Y-93230312D01*
X139252404Y-93335844D01*
X139242937Y-93358699D01*
X139224224Y-93403876D01*
X139179675Y-93459157D01*
X139112312Y-93481578D01*
X139043521Y-93464020D01*
X139018720Y-93444753D01*
X138235515Y-92661548D01*
X138233759Y-92659514D01*
X138231421Y-92654731D01*
X138217869Y-92642159D01*
X138195519Y-92621427D01*
X138192114Y-92618147D01*
X138178719Y-92604752D01*
X138174749Y-92602028D01*
X138172101Y-92599703D01*
X138157877Y-92586508D01*
X138157874Y-92586506D01*
X138149350Y-92578599D01*
X138138546Y-92574289D01*
X138134557Y-92571767D01*
X138123769Y-92566006D01*
X138119444Y-92564089D01*
X138109850Y-92557508D01*
X138098531Y-92554822D01*
X138098529Y-92554821D01*
X138085869Y-92551817D01*
X138068272Y-92546252D01*
X138053634Y-92540412D01*
X138053631Y-92540411D01*
X138045374Y-92537117D01*
X138039081Y-92536500D01*
X138036002Y-92536500D01*
X138032929Y-92536350D01*
X138032940Y-92536134D01*
X138021565Y-92534802D01*
X138012250Y-92534346D01*
X138000930Y-92531660D01*
X137989401Y-92533229D01*
X137989400Y-92533229D01*
X137973823Y-92535349D01*
X137956832Y-92536500D01*
X135409368Y-92536500D01*
X135406695Y-92536304D01*
X135401660Y-92534575D01*
X135390038Y-92535011D01*
X135390036Y-92535011D01*
X135352747Y-92536411D01*
X135348021Y-92536500D01*
X135329054Y-92536500D01*
X135324319Y-92537382D01*
X135320793Y-92537610D01*
X135317053Y-92537751D01*
X135289794Y-92538774D01*
X135279109Y-92543364D01*
X135274509Y-92544401D01*
X135262788Y-92547962D01*
X135258385Y-92549661D01*
X135246949Y-92551791D01*
X135225963Y-92564727D01*
X135209591Y-92573231D01*
X135195114Y-92579451D01*
X135195110Y-92579453D01*
X135186939Y-92582964D01*
X135182053Y-92586978D01*
X135179868Y-92589163D01*
X135177605Y-92591215D01*
X135177460Y-92591055D01*
X135168453Y-92598175D01*
X135161558Y-92604427D01*
X135151654Y-92610532D01*
X135135086Y-92632320D01*
X135123892Y-92645139D01*
X134682348Y-93086683D01*
X134620036Y-93120709D01*
X134576807Y-93122510D01*
X134486911Y-93110675D01*
X134478723Y-93109597D01*
X134470535Y-93110675D01*
X134380639Y-93122510D01*
X134321961Y-93130235D01*
X134175882Y-93190743D01*
X134093015Y-93254329D01*
X134077417Y-93266298D01*
X134050441Y-93286997D01*
X133954187Y-93412438D01*
X133920588Y-93493553D01*
X133899476Y-93544523D01*
X133893679Y-93558517D01*
X133892601Y-93566705D01*
X133891617Y-93574181D01*
X133873041Y-93715279D01*
X133874119Y-93723467D01*
X133890207Y-93845672D01*
X133879267Y-93915821D01*
X133832139Y-93968919D01*
X133763785Y-93988109D01*
X133695907Y-93967298D01*
X133676193Y-93951216D01*
X133075995Y-93351018D01*
X133041969Y-93288706D01*
X133039090Y-93261923D01*
X133039090Y-92405273D01*
X133059092Y-92337152D01*
X133112748Y-92290659D01*
X133183022Y-92280555D01*
X133213308Y-92288864D01*
X133273709Y-92313883D01*
X133273712Y-92313884D01*
X133281339Y-92317043D01*
X133438101Y-92337681D01*
X133446289Y-92336603D01*
X133467801Y-92333771D01*
X133594863Y-92317043D01*
X133740942Y-92256535D01*
X133833290Y-92185674D01*
X133859837Y-92165304D01*
X133866383Y-92160281D01*
X133872704Y-92152044D01*
X133912377Y-92100340D01*
X133962637Y-92034840D01*
X134023145Y-91888761D01*
X134029294Y-91842055D01*
X134058016Y-91777127D01*
X134117282Y-91738036D01*
X134154216Y-91732501D01*
X138612080Y-91732501D01*
X138680201Y-91752503D01*
X138701175Y-91769406D01*
X139013740Y-92081971D01*
X139015489Y-92083997D01*
X139017827Y-92088780D01*
X139053742Y-92122096D01*
X139057121Y-92125352D01*
X139070528Y-92138759D01*
X139074507Y-92141489D01*
X139077136Y-92143797D01*
X139099898Y-92164912D01*
X139109703Y-92168824D01*
X139156132Y-92221603D01*
X139166833Y-92258353D01*
X139177903Y-92342436D01*
X139238411Y-92488515D01*
X139285427Y-92549787D01*
X139327603Y-92604752D01*
X139334665Y-92613956D01*
X139341211Y-92618979D01*
X139362488Y-92635305D01*
X139460106Y-92710210D01*
X139606185Y-92770718D01*
X139614373Y-92771796D01*
X139738813Y-92788179D01*
X139768389Y-92801263D01*
X139801074Y-92786337D01*
X139919709Y-92770718D01*
X140065788Y-92710210D01*
X140135847Y-92656452D01*
X140201754Y-92630973D01*
X140201485Y-92629351D01*
X140226601Y-92567859D01*
X140282453Y-92495071D01*
X140282456Y-92495066D01*
X140287483Y-92488515D01*
X140347991Y-92342436D01*
X140368629Y-92185674D01*
X140347991Y-92028912D01*
X140287483Y-91882833D01*
X140191229Y-91757392D01*
X140192865Y-91756136D01*
X140164150Y-91703550D01*
X140169215Y-91632735D01*
X140187308Y-91600064D01*
X140267403Y-91495681D01*
X140267405Y-91495677D01*
X140272432Y-91489126D01*
X140332940Y-91343047D01*
X140353578Y-91186285D01*
X140332940Y-91029523D01*
X140272432Y-90883444D01*
X140197780Y-90786155D01*
X140181201Y-90764549D01*
X140176178Y-90758003D01*
X140050737Y-90661749D01*
X139904658Y-90601241D01*
X139868609Y-90596495D01*
X139783649Y-90585310D01*
X139747896Y-90580603D01*
X139712143Y-90585310D01*
X139627184Y-90596495D01*
X139591134Y-90601241D01*
X139445055Y-90661749D01*
X139319614Y-90758003D01*
X139319275Y-90757562D01*
X139262037Y-90788817D01*
X139191222Y-90783752D01*
X139149952Y-90757229D01*
X139149678Y-90757558D01*
X139146996Y-90755329D01*
X139146159Y-90754791D01*
X139141119Y-90749751D01*
X139137149Y-90747027D01*
X139134501Y-90744702D01*
X139120277Y-90731507D01*
X139120274Y-90731505D01*
X139111750Y-90723598D01*
X139100946Y-90719288D01*
X139096957Y-90716766D01*
X139086169Y-90711005D01*
X139081844Y-90709088D01*
X139072250Y-90702507D01*
X139060931Y-90699821D01*
X139060929Y-90699820D01*
X139048269Y-90696816D01*
X139030672Y-90691251D01*
X139016034Y-90685411D01*
X139016031Y-90685410D01*
X139007774Y-90682116D01*
X139001481Y-90681499D01*
X138998402Y-90681499D01*
X138995329Y-90681349D01*
X138995340Y-90681133D01*
X138983965Y-90679801D01*
X138974650Y-90679345D01*
X138963330Y-90676659D01*
X138951801Y-90678228D01*
X138951800Y-90678228D01*
X138936223Y-90680348D01*
X138919232Y-90681499D01*
X137190161Y-90681499D01*
X137122040Y-90661497D01*
X137074395Y-90605239D01*
X137064860Y-90583047D01*
X137060846Y-90578161D01*
X137058661Y-90575976D01*
X137058649Y-90575963D01*
X137056046Y-90570638D01*
X137047518Y-90562727D01*
X137045396Y-90559870D01*
X137043397Y-90557665D01*
X137037292Y-90547762D01*
X137028034Y-90540722D01*
X137028032Y-90540720D01*
X137013936Y-90530001D01*
X137009672Y-90526611D01*
X137007447Y-90524762D01*
X137003344Y-90520659D01*
X136999375Y-90517936D01*
X136996726Y-90515610D01*
X136982503Y-90502417D01*
X136973975Y-90494506D01*
X136963170Y-90490195D01*
X136961022Y-90488837D01*
X136960911Y-90488787D01*
X136957442Y-90487042D01*
X136948183Y-90480002D01*
X136941078Y-90477944D01*
X136934475Y-90473415D01*
X136914829Y-90468753D01*
X136910494Y-90467724D01*
X136892897Y-90462159D01*
X136878259Y-90456319D01*
X136878256Y-90456318D01*
X136869999Y-90453024D01*
X136863706Y-90452407D01*
X136860627Y-90452407D01*
X136857554Y-90452257D01*
X136857555Y-90452231D01*
X136851203Y-90451918D01*
X136840656Y-90448864D01*
X136833597Y-90449475D01*
X136825555Y-90447567D01*
X136804136Y-90450482D01*
X136798448Y-90451256D01*
X136781457Y-90452407D01*
X136269463Y-90452407D01*
X136266790Y-90452211D01*
X136261755Y-90450482D01*
X136250133Y-90450918D01*
X136250131Y-90450918D01*
X136212842Y-90452318D01*
X136208116Y-90452407D01*
X136189149Y-90452407D01*
X136188076Y-90452607D01*
X136181405Y-90452167D01*
X136179301Y-90452779D01*
X136176096Y-90452151D01*
X136176154Y-90453695D01*
X136149889Y-90454681D01*
X136139196Y-90459275D01*
X136134594Y-90460312D01*
X136122884Y-90463869D01*
X136118481Y-90465568D01*
X136107044Y-90467698D01*
X136097143Y-90473801D01*
X136097140Y-90473802D01*
X136090130Y-90478123D01*
X136087813Y-90479404D01*
X136079654Y-90481779D01*
X136070763Y-90488293D01*
X136067606Y-90489848D01*
X136061692Y-90492573D01*
X136047034Y-90498871D01*
X136042148Y-90502885D01*
X136039963Y-90505070D01*
X136037700Y-90507122D01*
X136037555Y-90506962D01*
X136028547Y-90514082D01*
X136021651Y-90520335D01*
X136011749Y-90526439D01*
X136004708Y-90535699D01*
X136003279Y-90536995D01*
X136001594Y-90538967D01*
X135994168Y-90544407D01*
X135967780Y-90583865D01*
X135966933Y-90585113D01*
X135966798Y-90585310D01*
X135966719Y-90585425D01*
X135963244Y-90590225D01*
X135950990Y-90606340D01*
X135950987Y-90606345D01*
X135943989Y-90615548D01*
X135942488Y-90620730D01*
X135942417Y-90620850D01*
X135939094Y-90625695D01*
X135938349Y-90626781D01*
X135883318Y-90671637D01*
X135834451Y-90681499D01*
X134160922Y-90681499D01*
X134092801Y-90661497D01*
X134046308Y-90607841D01*
X134039215Y-90588108D01*
X134037458Y-90581551D01*
X134036380Y-90573362D01*
X133975872Y-90427283D01*
X133886322Y-90310579D01*
X133884641Y-90308388D01*
X133879618Y-90301842D01*
X133857418Y-90284807D01*
X133760728Y-90210615D01*
X133754177Y-90205588D01*
X133680804Y-90175196D01*
X133625524Y-90130647D01*
X133603103Y-90063284D01*
X133620661Y-89994493D01*
X133639928Y-89969692D01*
X133670975Y-89938645D01*
X133673006Y-89936891D01*
X133677788Y-89934554D01*
X133711104Y-89898639D01*
X133714360Y-89895260D01*
X133727767Y-89881853D01*
X133730497Y-89877874D01*
X133732805Y-89875245D01*
X133753920Y-89852483D01*
X133758231Y-89841676D01*
X133760757Y-89837681D01*
X133766520Y-89826887D01*
X133768431Y-89822575D01*
X133775011Y-89812983D01*
X133780702Y-89789002D01*
X133786267Y-89771405D01*
X133792107Y-89756767D01*
X133792108Y-89756764D01*
X133795402Y-89748507D01*
X133796019Y-89742214D01*
X133796019Y-89739135D01*
X133796169Y-89736062D01*
X133796385Y-89736073D01*
X133797717Y-89724698D01*
X133798173Y-89715383D01*
X133800859Y-89704063D01*
X133797329Y-89678121D01*
X133797170Y-89676956D01*
X133796019Y-89659965D01*
X133796019Y-89154000D01*
X136808318Y-89154000D01*
X136809396Y-89162188D01*
X136826678Y-89293455D01*
X136828956Y-89310762D01*
X136889464Y-89456841D01*
X136985718Y-89582282D01*
X137111159Y-89678536D01*
X137257238Y-89739044D01*
X137265426Y-89740122D01*
X137320587Y-89747384D01*
X137414000Y-89759682D01*
X137422188Y-89758604D01*
X137439378Y-89756341D01*
X137507413Y-89747384D01*
X137562574Y-89740122D01*
X137570762Y-89739044D01*
X137716841Y-89678536D01*
X137842282Y-89582282D01*
X137938536Y-89456841D01*
X137999044Y-89310762D01*
X138008478Y-89239103D01*
X138037200Y-89174177D01*
X138044305Y-89166455D01*
X138433355Y-88777405D01*
X138495667Y-88743379D01*
X138522450Y-88740500D01*
X140318750Y-88740500D01*
X140386871Y-88760502D01*
X140407845Y-88777405D01*
X140923895Y-89293455D01*
X140957921Y-89355767D01*
X140959721Y-89366100D01*
X140969156Y-89437762D01*
X141029664Y-89583841D01*
X141125918Y-89709282D01*
X141251359Y-89805536D01*
X141397438Y-89866044D01*
X141469097Y-89875478D01*
X141534023Y-89904200D01*
X141541745Y-89911305D01*
X143413095Y-91782655D01*
X143447121Y-91844967D01*
X143448921Y-91855300D01*
X143458356Y-91926962D01*
X143518864Y-92073041D01*
X143549853Y-92113427D01*
X143605543Y-92186003D01*
X143615118Y-92198482D01*
X143740559Y-92294736D01*
X143886638Y-92355244D01*
X144043400Y-92375882D01*
X144051588Y-92374804D01*
X144191974Y-92356322D01*
X144200162Y-92355244D01*
X144346241Y-92294736D01*
X144471682Y-92198482D01*
X144481258Y-92186003D01*
X144536947Y-92113427D01*
X144567936Y-92073041D01*
X144628444Y-91926962D01*
X144649082Y-91770200D01*
X144632631Y-91645240D01*
X144629522Y-91621626D01*
X144628444Y-91613438D01*
X144567936Y-91467359D01*
X144491996Y-91368392D01*
X144476705Y-91348464D01*
X144471682Y-91341918D01*
X144454347Y-91328616D01*
X144365830Y-91260695D01*
X144346241Y-91245664D01*
X144200162Y-91185156D01*
X144128503Y-91175722D01*
X144063577Y-91147000D01*
X144055855Y-91139895D01*
X142184505Y-89268545D01*
X142150479Y-89206233D01*
X142148678Y-89195896D01*
X142139244Y-89124238D01*
X142078736Y-88978159D01*
X141982482Y-88852718D01*
X141857041Y-88756464D01*
X141710962Y-88695956D01*
X141639303Y-88686522D01*
X141574377Y-88657800D01*
X141566655Y-88650695D01*
X140904949Y-87988989D01*
X140895094Y-87977900D01*
X140885826Y-87966144D01*
X140873841Y-87950941D01*
X140846443Y-87932005D01*
X140825106Y-87917258D01*
X140821913Y-87914976D01*
X140774276Y-87879791D01*
X140767403Y-87877377D01*
X140761411Y-87873236D01*
X140704922Y-87855371D01*
X140701201Y-87854129D01*
X140645326Y-87834507D01*
X140638122Y-87834224D01*
X140637951Y-87834191D01*
X140631103Y-87832025D01*
X140624432Y-87831500D01*
X140571262Y-87831500D01*
X140566316Y-87831403D01*
X140565424Y-87831368D01*
X140508763Y-87829142D01*
X140501608Y-87831039D01*
X140493233Y-87831500D01*
X138316456Y-87831500D01*
X138301647Y-87830627D01*
X138281858Y-87828285D01*
X138267562Y-87826593D01*
X138258298Y-87828285D01*
X138258297Y-87828285D01*
X138209310Y-87837232D01*
X138205406Y-87837882D01*
X138146849Y-87846685D01*
X138140283Y-87849838D01*
X138133116Y-87851147D01*
X138096060Y-87870396D01*
X138080574Y-87878440D01*
X138077037Y-87880208D01*
X138023647Y-87905846D01*
X138018351Y-87910742D01*
X138018215Y-87910834D01*
X138011834Y-87914148D01*
X138006746Y-87918494D01*
X137969164Y-87956076D01*
X137965599Y-87959506D01*
X137923288Y-87998617D01*
X137919570Y-88005017D01*
X137913963Y-88011277D01*
X137401545Y-88523695D01*
X137339233Y-88557721D01*
X137328900Y-88559521D01*
X137257238Y-88568956D01*
X137111159Y-88629464D01*
X136985718Y-88725718D01*
X136889464Y-88851159D01*
X136828956Y-88997238D01*
X136827878Y-89005426D01*
X136826283Y-89017538D01*
X136808318Y-89154000D01*
X133796019Y-89154000D01*
X133796019Y-86384342D01*
X133816021Y-86316221D01*
X133865209Y-86271876D01*
X133940912Y-86233636D01*
X133940918Y-86233632D01*
X133946410Y-86230858D01*
X133958140Y-86221694D01*
X134051981Y-86148377D01*
X134108751Y-86104024D01*
X134112881Y-86099240D01*
X134239340Y-85952734D01*
X134239340Y-85952733D01*
X134243364Y-85948072D01*
X134246652Y-85942285D01*
X134308069Y-85834170D01*
X134345123Y-85768944D01*
X134410151Y-85573463D01*
X134435971Y-85369074D01*
X134436383Y-85339600D01*
X134416280Y-85134570D01*
X134356735Y-84937349D01*
X134260018Y-84755449D01*
X134211716Y-84696225D01*
X134184162Y-84630793D01*
X134196357Y-84560852D01*
X134244430Y-84508607D01*
X134309359Y-84490589D01*
X134594628Y-84490589D01*
X134662749Y-84510591D01*
X134683723Y-84527494D01*
X134929589Y-84773360D01*
X134963615Y-84835672D01*
X134958550Y-84906487D01*
X134955749Y-84912599D01*
X134955973Y-84912695D01*
X134953543Y-84918365D01*
X134950576Y-84923762D01*
X134888284Y-85120132D01*
X134887598Y-85126249D01*
X134887597Y-85126253D01*
X134881051Y-85184616D01*
X134865320Y-85324862D01*
X134882559Y-85530153D01*
X134884258Y-85536078D01*
X134923145Y-85671692D01*
X134939344Y-85728186D01*
X134942159Y-85733663D01*
X134942160Y-85733666D01*
X135030645Y-85905840D01*
X135033512Y-85911418D01*
X135161477Y-86072870D01*
X135166170Y-86076864D01*
X135166171Y-86076865D01*
X135300146Y-86190886D01*
X135318364Y-86206391D01*
X135323742Y-86209397D01*
X135323744Y-86209398D01*
X135373962Y-86237464D01*
X135498198Y-86306897D01*
X135580744Y-86333718D01*
X135688271Y-86368656D01*
X135688275Y-86368657D01*
X135694129Y-86370559D01*
X135898694Y-86394951D01*
X135904829Y-86394479D01*
X135904831Y-86394479D01*
X135977425Y-86388893D01*
X136104100Y-86379146D01*
X136110030Y-86377490D01*
X136110032Y-86377490D01*
X136245660Y-86339622D01*
X136302525Y-86323745D01*
X136308014Y-86320972D01*
X136308020Y-86320970D01*
X136475316Y-86236462D01*
X136486410Y-86230858D01*
X136498140Y-86221694D01*
X136591981Y-86148377D01*
X136648751Y-86104024D01*
X136652881Y-86099240D01*
X136779340Y-85952734D01*
X136779340Y-85952733D01*
X136783364Y-85948072D01*
X136786652Y-85942285D01*
X136848069Y-85834170D01*
X136885123Y-85768944D01*
X136950151Y-85573463D01*
X136975971Y-85369074D01*
X136976383Y-85339600D01*
X136956280Y-85134570D01*
X136896735Y-84937349D01*
X136800018Y-84755449D01*
X136705778Y-84639900D01*
X136673706Y-84600575D01*
X136673703Y-84600572D01*
X136669811Y-84595800D01*
X136652586Y-84581550D01*
X136515825Y-84468411D01*
X136515821Y-84468409D01*
X136511075Y-84464482D01*
X136340684Y-84372352D01*
X136335274Y-84369427D01*
X136329855Y-84366497D01*
X136133054Y-84305577D01*
X136126929Y-84304933D01*
X136126928Y-84304933D01*
X135934298Y-84284687D01*
X135934296Y-84284687D01*
X135928169Y-84284043D01*
X135841329Y-84291946D01*
X135729142Y-84302155D01*
X135729139Y-84302156D01*
X135723003Y-84302714D01*
X135525372Y-84360880D01*
X135503427Y-84372352D01*
X135433794Y-84386187D01*
X135367733Y-84360178D01*
X135355957Y-84349786D01*
X135063266Y-84057095D01*
X135029240Y-83994783D01*
X135034305Y-83923968D01*
X135076852Y-83867132D01*
X135143372Y-83842321D01*
X135152361Y-83842000D01*
X157009239Y-83842000D01*
X157077360Y-83862002D01*
G37*
G04 #@! TD.AperFunction*
G04 #@! TA.AperFunction,Conductor*
G36*
X129559812Y-85831128D02*
G01*
X129594043Y-85878948D01*
X129622570Y-85949203D01*
X129627213Y-85958394D01*
X129738494Y-86139988D01*
X129744571Y-86148291D01*
X129859238Y-86280666D01*
X129888720Y-86345251D01*
X129890000Y-86363163D01*
X129890000Y-87122885D01*
X129894475Y-87138124D01*
X129895865Y-87139329D01*
X129903548Y-87141000D01*
X131144986Y-87141000D01*
X131158517Y-87137027D01*
X131159637Y-87129232D01*
X131125154Y-87012068D01*
X131120561Y-87000700D01*
X131043189Y-86852700D01*
X131029355Y-86783064D01*
X131055365Y-86717004D01*
X131112961Y-86675492D01*
X131128664Y-86671076D01*
X131129068Y-86670990D01*
X131333055Y-86609791D01*
X131342642Y-86606033D01*
X131533895Y-86512339D01*
X131542745Y-86507064D01*
X131716128Y-86383392D01*
X131724000Y-86376739D01*
X131874852Y-86226412D01*
X131881530Y-86218565D01*
X131931965Y-86148377D01*
X131987959Y-86104729D01*
X132058663Y-86098283D01*
X132123382Y-86132808D01*
X132758595Y-86768021D01*
X132792621Y-86830333D01*
X132795500Y-86857116D01*
X132795500Y-89346981D01*
X132775498Y-89415102D01*
X132758595Y-89436076D01*
X132639866Y-89554805D01*
X132577554Y-89588831D01*
X132506739Y-89583766D01*
X132449903Y-89541219D01*
X132425092Y-89474699D01*
X132424771Y-89465710D01*
X132424771Y-88995919D01*
X132425644Y-88981110D01*
X132428571Y-88956378D01*
X132429678Y-88947025D01*
X132427986Y-88937758D01*
X132419042Y-88888783D01*
X132418393Y-88884881D01*
X132410987Y-88835627D01*
X132410986Y-88835624D01*
X132409586Y-88826312D01*
X132406433Y-88819745D01*
X132405124Y-88812580D01*
X132377809Y-88759996D01*
X132376059Y-88756493D01*
X132368379Y-88740500D01*
X132350425Y-88703110D01*
X132345530Y-88697815D01*
X132345437Y-88697676D01*
X132342123Y-88691297D01*
X132337777Y-88686209D01*
X132300195Y-88648627D01*
X132296765Y-88645061D01*
X132264045Y-88609665D01*
X132257654Y-88602751D01*
X132251254Y-88599033D01*
X132244994Y-88593426D01*
X131816046Y-88164478D01*
X131806191Y-88153389D01*
X131796838Y-88141525D01*
X131784938Y-88126430D01*
X131737631Y-88093734D01*
X131736203Y-88092747D01*
X131733010Y-88090465D01*
X131685373Y-88055280D01*
X131678500Y-88052866D01*
X131672508Y-88048725D01*
X131616019Y-88030860D01*
X131612298Y-88029618D01*
X131556423Y-88009996D01*
X131549219Y-88009713D01*
X131549048Y-88009680D01*
X131542200Y-88007514D01*
X131535529Y-88006989D01*
X131482359Y-88006989D01*
X131477413Y-88006892D01*
X131469318Y-88006574D01*
X131419860Y-88004631D01*
X131412705Y-88006528D01*
X131404330Y-88006989D01*
X131215849Y-88006989D01*
X131147728Y-87986987D01*
X131101235Y-87933331D01*
X131091131Y-87863057D01*
X131105012Y-87821062D01*
X131114962Y-87802660D01*
X131119714Y-87791353D01*
X131158422Y-87666308D01*
X131158628Y-87652205D01*
X131151873Y-87649000D01*
X129508000Y-87649000D01*
X129439879Y-87628998D01*
X129393386Y-87575342D01*
X129382000Y-87523000D01*
X129382000Y-86380115D01*
X129375066Y-86356499D01*
X129345740Y-86310868D01*
X129343057Y-86250787D01*
X129345130Y-86240365D01*
X129351300Y-86209348D01*
X129351300Y-85926352D01*
X129371302Y-85858231D01*
X129424958Y-85811738D01*
X129495232Y-85801634D01*
X129559812Y-85831128D01*
G37*
G04 #@! TD.AperFunction*
G04 #@! TA.AperFunction,Conductor*
G36*
X132591703Y-83862002D02*
G01*
X132638196Y-83915658D01*
X132648300Y-83985932D01*
X132618806Y-84050512D01*
X132612678Y-84057095D01*
X132367060Y-84302714D01*
X132125373Y-84544401D01*
X132063060Y-84578426D01*
X131992245Y-84573362D01*
X131935409Y-84530815D01*
X131930484Y-84523745D01*
X131923224Y-84512523D01*
X131916936Y-84504357D01*
X131773606Y-84346840D01*
X131766073Y-84339815D01*
X131598939Y-84207822D01*
X131590352Y-84202117D01*
X131403917Y-84099199D01*
X131394501Y-84094967D01*
X131371362Y-84086773D01*
X131313825Y-84045179D01*
X131287909Y-83979082D01*
X131301843Y-83909466D01*
X131351201Y-83858434D01*
X131413421Y-83842000D01*
X132523582Y-83842000D01*
X132591703Y-83862002D01*
G37*
G04 #@! TD.AperFunction*
G04 #@! TA.AperFunction,Conductor*
G36*
X132308600Y-84361173D02*
G01*
X132055834Y-84613940D01*
X132053804Y-84615693D01*
X132049020Y-84618031D01*
X132041108Y-84626560D01*
X132041107Y-84626561D01*
X132015716Y-84653933D01*
X132012436Y-84657338D01*
X131999041Y-84670733D01*
X131996317Y-84674703D01*
X131993992Y-84677351D01*
X131980797Y-84691575D01*
X131980795Y-84691578D01*
X131972888Y-84700102D01*
X131968578Y-84710906D01*
X131966056Y-84714895D01*
X131960295Y-84725683D01*
X131958378Y-84730008D01*
X131951797Y-84739602D01*
X131949111Y-84750921D01*
X131949110Y-84750923D01*
X131946106Y-84763583D01*
X131940541Y-84781180D01*
X131931406Y-84804078D01*
X131930789Y-84810371D01*
X131930789Y-84813450D01*
X131930639Y-84816523D01*
X131930423Y-84816512D01*
X131929091Y-84827887D01*
X131928635Y-84837202D01*
X131925949Y-84848522D01*
X131927518Y-84860051D01*
X131927518Y-84860052D01*
X131929638Y-84875629D01*
X131930789Y-84892620D01*
X131930789Y-85763378D01*
X131930593Y-85766051D01*
X131928864Y-85771086D01*
X131929300Y-85782708D01*
X131929300Y-85782710D01*
X131930700Y-85819999D01*
X131930789Y-85824725D01*
X131930789Y-85843692D01*
X131931671Y-85848427D01*
X131931899Y-85851953D01*
X131933063Y-85882952D01*
X131937653Y-85893637D01*
X131938690Y-85898237D01*
X131942251Y-85909958D01*
X131943950Y-85914361D01*
X131946080Y-85925797D01*
X131952184Y-85935699D01*
X131959016Y-85946783D01*
X131967520Y-85963155D01*
X131973740Y-85977632D01*
X131973742Y-85977636D01*
X131977253Y-85985807D01*
X131981267Y-85990693D01*
X131983452Y-85992878D01*
X131985504Y-85995141D01*
X131985344Y-85995286D01*
X131992464Y-86004293D01*
X131998716Y-86011188D01*
X132004821Y-86021092D01*
X132026609Y-86037660D01*
X132039428Y-86048854D01*
X132308600Y-86318026D01*
X132308600Y-86588600D01*
X129362200Y-86639400D01*
X129362200Y-83845400D01*
X132308600Y-83845400D01*
X132308600Y-84361173D01*
G37*
G04 #@! TD.AperFunction*
G04 #@! TA.AperFunction,Conductor*
G36*
X129974500Y-94884708D02*
G01*
X129973627Y-94899517D01*
X129969593Y-94933602D01*
X129971285Y-94942866D01*
X129971285Y-94942869D01*
X129980229Y-94991844D01*
X129980878Y-94995746D01*
X129984597Y-95020477D01*
X129989685Y-95054315D01*
X129992838Y-95060882D01*
X129994147Y-95068047D01*
X130021462Y-95120631D01*
X130023205Y-95124121D01*
X130048846Y-95177517D01*
X130053741Y-95182812D01*
X130053834Y-95182951D01*
X130057148Y-95189330D01*
X130061494Y-95194418D01*
X130099076Y-95232000D01*
X130102506Y-95235565D01*
X130141617Y-95277876D01*
X130148017Y-95281594D01*
X130154277Y-95287201D01*
X130648115Y-95781039D01*
X130682141Y-95843351D01*
X130685020Y-95870134D01*
X130685020Y-96896087D01*
X130665018Y-96964208D01*
X130611362Y-97010701D01*
X130594595Y-97016960D01*
X130451293Y-97059136D01*
X130451281Y-97059141D01*
X130445372Y-97060880D01*
X130262802Y-97156326D01*
X130258001Y-97160186D01*
X130257998Y-97160188D01*
X130257130Y-97160886D01*
X130102247Y-97285415D01*
X129969824Y-97443230D01*
X129966856Y-97448628D01*
X129966853Y-97448633D01*
X129908104Y-97555499D01*
X129870576Y-97623762D01*
X129808284Y-97820132D01*
X129807598Y-97826249D01*
X129807597Y-97826253D01*
X129786007Y-98018737D01*
X129785320Y-98024862D01*
X129802559Y-98230153D01*
X129804258Y-98236078D01*
X129843145Y-98371692D01*
X129859344Y-98428186D01*
X129862159Y-98433663D01*
X129862160Y-98433666D01*
X129949305Y-98603232D01*
X129953512Y-98611418D01*
X130081477Y-98772870D01*
X130086170Y-98776864D01*
X130086171Y-98776865D01*
X130220965Y-98891583D01*
X130238364Y-98906391D01*
X130243742Y-98909397D01*
X130243744Y-98909398D01*
X130328281Y-98956644D01*
X130418198Y-99006897D01*
X130513038Y-99037713D01*
X130608271Y-99068656D01*
X130608275Y-99068657D01*
X130614129Y-99070559D01*
X130738983Y-99085446D01*
X130733855Y-99588000D01*
X126233458Y-99588000D01*
X126165337Y-99567998D01*
X126118844Y-99514342D01*
X126108740Y-99444068D01*
X126138234Y-99379488D01*
X126178027Y-99348848D01*
X126206894Y-99334706D01*
X126211540Y-99332430D01*
X126408399Y-99192012D01*
X126579680Y-99021327D01*
X126720785Y-98824959D01*
X126827922Y-98608183D01*
X126898216Y-98376818D01*
X126917525Y-98230153D01*
X126929341Y-98140402D01*
X126929342Y-98140396D01*
X126929778Y-98137080D01*
X126929860Y-98133727D01*
X126931458Y-98068364D01*
X126931458Y-98068360D01*
X126931540Y-98065000D01*
X126911727Y-97824006D01*
X126852819Y-97589484D01*
X126756398Y-97367732D01*
X126625055Y-97164706D01*
X126462316Y-96985858D01*
X126272551Y-96835991D01*
X126060858Y-96719130D01*
X125937374Y-96675402D01*
X125837795Y-96640139D01*
X125837791Y-96640138D01*
X125832920Y-96638413D01*
X125827827Y-96637506D01*
X125827824Y-96637505D01*
X125599950Y-96596914D01*
X125599944Y-96596913D01*
X125594861Y-96596008D01*
X125407747Y-96593722D01*
X125399800Y-96037400D01*
X128701800Y-96037400D01*
X129259963Y-95169146D01*
X129278048Y-95166765D01*
X129286236Y-95165687D01*
X129426233Y-95107698D01*
X129546451Y-95015451D01*
X129638698Y-94895233D01*
X129696687Y-94755236D01*
X129715149Y-94615000D01*
X129974500Y-94615000D01*
X129974500Y-94884708D01*
G37*
G04 #@! TD.AperFunction*
M02*
