G04 #@! TF.GenerationSoftware,KiCad,Pcbnew,(6.0.5)*
G04 #@! TF.CreationDate,2022-08-14T17:30:35+10:00*
G04 #@! TF.ProjectId,ESP32 PicoDev,45535033-3220-4506-9963-6f4465762e6b,rev?*
G04 #@! TF.SameCoordinates,Original*
G04 #@! TF.FileFunction,Soldermask,Top*
G04 #@! TF.FilePolarity,Negative*
%FSLAX46Y46*%
G04 Gerber Fmt 4.6, Leading zero omitted, Abs format (unit mm)*
G04 Created by KiCad (PCBNEW (6.0.5)) date 2022-08-14 17:30:35*
%MOMM*%
%LPD*%
G01*
G04 APERTURE LIST*
G04 Aperture macros list*
%AMRoundRect*
0 Rectangle with rounded corners*
0 $1 Rounding radius*
0 $2 $3 $4 $5 $6 $7 $8 $9 X,Y pos of 4 corners*
0 Add a 4 corners polygon primitive as box body*
4,1,4,$2,$3,$4,$5,$6,$7,$8,$9,$2,$3,0*
0 Add four circle primitives for the rounded corners*
1,1,$1+$1,$2,$3*
1,1,$1+$1,$4,$5*
1,1,$1+$1,$6,$7*
1,1,$1+$1,$8,$9*
0 Add four rect primitives between the rounded corners*
20,1,$1+$1,$2,$3,$4,$5,0*
20,1,$1+$1,$4,$5,$6,$7,0*
20,1,$1+$1,$6,$7,$8,$9,0*
20,1,$1+$1,$8,$9,$2,$3,0*%
G04 Aperture macros list end*
%ADD10C,0.650000*%
%ADD11R,1.150000X0.600000*%
%ADD12R,1.150000X0.300000*%
%ADD13O,2.100000X1.050000*%
%ADD14O,2.000000X1.000000*%
%ADD15RoundRect,0.150000X-0.512500X-0.150000X0.512500X-0.150000X0.512500X0.150000X-0.512500X0.150000X0*%
%ADD16RoundRect,0.276000X-0.634000X0.324000X-0.634000X-0.324000X0.634000X-0.324000X0.634000X0.324000X0*%
%ADD17RoundRect,0.225000X0.250000X-0.225000X0.250000X0.225000X-0.250000X0.225000X-0.250000X-0.225000X0*%
%ADD18R,1.000000X0.700000*%
%ADD19R,0.600000X0.700000*%
%ADD20R,0.650000X0.400000*%
%ADD21RoundRect,0.225000X-0.225000X-0.250000X0.225000X-0.250000X0.225000X0.250000X-0.225000X0.250000X0*%
%ADD22RoundRect,0.200000X0.200000X0.275000X-0.200000X0.275000X-0.200000X-0.275000X0.200000X-0.275000X0*%
%ADD23RoundRect,0.062500X0.350000X0.062500X-0.350000X0.062500X-0.350000X-0.062500X0.350000X-0.062500X0*%
%ADD24RoundRect,0.062500X0.062500X0.350000X-0.062500X0.350000X-0.062500X-0.350000X0.062500X-0.350000X0*%
%ADD25R,2.600000X2.600000*%
%ADD26C,2.540000*%
%ADD27RoundRect,0.200000X-0.275000X0.200000X-0.275000X-0.200000X0.275000X-0.200000X0.275000X0.200000X0*%
%ADD28RoundRect,0.062500X0.337500X0.062500X-0.337500X0.062500X-0.337500X-0.062500X0.337500X-0.062500X0*%
%ADD29RoundRect,0.062500X0.062500X0.337500X-0.062500X0.337500X-0.062500X-0.337500X0.062500X-0.337500X0*%
%ADD30R,5.300000X5.300000*%
%ADD31RoundRect,0.200000X0.275000X-0.200000X0.275000X0.200000X-0.275000X0.200000X-0.275000X-0.200000X0*%
%ADD32R,1.700000X1.700000*%
%ADD33O,1.700000X1.700000*%
G04 APERTURE END LIST*
D10*
X129136000Y-88825000D03*
X129136000Y-94605000D03*
D11*
X130211000Y-88515000D03*
X130211000Y-89315000D03*
D12*
X130211000Y-90465000D03*
X130211000Y-91465000D03*
X130211000Y-91965000D03*
X130211000Y-92965000D03*
D11*
X130211000Y-94915000D03*
X130211000Y-94115000D03*
D12*
X130211000Y-93465000D03*
X130211000Y-92465000D03*
X130211000Y-90965000D03*
X130211000Y-89965000D03*
D13*
X129636000Y-87395000D03*
D14*
X125456000Y-87395000D03*
X125456000Y-96035000D03*
D13*
X129636000Y-96035000D03*
D15*
X144765500Y-92162000D03*
X144765500Y-93112000D03*
X144765500Y-94062000D03*
X147040500Y-94062000D03*
X147040500Y-92162000D03*
D16*
X171811000Y-93937000D03*
X171811000Y-91017000D03*
D17*
X144760000Y-90204000D03*
X144760000Y-88654000D03*
D18*
X140835000Y-92715000D03*
D19*
X142535000Y-92715000D03*
X142535000Y-90715000D03*
X140635000Y-90715000D03*
D20*
X142535000Y-95413000D03*
X142535000Y-94763000D03*
X142535000Y-94113000D03*
X140635000Y-94113000D03*
X140635000Y-94763000D03*
X140635000Y-95413000D03*
D21*
X138696400Y-88417400D03*
X140246400Y-88417400D03*
D22*
X155809000Y-91461000D03*
X154159000Y-91461000D03*
D23*
X138315500Y-92965000D03*
X138315500Y-92465000D03*
X138315500Y-91965000D03*
X138315500Y-91465000D03*
X138315500Y-90965000D03*
X138315500Y-90465000D03*
D24*
X137628000Y-89777500D03*
X137128000Y-89777500D03*
X136628000Y-89777500D03*
X136128000Y-89777500D03*
X135628000Y-89777500D03*
X135128000Y-89777500D03*
D23*
X134440500Y-90465000D03*
X134440500Y-90965000D03*
X134440500Y-91465000D03*
X134440500Y-91965000D03*
X134440500Y-92465000D03*
X134440500Y-92965000D03*
D24*
X135128000Y-93652500D03*
X135628000Y-93652500D03*
X136128000Y-93652500D03*
X136628000Y-93652500D03*
X137128000Y-93652500D03*
X137628000Y-93652500D03*
D25*
X136378000Y-91715000D03*
D21*
X154246600Y-89660600D03*
X155796600Y-89660600D03*
D26*
X171811000Y-98065000D03*
X125456000Y-85365000D03*
D21*
X154239000Y-92980500D03*
X155789000Y-92980500D03*
D26*
X171811000Y-85365000D03*
D21*
X134581600Y-88417400D03*
X136131600Y-88417400D03*
D27*
X132314000Y-94446000D03*
X132314000Y-96096000D03*
D17*
X147046000Y-90204000D03*
X147046000Y-88654000D03*
D28*
X165863000Y-94465000D03*
X165863000Y-93965000D03*
X165863000Y-93465000D03*
X165863000Y-92965000D03*
X165863000Y-92465000D03*
X165863000Y-91965000D03*
X165863000Y-91465000D03*
X165863000Y-90965000D03*
X165863000Y-90465000D03*
X165863000Y-89965000D03*
X165863000Y-89465000D03*
X165863000Y-88965000D03*
D29*
X165163000Y-88265000D03*
X164663000Y-88265000D03*
X164163000Y-88265000D03*
X163663000Y-88265000D03*
X163163000Y-88265000D03*
X162663000Y-88265000D03*
X162163000Y-88265000D03*
X161663000Y-88265000D03*
X161163000Y-88265000D03*
X160663000Y-88265000D03*
X160163000Y-88265000D03*
X159663000Y-88265000D03*
D28*
X158963000Y-88965000D03*
X158963000Y-89465000D03*
X158963000Y-89965000D03*
X158963000Y-90465000D03*
X158963000Y-90965000D03*
X158963000Y-91465000D03*
X158963000Y-91965000D03*
X158963000Y-92465000D03*
X158963000Y-92965000D03*
X158963000Y-93465000D03*
X158963000Y-93965000D03*
X158963000Y-94465000D03*
D29*
X159663000Y-95165000D03*
X160163000Y-95165000D03*
X160663000Y-95165000D03*
X161163000Y-95165000D03*
X161663000Y-95165000D03*
X162163000Y-95165000D03*
X162663000Y-95165000D03*
X163163000Y-95165000D03*
X163663000Y-95165000D03*
X164163000Y-95165000D03*
X164663000Y-95165000D03*
X165163000Y-95165000D03*
D30*
X162413000Y-91715000D03*
D21*
X154145000Y-94610500D03*
X155695000Y-94610500D03*
D26*
X125456000Y-98065000D03*
D31*
X132588000Y-89344000D03*
X132588000Y-87694000D03*
D32*
X128300800Y-85339600D03*
D33*
X130840800Y-85339600D03*
X133380800Y-85339600D03*
X135920800Y-85339600D03*
X138460800Y-85339600D03*
X141000800Y-85339600D03*
X143540800Y-85339600D03*
X146080800Y-85339600D03*
X148620800Y-85339600D03*
X151160800Y-85339600D03*
X153700800Y-85339600D03*
X156240800Y-85339600D03*
X158780800Y-85339600D03*
X161320800Y-85339600D03*
X163860800Y-85339600D03*
X166400800Y-85339600D03*
X168940800Y-85339600D03*
D32*
X128300800Y-98039600D03*
D33*
X130840800Y-98039600D03*
X133380800Y-98039600D03*
X135920800Y-98039600D03*
X138460800Y-98039600D03*
X141000800Y-98039600D03*
X143540800Y-98039600D03*
X146080800Y-98039600D03*
X148620800Y-98039600D03*
X151160800Y-98039600D03*
X153700800Y-98039600D03*
X156240800Y-98039600D03*
X158780800Y-98039600D03*
X161320800Y-98039600D03*
X163860800Y-98039600D03*
X166400800Y-98039600D03*
X168940800Y-98039600D03*
M02*
