M48
; DRILL file {KiCad (6.0.5)} date Sun Aug 14 17:30:52 2022
; FORMAT={-:-/ absolute / metric / decimal}
; #@! TF.CreationDate,2022-08-14T17:30:52+10:00
; #@! TF.GenerationSoftware,Kicad,Pcbnew,(6.0.5)
; #@! TF.FileFunction,Plated,1,2,PTH
FMAT,2
METRIC
; #@! TA.AperFunction,Plated,PTH,ViaDrill
T1C0.400
; #@! TA.AperFunction,Plated,PTH,ComponentDrill
T2C0.600
; #@! TA.AperFunction,Plated,PTH,ComponentDrill
T3C1.000
; #@! TA.AperFunction,Plated,PTH,ComponentDrill
T4C2.000
%
G90
G05
T1
X126.238Y-90.043
X126.238Y-91.059
X126.238Y-92.075
X126.238Y-93.091
X131.117Y-89.315
X132.207Y-87.452
X133.438Y-91.732
X133.451Y-90.73
X134.239Y-89.179
X134.479Y-93.715
X135.46Y-94.607
X135.565Y-95.601
X136.524Y-95.883
X137.414Y-89.154
X139.014Y-96.457
X139.748Y-91.186
X139.763Y-92.186
X139.777Y-93.639
X141.029Y-93.968
X141.554Y-89.281
X141.859Y-95.758
X143.84Y-88.214
X144.043Y-91.77
X144.78Y-95.631
X145.288Y-88.138
X145.493Y-94.93
X145.92Y-89.869
X146.403Y-95.342
X146.558Y-88.138
X146.774Y-91.567
X147.554Y-91.588
X147.828Y-93.026
X148.089Y-95.267
X148.569Y-86.788
X148.844Y-94.564
X149.157Y-88.838
X149.339Y-87.855
X150.243Y-94.593
X150.647Y-91.059
X151.587Y-86.755
X151.642Y-94.659
X152.431Y-98.738
X154.151Y-90.89
X155.067Y-97.015
X156.063Y-92.032
X156.134Y-89.891
X157.099Y-91.694
X157.607Y-97.155
X158.546Y-96.584
X160.909Y-92.456
X161.098Y-96.196
X161.671Y-92.456
X162.133Y-86.993
X162.433Y-92.456
X163.195Y-92.456
X163.532Y-86.762
X163.957Y-92.456
X164.847Y-86.402
X165.1Y-97.018
X165.914Y-88.619
X165.989Y-94.869
X166.173Y-87.653
X166.425Y-95.768
X166.548Y-93.239
X166.992Y-88.36
X167.131Y-87.368
X167.224Y-89.405
X167.671Y-84.641
X167.695Y-92.684
X167.831Y-95.291
X167.935Y-87.961
X168.278Y-96.751
X168.681Y-91.525
X168.681Y-92.525
X168.706Y-90.551
X169.481Y-96.193
T3
X128.301Y-85.34
X128.301Y-98.04
X130.841Y-85.34
X130.841Y-98.04
X133.381Y-85.34
X133.381Y-98.04
X135.921Y-85.34
X135.921Y-98.04
X138.461Y-85.34
X138.461Y-98.04
X141.001Y-85.34
X141.001Y-98.04
X143.541Y-85.34
X143.541Y-98.04
X146.081Y-85.34
X146.081Y-98.04
X148.621Y-85.34
X148.621Y-98.04
X151.161Y-85.34
X151.161Y-98.04
X153.701Y-85.34
X153.701Y-98.04
X156.241Y-85.34
X156.241Y-98.04
X158.781Y-85.34
X158.781Y-98.04
X161.321Y-85.34
X161.321Y-98.04
X163.861Y-85.34
X163.861Y-98.04
X166.401Y-85.34
X166.401Y-98.04
X168.941Y-85.34
X168.941Y-98.04
T4
X125.456Y-85.365
X125.456Y-98.065
X171.811Y-85.365
X171.811Y-98.065
T2
X125.856Y-87.395G85X125.056Y-87.395
G05
X125.856Y-96.035G85X125.056Y-96.035
G05
X130.186Y-87.395G85X129.086Y-87.395
G05
X130.186Y-96.035G85X129.086Y-96.035
G05
T0
M30
