G04 #@! TF.GenerationSoftware,KiCad,Pcbnew,(6.0.5)*
G04 #@! TF.CreationDate,2022-08-14T17:30:35+10:00*
G04 #@! TF.ProjectId,ESP32 PicoDev,45535033-3220-4506-9963-6f4465762e6b,rev?*
G04 #@! TF.SameCoordinates,Original*
G04 #@! TF.FileFunction,Soldermask,Bot*
G04 #@! TF.FilePolarity,Negative*
%FSLAX46Y46*%
G04 Gerber Fmt 4.6, Leading zero omitted, Abs format (unit mm)*
G04 Created by KiCad (PCBNEW (6.0.5)) date 2022-08-14 17:30:35*
%MOMM*%
%LPD*%
G01*
G04 APERTURE LIST*
%ADD10C,0.650000*%
%ADD11O,2.100000X1.050000*%
%ADD12O,2.000000X1.000000*%
%ADD13C,2.540000*%
%ADD14R,1.700000X1.700000*%
%ADD15O,1.700000X1.700000*%
G04 APERTURE END LIST*
D10*
X129136000Y-88825000D03*
X129136000Y-94605000D03*
D11*
X129636000Y-87395000D03*
D12*
X125456000Y-87395000D03*
X125456000Y-96035000D03*
D11*
X129636000Y-96035000D03*
D13*
X171811000Y-98065000D03*
X125456000Y-85365000D03*
X171811000Y-85365000D03*
X125456000Y-98065000D03*
D14*
X128300800Y-85339600D03*
D15*
X130840800Y-85339600D03*
X133380800Y-85339600D03*
X135920800Y-85339600D03*
X138460800Y-85339600D03*
X141000800Y-85339600D03*
X143540800Y-85339600D03*
X146080800Y-85339600D03*
X148620800Y-85339600D03*
X151160800Y-85339600D03*
X153700800Y-85339600D03*
X156240800Y-85339600D03*
X158780800Y-85339600D03*
X161320800Y-85339600D03*
X163860800Y-85339600D03*
X166400800Y-85339600D03*
X168940800Y-85339600D03*
D14*
X128300800Y-98039600D03*
D15*
X130840800Y-98039600D03*
X133380800Y-98039600D03*
X135920800Y-98039600D03*
X138460800Y-98039600D03*
X141000800Y-98039600D03*
X143540800Y-98039600D03*
X146080800Y-98039600D03*
X148620800Y-98039600D03*
X151160800Y-98039600D03*
X153700800Y-98039600D03*
X156240800Y-98039600D03*
X158780800Y-98039600D03*
X161320800Y-98039600D03*
X163860800Y-98039600D03*
X166400800Y-98039600D03*
X168940800Y-98039600D03*
M02*
