G04 #@! TF.GenerationSoftware,KiCad,Pcbnew,(6.0.5)*
G04 #@! TF.CreationDate,2022-08-14T17:30:35+10:00*
G04 #@! TF.ProjectId,ESP32 PicoDev,45535033-3220-4506-9963-6f4465762e6b,rev?*
G04 #@! TF.SameCoordinates,Original*
G04 #@! TF.FileFunction,Legend,Bot*
G04 #@! TF.FilePolarity,Positive*
%FSLAX46Y46*%
G04 Gerber Fmt 4.6, Leading zero omitted, Abs format (unit mm)*
G04 Created by KiCad (PCBNEW (6.0.5)) date 2022-08-14 17:30:35*
%MOMM*%
%LPD*%
G01*
G04 APERTURE LIST*
%ADD10C,0.010000*%
%ADD11C,0.250000*%
%ADD12C,0.150000*%
%ADD13C,0.300000*%
%ADD14C,0.650000*%
%ADD15O,2.100000X1.050000*%
%ADD16O,2.000000X1.000000*%
%ADD17C,2.540000*%
%ADD18R,1.700000X1.700000*%
%ADD19O,1.700000X1.700000*%
G04 APERTURE END LIST*
D10*
G36*
X125174375Y-89114142D02*
G01*
X125192201Y-89114593D01*
X125207516Y-89115641D01*
X125214306Y-89116464D01*
X125220558Y-89117526D01*
X125226300Y-89118857D01*
X125231563Y-89120488D01*
X125236377Y-89122448D01*
X125240770Y-89124768D01*
X125244773Y-89127477D01*
X125248416Y-89130606D01*
X125251729Y-89134185D01*
X125254740Y-89138243D01*
X125257480Y-89142810D01*
X125259978Y-89147918D01*
X125262265Y-89153595D01*
X125264369Y-89159872D01*
X125268150Y-89174345D01*
X125271559Y-89191578D01*
X125274833Y-89211811D01*
X125281930Y-89262237D01*
X125283874Y-89276588D01*
X125285820Y-89289325D01*
X125287895Y-89300610D01*
X125290226Y-89310606D01*
X125292940Y-89319475D01*
X125294479Y-89323538D01*
X125296162Y-89327380D01*
X125298004Y-89331022D01*
X125300020Y-89334484D01*
X125302227Y-89337787D01*
X125304640Y-89340950D01*
X125307276Y-89343995D01*
X125310150Y-89346941D01*
X125313277Y-89349809D01*
X125316674Y-89352619D01*
X125320357Y-89355391D01*
X125324341Y-89358147D01*
X125333276Y-89363688D01*
X125343607Y-89369404D01*
X125355459Y-89375460D01*
X125384236Y-89389237D01*
X125402764Y-89397639D01*
X125421002Y-89405525D01*
X125438496Y-89412708D01*
X125454791Y-89419002D01*
X125469433Y-89424222D01*
X125475992Y-89426370D01*
X125481966Y-89428180D01*
X125487300Y-89429628D01*
X125491936Y-89430691D01*
X125495818Y-89431346D01*
X125498889Y-89431570D01*
X125501648Y-89431245D01*
X125505252Y-89430292D01*
X125509636Y-89428744D01*
X125514736Y-89426637D01*
X125526825Y-89420873D01*
X125541002Y-89413270D01*
X125556749Y-89404095D01*
X125573551Y-89393619D01*
X125590890Y-89382109D01*
X125608250Y-89369834D01*
X125625954Y-89357559D01*
X125643059Y-89346049D01*
X125659130Y-89335572D01*
X125673734Y-89326398D01*
X125686436Y-89318795D01*
X125691938Y-89315666D01*
X125696803Y-89313031D01*
X125700974Y-89310923D01*
X125704399Y-89309376D01*
X125707023Y-89308423D01*
X125708017Y-89308180D01*
X125708791Y-89308098D01*
X125710540Y-89308545D01*
X125713105Y-89309855D01*
X125716434Y-89311981D01*
X125720477Y-89314878D01*
X125730495Y-89322794D01*
X125742746Y-89333233D01*
X125756816Y-89345821D01*
X125772291Y-89360187D01*
X125788759Y-89375959D01*
X125805805Y-89392764D01*
X125888708Y-89477431D01*
X125818153Y-89579737D01*
X125806030Y-89596903D01*
X125795422Y-89612141D01*
X125786271Y-89625633D01*
X125778520Y-89637559D01*
X125775152Y-89642991D01*
X125772113Y-89648100D01*
X125769396Y-89652908D01*
X125766993Y-89657437D01*
X125764897Y-89661711D01*
X125763102Y-89665751D01*
X125761601Y-89669581D01*
X125760385Y-89673223D01*
X125759449Y-89676699D01*
X125758784Y-89680033D01*
X125758384Y-89683246D01*
X125758242Y-89686362D01*
X125758351Y-89689403D01*
X125758703Y-89692392D01*
X125759292Y-89695351D01*
X125760110Y-89698303D01*
X125761150Y-89701270D01*
X125762405Y-89704276D01*
X125763868Y-89707342D01*
X125765532Y-89710492D01*
X125767390Y-89713747D01*
X125769435Y-89717131D01*
X125774055Y-89724375D01*
X125779244Y-89732861D01*
X125784143Y-89740995D01*
X125788628Y-89748591D01*
X125792576Y-89755464D01*
X125795863Y-89761427D01*
X125797219Y-89764010D01*
X125798364Y-89766295D01*
X125799281Y-89768260D01*
X125799955Y-89769882D01*
X125800371Y-89771136D01*
X125800478Y-89771618D01*
X125800514Y-89772000D01*
X125799456Y-89773108D01*
X125796355Y-89775073D01*
X125784446Y-89781371D01*
X125765632Y-89790480D01*
X125740762Y-89801987D01*
X125676242Y-89830539D01*
X125597666Y-89863723D01*
X125396583Y-89946625D01*
X125336611Y-89883125D01*
X125317617Y-89864565D01*
X125298350Y-89847917D01*
X125278824Y-89833190D01*
X125259055Y-89820397D01*
X125239059Y-89809547D01*
X125228980Y-89804853D01*
X125218851Y-89800650D01*
X125208672Y-89796937D01*
X125198446Y-89793717D01*
X125188175Y-89790990D01*
X125177861Y-89788757D01*
X125167505Y-89787021D01*
X125157110Y-89785783D01*
X125146678Y-89785042D01*
X125136210Y-89784802D01*
X125125708Y-89785064D01*
X125115175Y-89785827D01*
X125104612Y-89787095D01*
X125094021Y-89788868D01*
X125083404Y-89791147D01*
X125072764Y-89793934D01*
X125062101Y-89797230D01*
X125051419Y-89801036D01*
X125040718Y-89805353D01*
X125030002Y-89810184D01*
X125008528Y-89821389D01*
X124991226Y-89831621D01*
X124975041Y-89842473D01*
X124959972Y-89853945D01*
X124946020Y-89866038D01*
X124933183Y-89878750D01*
X124921463Y-89892083D01*
X124910859Y-89906035D01*
X124901371Y-89920608D01*
X124893000Y-89935801D01*
X124885744Y-89951614D01*
X124879605Y-89968047D01*
X124874582Y-89985100D01*
X124870676Y-90002774D01*
X124867885Y-90021067D01*
X124866211Y-90039981D01*
X124865653Y-90059514D01*
X124866503Y-90083234D01*
X124869003Y-90106087D01*
X124873075Y-90128043D01*
X124878644Y-90149073D01*
X124885633Y-90169147D01*
X124893965Y-90188235D01*
X124903564Y-90206308D01*
X124914352Y-90223335D01*
X124926255Y-90239288D01*
X124939195Y-90254136D01*
X124953095Y-90267850D01*
X124967879Y-90280400D01*
X124983471Y-90291756D01*
X124999793Y-90301889D01*
X125016770Y-90310768D01*
X125034324Y-90318365D01*
X125052380Y-90324649D01*
X125070861Y-90329591D01*
X125089690Y-90333161D01*
X125108790Y-90335329D01*
X125128086Y-90336065D01*
X125147500Y-90335341D01*
X125166956Y-90333125D01*
X125186377Y-90329389D01*
X125205688Y-90324103D01*
X125224810Y-90317237D01*
X125243669Y-90308761D01*
X125262187Y-90298645D01*
X125280287Y-90286861D01*
X125297894Y-90273377D01*
X125314930Y-90258165D01*
X125331319Y-90241195D01*
X125393055Y-90174167D01*
X125578264Y-90253542D01*
X125615994Y-90269031D01*
X125651906Y-90283528D01*
X125685172Y-90296702D01*
X125714965Y-90308223D01*
X125740459Y-90317759D01*
X125760826Y-90324980D01*
X125775240Y-90329555D01*
X125779957Y-90330747D01*
X125782875Y-90331153D01*
X125786884Y-90331364D01*
X125790313Y-90332014D01*
X125791808Y-90332512D01*
X125793157Y-90333130D01*
X125794359Y-90333870D01*
X125795415Y-90334736D01*
X125796323Y-90335731D01*
X125797084Y-90336859D01*
X125797696Y-90338122D01*
X125798161Y-90339525D01*
X125798476Y-90341069D01*
X125798643Y-90342759D01*
X125798661Y-90344597D01*
X125798529Y-90346587D01*
X125797816Y-90351036D01*
X125796500Y-90356130D01*
X125794580Y-90361896D01*
X125792052Y-90368360D01*
X125788915Y-90375548D01*
X125785166Y-90383484D01*
X125780801Y-90392196D01*
X125775819Y-90401709D01*
X125771838Y-90408700D01*
X125768523Y-90415224D01*
X125765921Y-90421432D01*
X125764078Y-90427478D01*
X125763457Y-90430487D01*
X125763042Y-90433513D01*
X125762841Y-90436575D01*
X125762859Y-90439691D01*
X125763101Y-90442881D01*
X125763574Y-90446163D01*
X125764284Y-90449557D01*
X125765236Y-90453082D01*
X125767889Y-90460600D01*
X125771582Y-90468871D01*
X125776359Y-90478046D01*
X125782268Y-90488277D01*
X125789356Y-90499718D01*
X125797668Y-90512520D01*
X125818153Y-90542820D01*
X125885180Y-90639834D01*
X125800514Y-90735084D01*
X125715847Y-90828570D01*
X125610014Y-90756250D01*
X125504180Y-90683931D01*
X125408930Y-90722736D01*
X125372650Y-90738226D01*
X125357798Y-90744999D01*
X125344907Y-90751400D01*
X125333804Y-90757635D01*
X125328868Y-90760756D01*
X125324315Y-90763912D01*
X125320123Y-90767131D01*
X125316269Y-90770437D01*
X125312732Y-90773857D01*
X125309491Y-90777417D01*
X125306524Y-90781142D01*
X125303809Y-90785058D01*
X125301324Y-90789191D01*
X125299049Y-90793568D01*
X125296961Y-90798212D01*
X125295038Y-90803152D01*
X125293260Y-90808412D01*
X125291604Y-90814018D01*
X125288573Y-90826372D01*
X125285772Y-90840421D01*
X125283027Y-90856372D01*
X125280166Y-90874431D01*
X125273579Y-90916351D01*
X125270462Y-90933311D01*
X125267158Y-90947853D01*
X125265365Y-90954275D01*
X125263441Y-90960162D01*
X125261356Y-90965538D01*
X125259082Y-90970425D01*
X125256592Y-90974847D01*
X125253856Y-90978828D01*
X125250847Y-90982389D01*
X125247535Y-90985556D01*
X125243892Y-90988350D01*
X125239890Y-90990796D01*
X125235500Y-90992916D01*
X125230695Y-90994734D01*
X125225445Y-90996272D01*
X125219722Y-90997555D01*
X125213498Y-90998605D01*
X125206745Y-90999447D01*
X125191535Y-91000594D01*
X125173865Y-91001183D01*
X125130236Y-91001431D01*
X125010291Y-91001431D01*
X124990889Y-90913236D01*
X124987016Y-90894709D01*
X124983392Y-90876470D01*
X124980099Y-90858976D01*
X124977219Y-90842681D01*
X124974835Y-90828039D01*
X124973029Y-90815506D01*
X124971886Y-90805536D01*
X124971588Y-90801654D01*
X124971486Y-90798584D01*
X124971399Y-90797225D01*
X124971140Y-90795798D01*
X124970714Y-90794305D01*
X124970125Y-90792751D01*
X124968475Y-90789472D01*
X124966222Y-90785988D01*
X124963401Y-90782329D01*
X124960045Y-90778523D01*
X124956188Y-90774598D01*
X124951863Y-90770582D01*
X124947104Y-90766504D01*
X124941944Y-90762393D01*
X124936418Y-90758277D01*
X124930558Y-90754183D01*
X124924399Y-90750142D01*
X124917973Y-90746180D01*
X124911315Y-90742327D01*
X124904458Y-90738611D01*
X124882267Y-90727763D01*
X124862449Y-90718382D01*
X124844687Y-90710489D01*
X124828666Y-90704105D01*
X124821210Y-90701486D01*
X124814072Y-90699251D01*
X124807211Y-90697404D01*
X124800589Y-90695947D01*
X124794165Y-90694883D01*
X124787901Y-90694215D01*
X124781757Y-90693944D01*
X124775694Y-90694073D01*
X124769673Y-90694606D01*
X124763653Y-90695544D01*
X124757596Y-90696891D01*
X124751461Y-90698648D01*
X124745211Y-90700819D01*
X124738805Y-90703406D01*
X124732204Y-90706411D01*
X124725368Y-90709838D01*
X124710836Y-90717965D01*
X124694893Y-90727808D01*
X124677224Y-90739387D01*
X124657514Y-90752723D01*
X124553444Y-90823278D01*
X124465250Y-90731556D01*
X124377055Y-90639834D01*
X124451139Y-90535764D01*
X124525222Y-90431695D01*
X124488180Y-90336445D01*
X124484134Y-90326925D01*
X124479954Y-90317583D01*
X124475670Y-90308474D01*
X124471313Y-90299651D01*
X124466916Y-90291170D01*
X124462508Y-90283084D01*
X124458120Y-90275447D01*
X124453785Y-90268315D01*
X124449532Y-90261740D01*
X124445392Y-90255778D01*
X124441398Y-90250482D01*
X124437579Y-90245908D01*
X124433967Y-90242108D01*
X124432248Y-90240516D01*
X124430592Y-90239138D01*
X124429004Y-90237981D01*
X124427486Y-90237052D01*
X124426044Y-90236357D01*
X124424680Y-90235903D01*
X124417415Y-90233605D01*
X124406573Y-90230749D01*
X124376394Y-90223776D01*
X124338608Y-90215811D01*
X124297680Y-90207681D01*
X124197139Y-90188278D01*
X124191847Y-90070098D01*
X124190636Y-90045510D01*
X124189680Y-90023875D01*
X124189029Y-90005005D01*
X124188733Y-89988711D01*
X124188732Y-89981471D01*
X124188839Y-89974804D01*
X124189059Y-89968687D01*
X124189398Y-89963096D01*
X124189862Y-89958008D01*
X124190457Y-89953399D01*
X124191191Y-89949245D01*
X124192068Y-89945523D01*
X124193094Y-89942209D01*
X124194277Y-89939280D01*
X124195622Y-89936712D01*
X124197135Y-89934481D01*
X124198823Y-89932565D01*
X124200691Y-89930939D01*
X124202746Y-89929579D01*
X124204994Y-89928463D01*
X124207440Y-89927566D01*
X124210092Y-89926866D01*
X124212955Y-89926337D01*
X124216035Y-89925958D01*
X124219339Y-89925704D01*
X124222872Y-89925552D01*
X124230653Y-89925459D01*
X124239503Y-89925059D01*
X124251185Y-89923915D01*
X124265224Y-89922110D01*
X124281144Y-89919726D01*
X124298469Y-89916846D01*
X124316725Y-89913552D01*
X124335435Y-89909928D01*
X124354125Y-89906056D01*
X124369135Y-89902854D01*
X124382512Y-89899786D01*
X124394401Y-89896739D01*
X124404947Y-89893598D01*
X124414293Y-89890252D01*
X124418562Y-89888465D01*
X124422586Y-89886584D01*
X124426382Y-89884595D01*
X124429969Y-89882483D01*
X124433364Y-89880234D01*
X124436587Y-89877834D01*
X124439654Y-89875268D01*
X124442585Y-89872523D01*
X124445396Y-89869584D01*
X124448107Y-89866437D01*
X124450735Y-89863068D01*
X124453299Y-89859463D01*
X124455816Y-89855607D01*
X124458304Y-89851486D01*
X124463269Y-89842392D01*
X124468337Y-89832069D01*
X124473652Y-89820402D01*
X124479361Y-89807278D01*
X124485865Y-89791227D01*
X124492039Y-89775115D01*
X124497716Y-89759374D01*
X124502732Y-89744440D01*
X124506922Y-89730745D01*
X124508655Y-89724499D01*
X124510119Y-89718725D01*
X124511294Y-89713479D01*
X124512158Y-89708814D01*
X124512692Y-89704784D01*
X124512875Y-89701445D01*
X124512509Y-89698314D01*
X124511435Y-89694255D01*
X124509689Y-89689333D01*
X124507308Y-89683613D01*
X124500783Y-89670036D01*
X124492149Y-89654040D01*
X124481697Y-89636143D01*
X124469715Y-89616861D01*
X124456492Y-89596710D01*
X124442319Y-89576209D01*
X124371764Y-89477431D01*
X124454666Y-89392764D01*
X124471716Y-89375959D01*
X124488208Y-89360187D01*
X124503749Y-89345821D01*
X124511040Y-89339282D01*
X124517946Y-89333233D01*
X124524418Y-89327722D01*
X124530407Y-89322794D01*
X124535863Y-89318498D01*
X124540739Y-89314878D01*
X124544984Y-89311981D01*
X124548549Y-89309855D01*
X124550061Y-89309095D01*
X124551385Y-89308545D01*
X124552515Y-89308210D01*
X124553444Y-89308098D01*
X124555565Y-89308464D01*
X124558584Y-89309538D01*
X124562451Y-89311284D01*
X124567114Y-89313665D01*
X124578621Y-89320190D01*
X124592691Y-89328823D01*
X124608910Y-89339276D01*
X124626866Y-89351258D01*
X124646145Y-89364480D01*
X124666333Y-89378653D01*
X124698555Y-89401308D01*
X124711892Y-89410372D01*
X124723687Y-89418010D01*
X124729078Y-89421313D01*
X124734169Y-89424284D01*
X124738990Y-89426928D01*
X124743569Y-89429255D01*
X124747934Y-89431271D01*
X124752116Y-89432986D01*
X124756141Y-89434406D01*
X124760040Y-89435539D01*
X124763840Y-89436393D01*
X124767571Y-89436975D01*
X124771261Y-89437294D01*
X124774940Y-89437358D01*
X124778635Y-89437173D01*
X124782376Y-89436748D01*
X124786191Y-89436090D01*
X124790109Y-89435208D01*
X124794158Y-89434109D01*
X124798369Y-89432800D01*
X124807386Y-89429586D01*
X124817390Y-89425627D01*
X124828611Y-89420987D01*
X124845621Y-89413733D01*
X124861591Y-89406531D01*
X124876511Y-89399391D01*
X124890375Y-89392323D01*
X124903174Y-89385338D01*
X124914900Y-89378446D01*
X124925547Y-89371658D01*
X124930463Y-89368306D01*
X124935106Y-89364983D01*
X124939475Y-89361691D01*
X124943569Y-89358432D01*
X124947387Y-89355206D01*
X124950929Y-89352016D01*
X124954193Y-89348861D01*
X124957178Y-89345744D01*
X124959883Y-89342665D01*
X124962308Y-89339627D01*
X124964451Y-89336630D01*
X124966312Y-89333676D01*
X124967889Y-89330765D01*
X124969181Y-89327900D01*
X124970188Y-89325081D01*
X124970908Y-89322310D01*
X124971341Y-89319589D01*
X124971486Y-89316917D01*
X124971886Y-89309965D01*
X124973029Y-89299995D01*
X124974835Y-89287462D01*
X124977219Y-89272820D01*
X124983392Y-89239030D01*
X124990889Y-89202264D01*
X125010291Y-89114070D01*
X125130236Y-89114070D01*
X125174375Y-89114142D01*
G37*
X125174375Y-89114142D02*
X125192201Y-89114593D01*
X125207516Y-89115641D01*
X125214306Y-89116464D01*
X125220558Y-89117526D01*
X125226300Y-89118857D01*
X125231563Y-89120488D01*
X125236377Y-89122448D01*
X125240770Y-89124768D01*
X125244773Y-89127477D01*
X125248416Y-89130606D01*
X125251729Y-89134185D01*
X125254740Y-89138243D01*
X125257480Y-89142810D01*
X125259978Y-89147918D01*
X125262265Y-89153595D01*
X125264369Y-89159872D01*
X125268150Y-89174345D01*
X125271559Y-89191578D01*
X125274833Y-89211811D01*
X125281930Y-89262237D01*
X125283874Y-89276588D01*
X125285820Y-89289325D01*
X125287895Y-89300610D01*
X125290226Y-89310606D01*
X125292940Y-89319475D01*
X125294479Y-89323538D01*
X125296162Y-89327380D01*
X125298004Y-89331022D01*
X125300020Y-89334484D01*
X125302227Y-89337787D01*
X125304640Y-89340950D01*
X125307276Y-89343995D01*
X125310150Y-89346941D01*
X125313277Y-89349809D01*
X125316674Y-89352619D01*
X125320357Y-89355391D01*
X125324341Y-89358147D01*
X125333276Y-89363688D01*
X125343607Y-89369404D01*
X125355459Y-89375460D01*
X125384236Y-89389237D01*
X125402764Y-89397639D01*
X125421002Y-89405525D01*
X125438496Y-89412708D01*
X125454791Y-89419002D01*
X125469433Y-89424222D01*
X125475992Y-89426370D01*
X125481966Y-89428180D01*
X125487300Y-89429628D01*
X125491936Y-89430691D01*
X125495818Y-89431346D01*
X125498889Y-89431570D01*
X125501648Y-89431245D01*
X125505252Y-89430292D01*
X125509636Y-89428744D01*
X125514736Y-89426637D01*
X125526825Y-89420873D01*
X125541002Y-89413270D01*
X125556749Y-89404095D01*
X125573551Y-89393619D01*
X125590890Y-89382109D01*
X125608250Y-89369834D01*
X125625954Y-89357559D01*
X125643059Y-89346049D01*
X125659130Y-89335572D01*
X125673734Y-89326398D01*
X125686436Y-89318795D01*
X125691938Y-89315666D01*
X125696803Y-89313031D01*
X125700974Y-89310923D01*
X125704399Y-89309376D01*
X125707023Y-89308423D01*
X125708017Y-89308180D01*
X125708791Y-89308098D01*
X125710540Y-89308545D01*
X125713105Y-89309855D01*
X125716434Y-89311981D01*
X125720477Y-89314878D01*
X125730495Y-89322794D01*
X125742746Y-89333233D01*
X125756816Y-89345821D01*
X125772291Y-89360187D01*
X125788759Y-89375959D01*
X125805805Y-89392764D01*
X125888708Y-89477431D01*
X125818153Y-89579737D01*
X125806030Y-89596903D01*
X125795422Y-89612141D01*
X125786271Y-89625633D01*
X125778520Y-89637559D01*
X125775152Y-89642991D01*
X125772113Y-89648100D01*
X125769396Y-89652908D01*
X125766993Y-89657437D01*
X125764897Y-89661711D01*
X125763102Y-89665751D01*
X125761601Y-89669581D01*
X125760385Y-89673223D01*
X125759449Y-89676699D01*
X125758784Y-89680033D01*
X125758384Y-89683246D01*
X125758242Y-89686362D01*
X125758351Y-89689403D01*
X125758703Y-89692392D01*
X125759292Y-89695351D01*
X125760110Y-89698303D01*
X125761150Y-89701270D01*
X125762405Y-89704276D01*
X125763868Y-89707342D01*
X125765532Y-89710492D01*
X125767390Y-89713747D01*
X125769435Y-89717131D01*
X125774055Y-89724375D01*
X125779244Y-89732861D01*
X125784143Y-89740995D01*
X125788628Y-89748591D01*
X125792576Y-89755464D01*
X125795863Y-89761427D01*
X125797219Y-89764010D01*
X125798364Y-89766295D01*
X125799281Y-89768260D01*
X125799955Y-89769882D01*
X125800371Y-89771136D01*
X125800478Y-89771618D01*
X125800514Y-89772000D01*
X125799456Y-89773108D01*
X125796355Y-89775073D01*
X125784446Y-89781371D01*
X125765632Y-89790480D01*
X125740762Y-89801987D01*
X125676242Y-89830539D01*
X125597666Y-89863723D01*
X125396583Y-89946625D01*
X125336611Y-89883125D01*
X125317617Y-89864565D01*
X125298350Y-89847917D01*
X125278824Y-89833190D01*
X125259055Y-89820397D01*
X125239059Y-89809547D01*
X125228980Y-89804853D01*
X125218851Y-89800650D01*
X125208672Y-89796937D01*
X125198446Y-89793717D01*
X125188175Y-89790990D01*
X125177861Y-89788757D01*
X125167505Y-89787021D01*
X125157110Y-89785783D01*
X125146678Y-89785042D01*
X125136210Y-89784802D01*
X125125708Y-89785064D01*
X125115175Y-89785827D01*
X125104612Y-89787095D01*
X125094021Y-89788868D01*
X125083404Y-89791147D01*
X125072764Y-89793934D01*
X125062101Y-89797230D01*
X125051419Y-89801036D01*
X125040718Y-89805353D01*
X125030002Y-89810184D01*
X125008528Y-89821389D01*
X124991226Y-89831621D01*
X124975041Y-89842473D01*
X124959972Y-89853945D01*
X124946020Y-89866038D01*
X124933183Y-89878750D01*
X124921463Y-89892083D01*
X124910859Y-89906035D01*
X124901371Y-89920608D01*
X124893000Y-89935801D01*
X124885744Y-89951614D01*
X124879605Y-89968047D01*
X124874582Y-89985100D01*
X124870676Y-90002774D01*
X124867885Y-90021067D01*
X124866211Y-90039981D01*
X124865653Y-90059514D01*
X124866503Y-90083234D01*
X124869003Y-90106087D01*
X124873075Y-90128043D01*
X124878644Y-90149073D01*
X124885633Y-90169147D01*
X124893965Y-90188235D01*
X124903564Y-90206308D01*
X124914352Y-90223335D01*
X124926255Y-90239288D01*
X124939195Y-90254136D01*
X124953095Y-90267850D01*
X124967879Y-90280400D01*
X124983471Y-90291756D01*
X124999793Y-90301889D01*
X125016770Y-90310768D01*
X125034324Y-90318365D01*
X125052380Y-90324649D01*
X125070861Y-90329591D01*
X125089690Y-90333161D01*
X125108790Y-90335329D01*
X125128086Y-90336065D01*
X125147500Y-90335341D01*
X125166956Y-90333125D01*
X125186377Y-90329389D01*
X125205688Y-90324103D01*
X125224810Y-90317237D01*
X125243669Y-90308761D01*
X125262187Y-90298645D01*
X125280287Y-90286861D01*
X125297894Y-90273377D01*
X125314930Y-90258165D01*
X125331319Y-90241195D01*
X125393055Y-90174167D01*
X125578264Y-90253542D01*
X125615994Y-90269031D01*
X125651906Y-90283528D01*
X125685172Y-90296702D01*
X125714965Y-90308223D01*
X125740459Y-90317759D01*
X125760826Y-90324980D01*
X125775240Y-90329555D01*
X125779957Y-90330747D01*
X125782875Y-90331153D01*
X125786884Y-90331364D01*
X125790313Y-90332014D01*
X125791808Y-90332512D01*
X125793157Y-90333130D01*
X125794359Y-90333870D01*
X125795415Y-90334736D01*
X125796323Y-90335731D01*
X125797084Y-90336859D01*
X125797696Y-90338122D01*
X125798161Y-90339525D01*
X125798476Y-90341069D01*
X125798643Y-90342759D01*
X125798661Y-90344597D01*
X125798529Y-90346587D01*
X125797816Y-90351036D01*
X125796500Y-90356130D01*
X125794580Y-90361896D01*
X125792052Y-90368360D01*
X125788915Y-90375548D01*
X125785166Y-90383484D01*
X125780801Y-90392196D01*
X125775819Y-90401709D01*
X125771838Y-90408700D01*
X125768523Y-90415224D01*
X125765921Y-90421432D01*
X125764078Y-90427478D01*
X125763457Y-90430487D01*
X125763042Y-90433513D01*
X125762841Y-90436575D01*
X125762859Y-90439691D01*
X125763101Y-90442881D01*
X125763574Y-90446163D01*
X125764284Y-90449557D01*
X125765236Y-90453082D01*
X125767889Y-90460600D01*
X125771582Y-90468871D01*
X125776359Y-90478046D01*
X125782268Y-90488277D01*
X125789356Y-90499718D01*
X125797668Y-90512520D01*
X125818153Y-90542820D01*
X125885180Y-90639834D01*
X125800514Y-90735084D01*
X125715847Y-90828570D01*
X125610014Y-90756250D01*
X125504180Y-90683931D01*
X125408930Y-90722736D01*
X125372650Y-90738226D01*
X125357798Y-90744999D01*
X125344907Y-90751400D01*
X125333804Y-90757635D01*
X125328868Y-90760756D01*
X125324315Y-90763912D01*
X125320123Y-90767131D01*
X125316269Y-90770437D01*
X125312732Y-90773857D01*
X125309491Y-90777417D01*
X125306524Y-90781142D01*
X125303809Y-90785058D01*
X125301324Y-90789191D01*
X125299049Y-90793568D01*
X125296961Y-90798212D01*
X125295038Y-90803152D01*
X125293260Y-90808412D01*
X125291604Y-90814018D01*
X125288573Y-90826372D01*
X125285772Y-90840421D01*
X125283027Y-90856372D01*
X125280166Y-90874431D01*
X125273579Y-90916351D01*
X125270462Y-90933311D01*
X125267158Y-90947853D01*
X125265365Y-90954275D01*
X125263441Y-90960162D01*
X125261356Y-90965538D01*
X125259082Y-90970425D01*
X125256592Y-90974847D01*
X125253856Y-90978828D01*
X125250847Y-90982389D01*
X125247535Y-90985556D01*
X125243892Y-90988350D01*
X125239890Y-90990796D01*
X125235500Y-90992916D01*
X125230695Y-90994734D01*
X125225445Y-90996272D01*
X125219722Y-90997555D01*
X125213498Y-90998605D01*
X125206745Y-90999447D01*
X125191535Y-91000594D01*
X125173865Y-91001183D01*
X125130236Y-91001431D01*
X125010291Y-91001431D01*
X124990889Y-90913236D01*
X124987016Y-90894709D01*
X124983392Y-90876470D01*
X124980099Y-90858976D01*
X124977219Y-90842681D01*
X124974835Y-90828039D01*
X124973029Y-90815506D01*
X124971886Y-90805536D01*
X124971588Y-90801654D01*
X124971486Y-90798584D01*
X124971399Y-90797225D01*
X124971140Y-90795798D01*
X124970714Y-90794305D01*
X124970125Y-90792751D01*
X124968475Y-90789472D01*
X124966222Y-90785988D01*
X124963401Y-90782329D01*
X124960045Y-90778523D01*
X124956188Y-90774598D01*
X124951863Y-90770582D01*
X124947104Y-90766504D01*
X124941944Y-90762393D01*
X124936418Y-90758277D01*
X124930558Y-90754183D01*
X124924399Y-90750142D01*
X124917973Y-90746180D01*
X124911315Y-90742327D01*
X124904458Y-90738611D01*
X124882267Y-90727763D01*
X124862449Y-90718382D01*
X124844687Y-90710489D01*
X124828666Y-90704105D01*
X124821210Y-90701486D01*
X124814072Y-90699251D01*
X124807211Y-90697404D01*
X124800589Y-90695947D01*
X124794165Y-90694883D01*
X124787901Y-90694215D01*
X124781757Y-90693944D01*
X124775694Y-90694073D01*
X124769673Y-90694606D01*
X124763653Y-90695544D01*
X124757596Y-90696891D01*
X124751461Y-90698648D01*
X124745211Y-90700819D01*
X124738805Y-90703406D01*
X124732204Y-90706411D01*
X124725368Y-90709838D01*
X124710836Y-90717965D01*
X124694893Y-90727808D01*
X124677224Y-90739387D01*
X124657514Y-90752723D01*
X124553444Y-90823278D01*
X124465250Y-90731556D01*
X124377055Y-90639834D01*
X124451139Y-90535764D01*
X124525222Y-90431695D01*
X124488180Y-90336445D01*
X124484134Y-90326925D01*
X124479954Y-90317583D01*
X124475670Y-90308474D01*
X124471313Y-90299651D01*
X124466916Y-90291170D01*
X124462508Y-90283084D01*
X124458120Y-90275447D01*
X124453785Y-90268315D01*
X124449532Y-90261740D01*
X124445392Y-90255778D01*
X124441398Y-90250482D01*
X124437579Y-90245908D01*
X124433967Y-90242108D01*
X124432248Y-90240516D01*
X124430592Y-90239138D01*
X124429004Y-90237981D01*
X124427486Y-90237052D01*
X124426044Y-90236357D01*
X124424680Y-90235903D01*
X124417415Y-90233605D01*
X124406573Y-90230749D01*
X124376394Y-90223776D01*
X124338608Y-90215811D01*
X124297680Y-90207681D01*
X124197139Y-90188278D01*
X124191847Y-90070098D01*
X124190636Y-90045510D01*
X124189680Y-90023875D01*
X124189029Y-90005005D01*
X124188733Y-89988711D01*
X124188732Y-89981471D01*
X124188839Y-89974804D01*
X124189059Y-89968687D01*
X124189398Y-89963096D01*
X124189862Y-89958008D01*
X124190457Y-89953399D01*
X124191191Y-89949245D01*
X124192068Y-89945523D01*
X124193094Y-89942209D01*
X124194277Y-89939280D01*
X124195622Y-89936712D01*
X124197135Y-89934481D01*
X124198823Y-89932565D01*
X124200691Y-89930939D01*
X124202746Y-89929579D01*
X124204994Y-89928463D01*
X124207440Y-89927566D01*
X124210092Y-89926866D01*
X124212955Y-89926337D01*
X124216035Y-89925958D01*
X124219339Y-89925704D01*
X124222872Y-89925552D01*
X124230653Y-89925459D01*
X124239503Y-89925059D01*
X124251185Y-89923915D01*
X124265224Y-89922110D01*
X124281144Y-89919726D01*
X124298469Y-89916846D01*
X124316725Y-89913552D01*
X124335435Y-89909928D01*
X124354125Y-89906056D01*
X124369135Y-89902854D01*
X124382512Y-89899786D01*
X124394401Y-89896739D01*
X124404947Y-89893598D01*
X124414293Y-89890252D01*
X124418562Y-89888465D01*
X124422586Y-89886584D01*
X124426382Y-89884595D01*
X124429969Y-89882483D01*
X124433364Y-89880234D01*
X124436587Y-89877834D01*
X124439654Y-89875268D01*
X124442585Y-89872523D01*
X124445396Y-89869584D01*
X124448107Y-89866437D01*
X124450735Y-89863068D01*
X124453299Y-89859463D01*
X124455816Y-89855607D01*
X124458304Y-89851486D01*
X124463269Y-89842392D01*
X124468337Y-89832069D01*
X124473652Y-89820402D01*
X124479361Y-89807278D01*
X124485865Y-89791227D01*
X124492039Y-89775115D01*
X124497716Y-89759374D01*
X124502732Y-89744440D01*
X124506922Y-89730745D01*
X124508655Y-89724499D01*
X124510119Y-89718725D01*
X124511294Y-89713479D01*
X124512158Y-89708814D01*
X124512692Y-89704784D01*
X124512875Y-89701445D01*
X124512509Y-89698314D01*
X124511435Y-89694255D01*
X124509689Y-89689333D01*
X124507308Y-89683613D01*
X124500783Y-89670036D01*
X124492149Y-89654040D01*
X124481697Y-89636143D01*
X124469715Y-89616861D01*
X124456492Y-89596710D01*
X124442319Y-89576209D01*
X124371764Y-89477431D01*
X124454666Y-89392764D01*
X124471716Y-89375959D01*
X124488208Y-89360187D01*
X124503749Y-89345821D01*
X124511040Y-89339282D01*
X124517946Y-89333233D01*
X124524418Y-89327722D01*
X124530407Y-89322794D01*
X124535863Y-89318498D01*
X124540739Y-89314878D01*
X124544984Y-89311981D01*
X124548549Y-89309855D01*
X124550061Y-89309095D01*
X124551385Y-89308545D01*
X124552515Y-89308210D01*
X124553444Y-89308098D01*
X124555565Y-89308464D01*
X124558584Y-89309538D01*
X124562451Y-89311284D01*
X124567114Y-89313665D01*
X124578621Y-89320190D01*
X124592691Y-89328823D01*
X124608910Y-89339276D01*
X124626866Y-89351258D01*
X124646145Y-89364480D01*
X124666333Y-89378653D01*
X124698555Y-89401308D01*
X124711892Y-89410372D01*
X124723687Y-89418010D01*
X124729078Y-89421313D01*
X124734169Y-89424284D01*
X124738990Y-89426928D01*
X124743569Y-89429255D01*
X124747934Y-89431271D01*
X124752116Y-89432986D01*
X124756141Y-89434406D01*
X124760040Y-89435539D01*
X124763840Y-89436393D01*
X124767571Y-89436975D01*
X124771261Y-89437294D01*
X124774940Y-89437358D01*
X124778635Y-89437173D01*
X124782376Y-89436748D01*
X124786191Y-89436090D01*
X124790109Y-89435208D01*
X124794158Y-89434109D01*
X124798369Y-89432800D01*
X124807386Y-89429586D01*
X124817390Y-89425627D01*
X124828611Y-89420987D01*
X124845621Y-89413733D01*
X124861591Y-89406531D01*
X124876511Y-89399391D01*
X124890375Y-89392323D01*
X124903174Y-89385338D01*
X124914900Y-89378446D01*
X124925547Y-89371658D01*
X124930463Y-89368306D01*
X124935106Y-89364983D01*
X124939475Y-89361691D01*
X124943569Y-89358432D01*
X124947387Y-89355206D01*
X124950929Y-89352016D01*
X124954193Y-89348861D01*
X124957178Y-89345744D01*
X124959883Y-89342665D01*
X124962308Y-89339627D01*
X124964451Y-89336630D01*
X124966312Y-89333676D01*
X124967889Y-89330765D01*
X124969181Y-89327900D01*
X124970188Y-89325081D01*
X124970908Y-89322310D01*
X124971341Y-89319589D01*
X124971486Y-89316917D01*
X124971886Y-89309965D01*
X124973029Y-89299995D01*
X124974835Y-89287462D01*
X124977219Y-89272820D01*
X124983392Y-89239030D01*
X124990889Y-89202264D01*
X125010291Y-89114070D01*
X125130236Y-89114070D01*
X125174375Y-89114142D01*
D11*
X150203019Y-86796619D02*
X150203019Y-87796619D01*
X150583971Y-87796619D02*
X151203019Y-87796619D01*
X150869685Y-87415666D01*
X151012542Y-87415666D01*
X151107780Y-87368047D01*
X151155400Y-87320428D01*
X151203019Y-87225190D01*
X151203019Y-86987095D01*
X151155400Y-86891857D01*
X151107780Y-86844238D01*
X151012542Y-86796619D01*
X150726828Y-86796619D01*
X150631590Y-86844238D01*
X150583971Y-86891857D01*
X152107780Y-87796619D02*
X151631590Y-87796619D01*
X151583971Y-87320428D01*
X151631590Y-87368047D01*
X151726828Y-87415666D01*
X151964923Y-87415666D01*
X152060161Y-87368047D01*
X152107780Y-87320428D01*
X152155400Y-87225190D01*
X152155400Y-86987095D01*
X152107780Y-86891857D01*
X152060161Y-86844238D01*
X151964923Y-86796619D01*
X151726828Y-86796619D01*
X151631590Y-86844238D01*
X151583971Y-86891857D01*
X158915076Y-96591380D02*
X159486504Y-96591380D01*
X159200790Y-96591380D02*
X159200790Y-95591380D01*
X159296028Y-95734238D01*
X159391266Y-95829476D01*
X159486504Y-95877095D01*
X158057933Y-95924714D02*
X158057933Y-96591380D01*
X158296028Y-95543761D02*
X158534123Y-96258047D01*
X157915076Y-96258047D01*
X147663019Y-86796619D02*
X147663019Y-87796619D01*
X148043971Y-87796619D02*
X148663019Y-87796619D01*
X148329685Y-87415666D01*
X148472542Y-87415666D01*
X148567780Y-87368047D01*
X148615400Y-87320428D01*
X148663019Y-87225190D01*
X148663019Y-86987095D01*
X148615400Y-86891857D01*
X148567780Y-86844238D01*
X148472542Y-86796619D01*
X148186828Y-86796619D01*
X148091590Y-86844238D01*
X148043971Y-86891857D01*
X149520161Y-87796619D02*
X149329685Y-87796619D01*
X149234447Y-87749000D01*
X149186828Y-87701380D01*
X149091590Y-87558523D01*
X149043971Y-87368047D01*
X149043971Y-86987095D01*
X149091590Y-86891857D01*
X149139209Y-86844238D01*
X149234447Y-86796619D01*
X149424923Y-86796619D01*
X149520161Y-86844238D01*
X149567780Y-86891857D01*
X149615400Y-86987095D01*
X149615400Y-87225190D01*
X149567780Y-87320428D01*
X149520161Y-87368047D01*
X149424923Y-87415666D01*
X149234447Y-87415666D01*
X149139209Y-87368047D01*
X149091590Y-87320428D01*
X149043971Y-87225190D01*
X155425876Y-87796619D02*
X156044923Y-87796619D01*
X155711590Y-87415666D01*
X155854447Y-87415666D01*
X155949685Y-87368047D01*
X155997304Y-87320428D01*
X156044923Y-87225190D01*
X156044923Y-86987095D01*
X155997304Y-86891857D01*
X155949685Y-86844238D01*
X155854447Y-86796619D01*
X155568733Y-86796619D01*
X155473495Y-86844238D01*
X155425876Y-86891857D01*
X156378257Y-87796619D02*
X156997304Y-87796619D01*
X156663971Y-87415666D01*
X156806828Y-87415666D01*
X156902066Y-87368047D01*
X156949685Y-87320428D01*
X156997304Y-87225190D01*
X156997304Y-86987095D01*
X156949685Y-86891857D01*
X156902066Y-86844238D01*
X156806828Y-86796619D01*
X156521114Y-86796619D01*
X156425876Y-86844238D01*
X156378257Y-86891857D01*
X143294123Y-95924714D02*
X143294123Y-96591380D01*
X143532219Y-95543761D02*
X143770314Y-96258047D01*
X143151266Y-96258047D01*
X131148104Y-87749000D02*
X131052866Y-87796619D01*
X130910009Y-87796619D01*
X130767152Y-87749000D01*
X130671914Y-87653761D01*
X130624295Y-87558523D01*
X130576676Y-87368047D01*
X130576676Y-87225190D01*
X130624295Y-87034714D01*
X130671914Y-86939476D01*
X130767152Y-86844238D01*
X130910009Y-86796619D01*
X131005247Y-86796619D01*
X131148104Y-86844238D01*
X131195723Y-86891857D01*
X131195723Y-87225190D01*
X131005247Y-87225190D01*
X128033495Y-95639000D02*
X128128733Y-95591380D01*
X128271590Y-95591380D01*
X128414447Y-95639000D01*
X128509685Y-95734238D01*
X128557304Y-95829476D01*
X128604923Y-96019952D01*
X128604923Y-96162809D01*
X128557304Y-96353285D01*
X128509685Y-96448523D01*
X128414447Y-96543761D01*
X128271590Y-96591380D01*
X128176352Y-96591380D01*
X128033495Y-96543761D01*
X127985876Y-96496142D01*
X127985876Y-96162809D01*
X128176352Y-96162809D01*
X160553495Y-87701380D02*
X160601114Y-87749000D01*
X160696352Y-87796619D01*
X160934447Y-87796619D01*
X161029685Y-87749000D01*
X161077304Y-87701380D01*
X161124923Y-87606142D01*
X161124923Y-87510904D01*
X161077304Y-87368047D01*
X160505876Y-86796619D01*
X161124923Y-86796619D01*
X161458257Y-87796619D02*
X162124923Y-87796619D01*
X161696352Y-86796619D01*
X131168733Y-95591380D02*
X130835400Y-96591380D01*
X130502066Y-95591380D01*
D12*
X125496580Y-92256028D02*
X125496580Y-91684600D01*
X125496580Y-91970314D02*
X124496580Y-91970314D01*
X124639438Y-91875076D01*
X124734676Y-91779838D01*
X124782295Y-91684600D01*
X125401342Y-92684600D02*
X125448961Y-92732219D01*
X125496580Y-92684600D01*
X125448961Y-92636980D01*
X125401342Y-92684600D01*
X125496580Y-92684600D01*
X124496580Y-93351266D02*
X124496580Y-93446504D01*
X124544200Y-93541742D01*
X124591819Y-93589361D01*
X124687057Y-93636980D01*
X124877533Y-93684600D01*
X125115628Y-93684600D01*
X125306104Y-93636980D01*
X125401342Y-93589361D01*
X125448961Y-93541742D01*
X125496580Y-93446504D01*
X125496580Y-93351266D01*
X125448961Y-93256028D01*
X125401342Y-93208409D01*
X125306104Y-93160790D01*
X125115628Y-93113171D01*
X124877533Y-93113171D01*
X124687057Y-93160790D01*
X124591819Y-93208409D01*
X124544200Y-93256028D01*
X124496580Y-93351266D01*
D11*
X163093495Y-87701380D02*
X163141114Y-87749000D01*
X163236352Y-87796619D01*
X163474447Y-87796619D01*
X163569685Y-87749000D01*
X163617304Y-87701380D01*
X163664923Y-87606142D01*
X163664923Y-87510904D01*
X163617304Y-87368047D01*
X163045876Y-86796619D01*
X163664923Y-86796619D01*
X164522066Y-87796619D02*
X164331590Y-87796619D01*
X164236352Y-87749000D01*
X164188733Y-87701380D01*
X164093495Y-87558523D01*
X164045876Y-87368047D01*
X164045876Y-86987095D01*
X164093495Y-86891857D01*
X164141114Y-86844238D01*
X164236352Y-86796619D01*
X164426828Y-86796619D01*
X164522066Y-86844238D01*
X164569685Y-86891857D01*
X164617304Y-86987095D01*
X164617304Y-87225190D01*
X164569685Y-87320428D01*
X164522066Y-87368047D01*
X164426828Y-87415666D01*
X164236352Y-87415666D01*
X164141114Y-87368047D01*
X164093495Y-87320428D01*
X164045876Y-87225190D01*
D13*
X156793971Y-89529457D02*
X156293971Y-89529457D01*
X156079685Y-90315171D02*
X156793971Y-90315171D01*
X156793971Y-88815171D01*
X156079685Y-88815171D01*
X155508257Y-90243742D02*
X155293971Y-90315171D01*
X154936828Y-90315171D01*
X154793971Y-90243742D01*
X154722542Y-90172314D01*
X154651114Y-90029457D01*
X154651114Y-89886600D01*
X154722542Y-89743742D01*
X154793971Y-89672314D01*
X154936828Y-89600885D01*
X155222542Y-89529457D01*
X155365400Y-89458028D01*
X155436828Y-89386600D01*
X155508257Y-89243742D01*
X155508257Y-89100885D01*
X155436828Y-88958028D01*
X155365400Y-88886600D01*
X155222542Y-88815171D01*
X154865400Y-88815171D01*
X154651114Y-88886600D01*
X154008257Y-90315171D02*
X154008257Y-88815171D01*
X153436828Y-88815171D01*
X153293971Y-88886600D01*
X153222542Y-88958028D01*
X153151114Y-89100885D01*
X153151114Y-89315171D01*
X153222542Y-89458028D01*
X153293971Y-89529457D01*
X153436828Y-89600885D01*
X154008257Y-89600885D01*
X152651114Y-88815171D02*
X151722542Y-88815171D01*
X152222542Y-89386600D01*
X152008257Y-89386600D01*
X151865400Y-89458028D01*
X151793971Y-89529457D01*
X151722542Y-89672314D01*
X151722542Y-90029457D01*
X151793971Y-90172314D01*
X151865400Y-90243742D01*
X152008257Y-90315171D01*
X152436828Y-90315171D01*
X152579685Y-90243742D01*
X152651114Y-90172314D01*
X151151114Y-88958028D02*
X151079685Y-88886600D01*
X150936828Y-88815171D01*
X150579685Y-88815171D01*
X150436828Y-88886600D01*
X150365400Y-88958028D01*
X150293971Y-89100885D01*
X150293971Y-89243742D01*
X150365400Y-89458028D01*
X151222542Y-90315171D01*
X150293971Y-90315171D01*
X148508257Y-90315171D02*
X148508257Y-88815171D01*
X147936828Y-88815171D01*
X147793971Y-88886600D01*
X147722542Y-88958028D01*
X147651114Y-89100885D01*
X147651114Y-89315171D01*
X147722542Y-89458028D01*
X147793971Y-89529457D01*
X147936828Y-89600885D01*
X148508257Y-89600885D01*
X147008257Y-90315171D02*
X147008257Y-89315171D01*
X147008257Y-88815171D02*
X147079685Y-88886600D01*
X147008257Y-88958028D01*
X146936828Y-88886600D01*
X147008257Y-88815171D01*
X147008257Y-88958028D01*
X145651114Y-90243742D02*
X145793971Y-90315171D01*
X146079685Y-90315171D01*
X146222542Y-90243742D01*
X146293971Y-90172314D01*
X146365400Y-90029457D01*
X146365400Y-89600885D01*
X146293971Y-89458028D01*
X146222542Y-89386600D01*
X146079685Y-89315171D01*
X145793971Y-89315171D01*
X145651114Y-89386600D01*
X144793971Y-90315171D02*
X144936828Y-90243742D01*
X145008257Y-90172314D01*
X145079685Y-90029457D01*
X145079685Y-89600885D01*
X145008257Y-89458028D01*
X144936828Y-89386600D01*
X144793971Y-89315171D01*
X144579685Y-89315171D01*
X144436828Y-89386600D01*
X144365400Y-89458028D01*
X144293971Y-89600885D01*
X144293971Y-90029457D01*
X144365400Y-90172314D01*
X144436828Y-90243742D01*
X144579685Y-90315171D01*
X144793971Y-90315171D01*
X143651114Y-90315171D02*
X143651114Y-88815171D01*
X143293971Y-88815171D01*
X143079685Y-88886600D01*
X142936828Y-89029457D01*
X142865400Y-89172314D01*
X142793971Y-89458028D01*
X142793971Y-89672314D01*
X142865400Y-89958028D01*
X142936828Y-90100885D01*
X143079685Y-90243742D01*
X143293971Y-90315171D01*
X143651114Y-90315171D01*
X141579685Y-90243742D02*
X141722542Y-90315171D01*
X142008257Y-90315171D01*
X142151114Y-90243742D01*
X142222542Y-90100885D01*
X142222542Y-89529457D01*
X142151114Y-89386600D01*
X142008257Y-89315171D01*
X141722542Y-89315171D01*
X141579685Y-89386600D01*
X141508257Y-89529457D01*
X141508257Y-89672314D01*
X142222542Y-89815171D01*
X141008257Y-89315171D02*
X140651114Y-90315171D01*
X140293971Y-89315171D01*
D11*
X136796352Y-96591380D02*
X136796352Y-95591380D01*
X136558257Y-95591380D01*
X136415400Y-95639000D01*
X136320161Y-95734238D01*
X136272542Y-95829476D01*
X136224923Y-96019952D01*
X136224923Y-96162809D01*
X136272542Y-96353285D01*
X136320161Y-96448523D01*
X136415400Y-96543761D01*
X136558257Y-96591380D01*
X136796352Y-96591380D01*
X135796352Y-96210428D02*
X135034447Y-96210428D01*
X127392180Y-86772904D02*
X127392180Y-87391952D01*
X127773133Y-87058619D01*
X127773133Y-87201476D01*
X127820752Y-87296714D01*
X127868371Y-87344333D01*
X127963609Y-87391952D01*
X128201704Y-87391952D01*
X128296942Y-87344333D01*
X128344561Y-87296714D01*
X128392180Y-87201476D01*
X128392180Y-86915761D01*
X128344561Y-86820523D01*
X128296942Y-86772904D01*
X127392180Y-87677666D02*
X128392180Y-88011000D01*
X127392180Y-88344333D01*
X127392180Y-88582428D02*
X127392180Y-89201476D01*
X127773133Y-88868142D01*
X127773133Y-89011000D01*
X127820752Y-89106238D01*
X127868371Y-89153857D01*
X127963609Y-89201476D01*
X128201704Y-89201476D01*
X128296942Y-89153857D01*
X128344561Y-89106238D01*
X128392180Y-89011000D01*
X128392180Y-88725285D01*
X128344561Y-88630047D01*
X128296942Y-88582428D01*
X152844619Y-86796619D02*
X152844619Y-87796619D01*
X153225571Y-87796619D02*
X153844619Y-87796619D01*
X153511285Y-87415666D01*
X153654142Y-87415666D01*
X153749380Y-87368047D01*
X153797000Y-87320428D01*
X153844619Y-87225190D01*
X153844619Y-86987095D01*
X153797000Y-86891857D01*
X153749380Y-86844238D01*
X153654142Y-86796619D01*
X153368428Y-86796619D01*
X153273190Y-86844238D01*
X153225571Y-86891857D01*
X154701761Y-87463285D02*
X154701761Y-86796619D01*
X154463666Y-87844238D02*
X154225571Y-87129952D01*
X154844619Y-87129952D01*
X167106504Y-95686619D02*
X167058885Y-95639000D01*
X166963647Y-95591380D01*
X166725552Y-95591380D01*
X166630314Y-95639000D01*
X166582695Y-95686619D01*
X166535076Y-95781857D01*
X166535076Y-95877095D01*
X166582695Y-96019952D01*
X167154123Y-96591380D01*
X166535076Y-96591380D01*
X165916028Y-95591380D02*
X165820790Y-95591380D01*
X165725552Y-95639000D01*
X165677933Y-95686619D01*
X165630314Y-95781857D01*
X165582695Y-95972333D01*
X165582695Y-96210428D01*
X165630314Y-96400904D01*
X165677933Y-96496142D01*
X165725552Y-96543761D01*
X165820790Y-96591380D01*
X165916028Y-96591380D01*
X166011266Y-96543761D01*
X166058885Y-96496142D01*
X166106504Y-96400904D01*
X166154123Y-96210428D01*
X166154123Y-95972333D01*
X166106504Y-95781857D01*
X166058885Y-95686619D01*
X166011266Y-95639000D01*
X165916028Y-95591380D01*
X142583019Y-86796619D02*
X142583019Y-87796619D01*
X142963971Y-87796619D02*
X143583019Y-87796619D01*
X143249685Y-87415666D01*
X143392542Y-87415666D01*
X143487780Y-87368047D01*
X143535400Y-87320428D01*
X143583019Y-87225190D01*
X143583019Y-86987095D01*
X143535400Y-86891857D01*
X143487780Y-86844238D01*
X143392542Y-86796619D01*
X143106828Y-86796619D01*
X143011590Y-86844238D01*
X142963971Y-86891857D01*
X144154447Y-87368047D02*
X144059209Y-87415666D01*
X144011590Y-87463285D01*
X143963971Y-87558523D01*
X143963971Y-87606142D01*
X144011590Y-87701380D01*
X144059209Y-87749000D01*
X144154447Y-87796619D01*
X144344923Y-87796619D01*
X144440161Y-87749000D01*
X144487780Y-87701380D01*
X144535400Y-87606142D01*
X144535400Y-87558523D01*
X144487780Y-87463285D01*
X144440161Y-87415666D01*
X144344923Y-87368047D01*
X144154447Y-87368047D01*
X144059209Y-87320428D01*
X144011590Y-87272809D01*
X143963971Y-87177571D01*
X143963971Y-86987095D01*
X144011590Y-86891857D01*
X144059209Y-86844238D01*
X144154447Y-86796619D01*
X144344923Y-86796619D01*
X144440161Y-86844238D01*
X144487780Y-86891857D01*
X144535400Y-86987095D01*
X144535400Y-87177571D01*
X144487780Y-87272809D01*
X144440161Y-87320428D01*
X144344923Y-87368047D01*
X169697304Y-95686619D02*
X169649685Y-95639000D01*
X169554447Y-95591380D01*
X169316352Y-95591380D01*
X169221114Y-95639000D01*
X169173495Y-95686619D01*
X169125876Y-95781857D01*
X169125876Y-95877095D01*
X169173495Y-96019952D01*
X169744923Y-96591380D01*
X169125876Y-96591380D01*
X168173495Y-96591380D02*
X168744923Y-96591380D01*
X168459209Y-96591380D02*
X168459209Y-95591380D01*
X168554447Y-95734238D01*
X168649685Y-95829476D01*
X168744923Y-95877095D01*
X145123019Y-86796619D02*
X145123019Y-87796619D01*
X145503971Y-87796619D02*
X146123019Y-87796619D01*
X145789685Y-87415666D01*
X145932542Y-87415666D01*
X146027780Y-87368047D01*
X146075400Y-87320428D01*
X146123019Y-87225190D01*
X146123019Y-86987095D01*
X146075400Y-86891857D01*
X146027780Y-86844238D01*
X145932542Y-86796619D01*
X145646828Y-86796619D01*
X145551590Y-86844238D01*
X145503971Y-86891857D01*
X146456352Y-87796619D02*
X147123019Y-87796619D01*
X146694447Y-86796619D01*
X168173495Y-87650580D02*
X168221114Y-87698200D01*
X168316352Y-87745819D01*
X168554447Y-87745819D01*
X168649685Y-87698200D01*
X168697304Y-87650580D01*
X168744923Y-87555342D01*
X168744923Y-87460104D01*
X168697304Y-87317247D01*
X168125876Y-86745819D01*
X168744923Y-86745819D01*
X169125876Y-87650580D02*
X169173495Y-87698200D01*
X169268733Y-87745819D01*
X169506828Y-87745819D01*
X169602066Y-87698200D01*
X169649685Y-87650580D01*
X169697304Y-87555342D01*
X169697304Y-87460104D01*
X169649685Y-87317247D01*
X169078257Y-86745819D01*
X169697304Y-86745819D01*
X140043019Y-86796619D02*
X140043019Y-87796619D01*
X140423971Y-87796619D02*
X141043019Y-87796619D01*
X140709685Y-87415666D01*
X140852542Y-87415666D01*
X140947780Y-87368047D01*
X140995400Y-87320428D01*
X141043019Y-87225190D01*
X141043019Y-86987095D01*
X140995400Y-86891857D01*
X140947780Y-86844238D01*
X140852542Y-86796619D01*
X140566828Y-86796619D01*
X140471590Y-86844238D01*
X140423971Y-86891857D01*
X141519209Y-86796619D02*
X141709685Y-86796619D01*
X141804923Y-86844238D01*
X141852542Y-86891857D01*
X141947780Y-87034714D01*
X141995400Y-87225190D01*
X141995400Y-87606142D01*
X141947780Y-87701380D01*
X141900161Y-87749000D01*
X141804923Y-87796619D01*
X141614447Y-87796619D01*
X141519209Y-87749000D01*
X141471590Y-87701380D01*
X141423971Y-87606142D01*
X141423971Y-87368047D01*
X141471590Y-87272809D01*
X141519209Y-87225190D01*
X141614447Y-87177571D01*
X141804923Y-87177571D01*
X141900161Y-87225190D01*
X141947780Y-87272809D01*
X141995400Y-87368047D01*
X156375076Y-96591380D02*
X156946504Y-96591380D01*
X156660790Y-96591380D02*
X156660790Y-95591380D01*
X156756028Y-95734238D01*
X156851266Y-95829476D01*
X156946504Y-95877095D01*
X156041742Y-95591380D02*
X155422695Y-95591380D01*
X155756028Y-95972333D01*
X155613171Y-95972333D01*
X155517933Y-96019952D01*
X155470314Y-96067571D01*
X155422695Y-96162809D01*
X155422695Y-96400904D01*
X155470314Y-96496142D01*
X155517933Y-96543761D01*
X155613171Y-96591380D01*
X155898885Y-96591380D01*
X155994123Y-96543761D01*
X156041742Y-96496142D01*
X157965876Y-87796619D02*
X158584923Y-87796619D01*
X158251590Y-87415666D01*
X158394447Y-87415666D01*
X158489685Y-87368047D01*
X158537304Y-87320428D01*
X158584923Y-87225190D01*
X158584923Y-86987095D01*
X158537304Y-86891857D01*
X158489685Y-86844238D01*
X158394447Y-86796619D01*
X158108733Y-86796619D01*
X158013495Y-86844238D01*
X157965876Y-86891857D01*
X158965876Y-87701380D02*
X159013495Y-87749000D01*
X159108733Y-87796619D01*
X159346828Y-87796619D01*
X159442066Y-87749000D01*
X159489685Y-87701380D01*
X159537304Y-87606142D01*
X159537304Y-87510904D01*
X159489685Y-87368047D01*
X158918257Y-86796619D01*
X159537304Y-86796619D01*
X165633495Y-87701380D02*
X165681114Y-87749000D01*
X165776352Y-87796619D01*
X166014447Y-87796619D01*
X166109685Y-87749000D01*
X166157304Y-87701380D01*
X166204923Y-87606142D01*
X166204923Y-87510904D01*
X166157304Y-87368047D01*
X165585876Y-86796619D01*
X166204923Y-86796619D01*
X167109685Y-87796619D02*
X166633495Y-87796619D01*
X166585876Y-87320428D01*
X166633495Y-87368047D01*
X166728733Y-87415666D01*
X166966828Y-87415666D01*
X167062066Y-87368047D01*
X167109685Y-87320428D01*
X167157304Y-87225190D01*
X167157304Y-86987095D01*
X167109685Y-86891857D01*
X167062066Y-86844238D01*
X166966828Y-86796619D01*
X166728733Y-86796619D01*
X166633495Y-86844238D01*
X166585876Y-86891857D01*
X135748733Y-86796619D02*
X135415400Y-87272809D01*
X135177304Y-86796619D02*
X135177304Y-87796619D01*
X135558257Y-87796619D01*
X135653495Y-87749000D01*
X135701114Y-87701380D01*
X135748733Y-87606142D01*
X135748733Y-87463285D01*
X135701114Y-87368047D01*
X135653495Y-87320428D01*
X135558257Y-87272809D01*
X135177304Y-87272809D01*
X136082066Y-87796619D02*
X136748733Y-86796619D01*
X136748733Y-87796619D02*
X136082066Y-86796619D01*
X141281114Y-95686619D02*
X141233495Y-95639000D01*
X141138257Y-95591380D01*
X140900161Y-95591380D01*
X140804923Y-95639000D01*
X140757304Y-95686619D01*
X140709685Y-95781857D01*
X140709685Y-95877095D01*
X140757304Y-96019952D01*
X141328733Y-96591380D01*
X140709685Y-96591380D01*
X134205552Y-96591380D02*
X134205552Y-95591380D01*
X133967457Y-95591380D01*
X133824600Y-95639000D01*
X133729361Y-95734238D01*
X133681742Y-95829476D01*
X133634123Y-96019952D01*
X133634123Y-96162809D01*
X133681742Y-96353285D01*
X133729361Y-96448523D01*
X133824600Y-96543761D01*
X133967457Y-96591380D01*
X134205552Y-96591380D01*
X133205552Y-96210428D02*
X132443647Y-96210428D01*
X132824600Y-96591380D02*
X132824600Y-95829476D01*
X137717304Y-87320428D02*
X138050638Y-87320428D01*
X138193495Y-86796619D02*
X137717304Y-86796619D01*
X137717304Y-87796619D01*
X138193495Y-87796619D01*
X138622066Y-86796619D02*
X138622066Y-87796619D01*
X139193495Y-86796619D01*
X139193495Y-87796619D01*
X161505876Y-96591380D02*
X162077304Y-96591380D01*
X161791590Y-96591380D02*
X161791590Y-95591380D01*
X161886828Y-95734238D01*
X161982066Y-95829476D01*
X162077304Y-95877095D01*
X160601114Y-95591380D02*
X161077304Y-95591380D01*
X161124923Y-96067571D01*
X161077304Y-96019952D01*
X160982066Y-95972333D01*
X160743971Y-95972333D01*
X160648733Y-96019952D01*
X160601114Y-96067571D01*
X160553495Y-96162809D01*
X160553495Y-96400904D01*
X160601114Y-96496142D01*
X160648733Y-96543761D01*
X160743971Y-96591380D01*
X160982066Y-96591380D01*
X161077304Y-96543761D01*
X161124923Y-96496142D01*
X138452219Y-95591380D02*
X138356980Y-95591380D01*
X138261742Y-95639000D01*
X138214123Y-95686619D01*
X138166504Y-95781857D01*
X138118885Y-95972333D01*
X138118885Y-96210428D01*
X138166504Y-96400904D01*
X138214123Y-96496142D01*
X138261742Y-96543761D01*
X138356980Y-96591380D01*
X138452219Y-96591380D01*
X138547457Y-96543761D01*
X138595076Y-96496142D01*
X138642695Y-96400904D01*
X138690314Y-96210428D01*
X138690314Y-95972333D01*
X138642695Y-95781857D01*
X138595076Y-95686619D01*
X138547457Y-95639000D01*
X138452219Y-95591380D01*
X164045876Y-96591380D02*
X164617304Y-96591380D01*
X164331590Y-96591380D02*
X164331590Y-95591380D01*
X164426828Y-95734238D01*
X164522066Y-95829476D01*
X164617304Y-95877095D01*
X163569685Y-96591380D02*
X163379209Y-96591380D01*
X163283971Y-96543761D01*
X163236352Y-96496142D01*
X163141114Y-96353285D01*
X163093495Y-96162809D01*
X163093495Y-95781857D01*
X163141114Y-95686619D01*
X163188733Y-95639000D01*
X163283971Y-95591380D01*
X163474447Y-95591380D01*
X163569685Y-95639000D01*
X163617304Y-95686619D01*
X163664923Y-95781857D01*
X163664923Y-96019952D01*
X163617304Y-96115190D01*
X163569685Y-96162809D01*
X163474447Y-96210428D01*
X163283971Y-96210428D01*
X163188733Y-96162809D01*
X163141114Y-96115190D01*
X163093495Y-96019952D01*
X153835076Y-96591380D02*
X154406504Y-96591380D01*
X154120790Y-96591380D02*
X154120790Y-95591380D01*
X154216028Y-95734238D01*
X154311266Y-95829476D01*
X154406504Y-95877095D01*
X153454123Y-95686619D02*
X153406504Y-95639000D01*
X153311266Y-95591380D01*
X153073171Y-95591380D01*
X152977933Y-95639000D01*
X152930314Y-95686619D01*
X152882695Y-95781857D01*
X152882695Y-95877095D01*
X152930314Y-96019952D01*
X153501742Y-96591380D01*
X152882695Y-96591380D01*
X151199838Y-96019952D02*
X151295076Y-95972333D01*
X151342695Y-95924714D01*
X151390314Y-95829476D01*
X151390314Y-95781857D01*
X151342695Y-95686619D01*
X151295076Y-95639000D01*
X151199838Y-95591380D01*
X151009361Y-95591380D01*
X150914123Y-95639000D01*
X150866504Y-95686619D01*
X150818885Y-95781857D01*
X150818885Y-95829476D01*
X150866504Y-95924714D01*
X150914123Y-95972333D01*
X151009361Y-96019952D01*
X151199838Y-96019952D01*
X151295076Y-96067571D01*
X151342695Y-96115190D01*
X151390314Y-96210428D01*
X151390314Y-96400904D01*
X151342695Y-96496142D01*
X151295076Y-96543761D01*
X151199838Y-96591380D01*
X151009361Y-96591380D01*
X150914123Y-96543761D01*
X150866504Y-96496142D01*
X150818885Y-96400904D01*
X150818885Y-96210428D01*
X150866504Y-96115190D01*
X150914123Y-96067571D01*
X151009361Y-96019952D01*
X148897933Y-95591380D02*
X148231266Y-95591380D01*
X148659838Y-96591380D01*
X132613495Y-87796619D02*
X133184923Y-87796619D01*
X132899209Y-86796619D02*
X132899209Y-87796619D01*
X133423019Y-87796619D02*
X134089685Y-86796619D01*
X134089685Y-87796619D02*
X133423019Y-86796619D01*
X145837304Y-95591380D02*
X146313495Y-95591380D01*
X146361114Y-96067571D01*
X146313495Y-96019952D01*
X146218257Y-95972333D01*
X145980161Y-95972333D01*
X145884923Y-96019952D01*
X145837304Y-96067571D01*
X145789685Y-96162809D01*
X145789685Y-96400904D01*
X145837304Y-96496142D01*
X145884923Y-96543761D01*
X145980161Y-96591380D01*
X146218257Y-96591380D01*
X146313495Y-96543761D01*
X146361114Y-96496142D01*
G36*
X149417264Y-93995169D02*
G01*
X148976292Y-93995169D01*
X148976292Y-92760447D01*
X149417264Y-92760447D01*
X149417264Y-93995169D01*
G37*
D10*
X149417264Y-93995169D02*
X148976292Y-93995169D01*
X148976292Y-92760447D01*
X149417264Y-92760447D01*
X149417264Y-93995169D01*
G36*
X151163514Y-93995169D02*
G01*
X150687264Y-93995169D01*
X150687264Y-93474822D01*
X149796501Y-93474822D01*
X149791208Y-93275503D01*
X149785917Y-93077947D01*
X150687264Y-93077947D01*
X150687264Y-92689891D01*
X149699487Y-92689891D01*
X149699487Y-92285961D01*
X150431500Y-92284197D01*
X151163514Y-92284197D01*
X151163514Y-93995169D01*
G37*
X151163514Y-93995169D02*
X150687264Y-93995169D01*
X150687264Y-93474822D01*
X149796501Y-93474822D01*
X149791208Y-93275503D01*
X149785917Y-93077947D01*
X150687264Y-93077947D01*
X150687264Y-92689891D01*
X149699487Y-92689891D01*
X149699487Y-92285961D01*
X150431500Y-92284197D01*
X151163514Y-92284197D01*
X151163514Y-93995169D01*
G36*
X155178208Y-94707477D02*
G01*
X155105453Y-94747862D01*
X155029404Y-94784348D01*
X154950125Y-94816870D01*
X154867681Y-94845364D01*
X154735389Y-94885933D01*
X149143862Y-94885933D01*
X149011570Y-94845364D01*
X148928309Y-94816551D01*
X148847948Y-94783121D01*
X148770615Y-94745211D01*
X148696440Y-94702957D01*
X148625551Y-94656497D01*
X148558078Y-94605967D01*
X148494150Y-94551505D01*
X148433896Y-94493247D01*
X148377446Y-94431331D01*
X148324928Y-94365892D01*
X148276472Y-94297069D01*
X148232206Y-94224998D01*
X148192261Y-94149816D01*
X148156766Y-94071661D01*
X148125848Y-93990668D01*
X148099639Y-93906975D01*
X148094631Y-93888180D01*
X148090172Y-93869062D01*
X148086229Y-93848967D01*
X148082772Y-93827242D01*
X148079769Y-93803232D01*
X148077191Y-93776285D01*
X148075005Y-93745746D01*
X148073181Y-93710963D01*
X148071687Y-93671280D01*
X148070494Y-93626044D01*
X148068881Y-93516301D01*
X148068096Y-93376502D01*
X148067889Y-93201419D01*
X148067924Y-93192600D01*
X148323653Y-93192600D01*
X148324552Y-93387950D01*
X148327870Y-93545929D01*
X148334536Y-93673315D01*
X148339416Y-93727654D01*
X148345481Y-93776888D01*
X148352849Y-93821864D01*
X148361635Y-93863429D01*
X148371956Y-93902431D01*
X148383928Y-93939717D01*
X148397668Y-93976135D01*
X148413291Y-94012533D01*
X148450653Y-94088655D01*
X148467914Y-94119479D01*
X148487788Y-94150943D01*
X148510033Y-94182820D01*
X148534410Y-94214884D01*
X148560679Y-94246906D01*
X148588598Y-94278659D01*
X148617928Y-94309917D01*
X148648429Y-94340450D01*
X148679860Y-94370034D01*
X148711981Y-94398438D01*
X148744551Y-94425438D01*
X148777331Y-94450804D01*
X148810079Y-94474310D01*
X148842557Y-94495728D01*
X148874522Y-94514831D01*
X148905736Y-94531391D01*
X148948345Y-94552174D01*
X148987478Y-94570324D01*
X149006645Y-94578468D01*
X149026027Y-94586020D01*
X149045987Y-94593003D01*
X149066884Y-94599439D01*
X149089081Y-94605351D01*
X149112939Y-94610760D01*
X149138820Y-94615689D01*
X149167085Y-94620161D01*
X149198095Y-94624198D01*
X149232211Y-94627821D01*
X149269796Y-94631053D01*
X149311210Y-94633917D01*
X149356816Y-94636435D01*
X149406973Y-94638629D01*
X149522391Y-94642134D01*
X149660356Y-94644611D01*
X149823758Y-94646237D01*
X150015489Y-94647192D01*
X150238440Y-94647653D01*
X150789570Y-94647808D01*
X152295931Y-94647808D01*
X152174223Y-94527864D01*
X152148515Y-94502730D01*
X152124248Y-94478182D01*
X152101336Y-94454105D01*
X152079689Y-94430381D01*
X152059221Y-94406896D01*
X152039843Y-94383531D01*
X152021468Y-94360172D01*
X152004007Y-94336702D01*
X151987374Y-94313005D01*
X151971479Y-94288964D01*
X151956235Y-94264462D01*
X151941555Y-94239385D01*
X151927350Y-94213615D01*
X151913532Y-94187037D01*
X151900015Y-94159533D01*
X151886709Y-94130989D01*
X151868328Y-94089987D01*
X151852106Y-94052179D01*
X151837890Y-94016375D01*
X151830395Y-93995169D01*
X152433514Y-93995169D01*
X152874486Y-93995169D01*
X152874486Y-92760447D01*
X152433514Y-92760447D01*
X152433514Y-93995169D01*
X151830395Y-93995169D01*
X151825524Y-93981389D01*
X151814853Y-93946030D01*
X151805721Y-93909111D01*
X151797975Y-93869442D01*
X151791459Y-93825836D01*
X151786017Y-93777103D01*
X151781495Y-93722056D01*
X151777739Y-93659505D01*
X151774591Y-93588262D01*
X151771899Y-93507139D01*
X151769506Y-93414946D01*
X151765000Y-93192600D01*
X151756925Y-92839326D01*
X151752877Y-92725093D01*
X151748023Y-92641825D01*
X151741763Y-92581543D01*
X151733498Y-92536268D01*
X151722629Y-92498020D01*
X151708556Y-92458822D01*
X151690895Y-92416571D01*
X152398209Y-92416571D01*
X152398602Y-92427910D01*
X152399684Y-92439320D01*
X152401464Y-92450782D01*
X152403952Y-92462277D01*
X152407157Y-92473787D01*
X152411088Y-92485292D01*
X152415755Y-92496773D01*
X152421167Y-92508211D01*
X152427648Y-92519506D01*
X152435144Y-92530237D01*
X152443597Y-92540397D01*
X152452948Y-92549979D01*
X152463137Y-92558978D01*
X152474106Y-92567385D01*
X152485794Y-92575197D01*
X152498144Y-92582404D01*
X152511096Y-92589002D01*
X152524591Y-92594984D01*
X152538570Y-92600343D01*
X152552973Y-92605073D01*
X152567742Y-92609167D01*
X152582817Y-92612620D01*
X152598140Y-92615423D01*
X152613651Y-92617572D01*
X152629292Y-92619059D01*
X152645002Y-92619878D01*
X152660724Y-92620023D01*
X152676397Y-92619487D01*
X152691963Y-92618264D01*
X152707363Y-92616347D01*
X152722537Y-92613730D01*
X152737427Y-92610406D01*
X152751973Y-92606369D01*
X152766116Y-92601613D01*
X152779798Y-92596130D01*
X152792958Y-92589915D01*
X152805539Y-92582961D01*
X152817480Y-92575261D01*
X152828723Y-92566810D01*
X152839209Y-92557600D01*
X152850306Y-92546035D01*
X152860437Y-92533873D01*
X152869587Y-92521179D01*
X152877739Y-92508018D01*
X152884878Y-92494453D01*
X152890988Y-92480550D01*
X152896055Y-92466373D01*
X152900063Y-92451987D01*
X152902995Y-92437456D01*
X152904838Y-92422845D01*
X152905574Y-92408218D01*
X152905189Y-92393641D01*
X152903667Y-92379177D01*
X152900993Y-92364891D01*
X152899219Y-92357836D01*
X152897151Y-92350849D01*
X152894787Y-92343939D01*
X152892125Y-92337114D01*
X152887170Y-92325671D01*
X152882166Y-92315110D01*
X152877022Y-92305360D01*
X152871763Y-92296544D01*
X153098500Y-92296544D01*
X153098546Y-92302508D01*
X153100605Y-92316801D01*
X153110379Y-92368643D01*
X153118634Y-92408218D01*
X153127057Y-92448597D01*
X153149874Y-92553190D01*
X153210866Y-92822404D01*
X153287237Y-93148502D01*
X153484792Y-93986350D01*
X153707042Y-93991642D01*
X153855201Y-93995169D01*
X153929292Y-93996933D01*
X153950459Y-93903447D01*
X153989760Y-93711018D01*
X154026747Y-93517596D01*
X154059103Y-93335420D01*
X154084514Y-93176725D01*
X154116264Y-92966822D01*
X154163889Y-93238461D01*
X154202695Y-93448005D01*
X154246792Y-93668629D01*
X154286921Y-93855850D01*
X154302603Y-93923032D01*
X154313820Y-93965183D01*
X154314693Y-93967752D01*
X154315677Y-93970170D01*
X154316800Y-93972440D01*
X154318092Y-93974568D01*
X154319580Y-93976555D01*
X154320406Y-93977498D01*
X154321292Y-93978407D01*
X154322242Y-93979283D01*
X154323258Y-93980127D01*
X154324345Y-93980939D01*
X154325506Y-93981720D01*
X154326744Y-93982469D01*
X154328063Y-93983188D01*
X154329467Y-93983877D01*
X154330959Y-93984536D01*
X154334222Y-93985768D01*
X154337880Y-93986887D01*
X154341962Y-93987898D01*
X154346497Y-93988804D01*
X154351511Y-93989610D01*
X154357035Y-93990319D01*
X154363096Y-93990934D01*
X154369723Y-93991461D01*
X154376945Y-93991902D01*
X154384789Y-93992262D01*
X154393284Y-93992544D01*
X154402459Y-93992753D01*
X154412341Y-93992891D01*
X154422960Y-93992964D01*
X154446521Y-93992928D01*
X154473369Y-93992675D01*
X154503731Y-93992236D01*
X154537834Y-93991642D01*
X154751264Y-93986350D01*
X154948820Y-93148502D01*
X155025191Y-92822404D01*
X155086183Y-92553190D01*
X155125677Y-92368643D01*
X155135451Y-92316801D01*
X155137556Y-92296544D01*
X155136928Y-92295888D01*
X155135716Y-92295243D01*
X155131599Y-92293988D01*
X155125328Y-92292785D01*
X155117023Y-92291638D01*
X155106806Y-92290554D01*
X155094799Y-92289537D01*
X155065898Y-92287725D01*
X155031292Y-92286243D01*
X154991952Y-92285134D01*
X154948851Y-92284438D01*
X154902959Y-92284197D01*
X154835431Y-92284400D01*
X154782436Y-92285162D01*
X154742131Y-92286708D01*
X154726164Y-92287847D01*
X154712679Y-92289268D01*
X154701448Y-92290999D01*
X154692239Y-92293068D01*
X154684824Y-92295504D01*
X154678972Y-92298336D01*
X154674454Y-92301591D01*
X154671038Y-92305298D01*
X154668496Y-92309486D01*
X154666598Y-92314183D01*
X154657981Y-92351025D01*
X154645955Y-92414118D01*
X154615224Y-92596405D01*
X154581518Y-92815734D01*
X154551945Y-93026794D01*
X154533893Y-93163826D01*
X154527605Y-93204520D01*
X154524975Y-93218598D01*
X154522620Y-93228759D01*
X154520493Y-93235200D01*
X154518545Y-93238116D01*
X154517622Y-93238314D01*
X154516725Y-93237705D01*
X154514986Y-93234161D01*
X154513278Y-93227683D01*
X154511551Y-93218466D01*
X154507848Y-93192600D01*
X154473507Y-93002982D01*
X154414362Y-92704884D01*
X154356539Y-92426631D01*
X154336289Y-92335047D01*
X154326167Y-92296544D01*
X154325404Y-92295733D01*
X154324118Y-92294953D01*
X154320024Y-92293485D01*
X154313993Y-92292141D01*
X154306130Y-92290922D01*
X154296541Y-92289826D01*
X154285332Y-92288855D01*
X154272609Y-92288007D01*
X154258478Y-92287284D01*
X154226414Y-92286209D01*
X154189989Y-92285630D01*
X154150050Y-92285547D01*
X154107445Y-92285961D01*
X153899306Y-92291252D01*
X153879903Y-92388266D01*
X153860280Y-92476461D01*
X153844625Y-92548780D01*
X153840291Y-92567532D01*
X153834097Y-92597590D01*
X153817285Y-92685261D01*
X153796504Y-92799060D01*
X153774070Y-92926253D01*
X153752545Y-93049863D01*
X153734162Y-93151810D01*
X153720740Y-93221676D01*
X153716458Y-93241324D01*
X153714098Y-93249044D01*
X153713757Y-93249242D01*
X153713396Y-93249176D01*
X153713015Y-93248853D01*
X153712616Y-93248279D01*
X153711764Y-93246401D01*
X153710846Y-93243587D01*
X153709865Y-93239885D01*
X153708827Y-93235340D01*
X153707737Y-93229999D01*
X153706601Y-93223909D01*
X153704210Y-93209667D01*
X153701695Y-93192986D01*
X153699098Y-93174237D01*
X153696459Y-93153794D01*
X153673638Y-92988512D01*
X153634282Y-92724508D01*
X153594263Y-92467448D01*
X153569459Y-92323002D01*
X153568791Y-92319632D01*
X153568083Y-92316462D01*
X153567297Y-92313487D01*
X153566393Y-92310700D01*
X153565331Y-92308095D01*
X153564072Y-92305666D01*
X153562576Y-92303407D01*
X153561727Y-92302340D01*
X153560805Y-92301312D01*
X153559803Y-92300324D01*
X153558718Y-92299375D01*
X153557544Y-92298463D01*
X153556277Y-92297588D01*
X153554911Y-92296750D01*
X153553442Y-92295948D01*
X153551864Y-92295180D01*
X153550173Y-92294446D01*
X153546432Y-92293078D01*
X153542178Y-92291836D01*
X153537373Y-92290715D01*
X153531976Y-92289709D01*
X153525949Y-92288811D01*
X153519252Y-92288016D01*
X153511846Y-92287317D01*
X153503692Y-92286708D01*
X153494749Y-92286184D01*
X153484979Y-92285736D01*
X153474342Y-92285361D01*
X153462799Y-92285051D01*
X153436835Y-92284604D01*
X153406774Y-92284345D01*
X153372300Y-92284226D01*
X153333098Y-92284197D01*
X153287205Y-92284438D01*
X153244104Y-92285134D01*
X153204764Y-92286243D01*
X153170158Y-92287725D01*
X153141257Y-92289537D01*
X153119033Y-92291638D01*
X153104457Y-92293988D01*
X153100340Y-92295243D01*
X153098500Y-92296544D01*
X152871763Y-92296544D01*
X152871648Y-92296351D01*
X152865953Y-92288015D01*
X152862958Y-92284076D01*
X152859848Y-92280280D01*
X152856613Y-92276616D01*
X152853242Y-92273077D01*
X152849722Y-92269654D01*
X152846044Y-92266338D01*
X152842195Y-92263119D01*
X152838164Y-92259990D01*
X152833939Y-92256942D01*
X152829511Y-92253966D01*
X152819995Y-92248195D01*
X152809526Y-92242608D01*
X152798013Y-92237134D01*
X152785365Y-92231704D01*
X152771493Y-92226248D01*
X152756306Y-92220697D01*
X152727946Y-92211354D01*
X152715533Y-92207612D01*
X152704051Y-92204491D01*
X152693312Y-92201990D01*
X152683132Y-92200109D01*
X152673324Y-92198848D01*
X152663702Y-92198207D01*
X152654080Y-92198187D01*
X152644271Y-92198786D01*
X152634091Y-92200006D01*
X152623353Y-92201845D01*
X152611870Y-92204305D01*
X152599458Y-92207385D01*
X152585929Y-92211085D01*
X152571098Y-92215405D01*
X152557767Y-92219314D01*
X152544900Y-92223751D01*
X152532506Y-92228699D01*
X152520596Y-92234136D01*
X152509178Y-92240046D01*
X152498261Y-92246407D01*
X152487855Y-92253202D01*
X152477970Y-92260412D01*
X152468614Y-92268017D01*
X152459797Y-92275998D01*
X152451529Y-92284336D01*
X152443819Y-92293013D01*
X152436675Y-92302009D01*
X152430108Y-92311304D01*
X152424127Y-92320881D01*
X152418742Y-92330720D01*
X152413961Y-92340801D01*
X152409794Y-92351106D01*
X152406250Y-92361616D01*
X152403339Y-92372312D01*
X152401070Y-92383175D01*
X152399452Y-92394185D01*
X152398496Y-92405323D01*
X152398209Y-92416571D01*
X151690895Y-92416571D01*
X151679323Y-92388887D01*
X151646589Y-92322017D01*
X151610449Y-92258299D01*
X151571000Y-92197822D01*
X151528336Y-92140672D01*
X151482554Y-92086938D01*
X151433749Y-92036707D01*
X151382016Y-91990068D01*
X151327451Y-91947109D01*
X151270150Y-91907917D01*
X151210209Y-91872579D01*
X151147722Y-91841185D01*
X151082786Y-91813822D01*
X151015496Y-91790577D01*
X150945948Y-91771538D01*
X150874237Y-91756794D01*
X150839793Y-91753659D01*
X150775955Y-91750896D01*
X150686403Y-91748547D01*
X150574816Y-91746652D01*
X150300256Y-91744392D01*
X149981709Y-91744447D01*
X149528086Y-91747341D01*
X149381280Y-91749625D01*
X149275051Y-91753046D01*
X149199827Y-91758038D01*
X149146039Y-91765035D01*
X149104115Y-91774471D01*
X149064486Y-91786780D01*
X149017053Y-91803977D01*
X148970105Y-91823732D01*
X148923797Y-91845916D01*
X148878286Y-91870400D01*
X148833725Y-91897053D01*
X148790271Y-91925749D01*
X148748077Y-91956356D01*
X148707299Y-91988746D01*
X148668092Y-92022789D01*
X148630611Y-92058357D01*
X148595011Y-92095320D01*
X148561447Y-92133550D01*
X148530074Y-92172916D01*
X148501048Y-92213290D01*
X148474522Y-92254542D01*
X148450653Y-92296544D01*
X148430914Y-92335152D01*
X148413291Y-92372161D01*
X148397668Y-92408409D01*
X148383928Y-92444738D01*
X148371956Y-92481987D01*
X148361635Y-92520996D01*
X148352849Y-92562603D01*
X148345481Y-92607650D01*
X148339416Y-92656976D01*
X148334536Y-92711420D01*
X148330726Y-92771822D01*
X148327870Y-92839023D01*
X148325851Y-92913861D01*
X148324552Y-92997177D01*
X148323653Y-93192600D01*
X148067924Y-93192600D01*
X148069019Y-92913850D01*
X148072960Y-92715909D01*
X148076244Y-92644657D01*
X148080540Y-92588743D01*
X148085952Y-92545811D01*
X148092584Y-92513503D01*
X148118279Y-92425012D01*
X148148983Y-92339542D01*
X148184582Y-92257220D01*
X148224958Y-92178171D01*
X148269995Y-92102522D01*
X148319578Y-92030400D01*
X148373588Y-91961932D01*
X148431912Y-91897244D01*
X148494431Y-91836462D01*
X148561031Y-91779714D01*
X148631593Y-91727126D01*
X148706004Y-91678825D01*
X148784145Y-91634936D01*
X148865901Y-91595588D01*
X148951156Y-91560906D01*
X149039792Y-91531016D01*
X149059478Y-91526009D01*
X149084420Y-91521546D01*
X149118012Y-91517595D01*
X149163650Y-91514122D01*
X149224729Y-91511093D01*
X149304644Y-91508475D01*
X149406790Y-91506235D01*
X149534563Y-91504338D01*
X149691357Y-91502751D01*
X149880568Y-91501440D01*
X150369820Y-91499514D01*
X151029480Y-91498291D01*
X151886709Y-91497502D01*
X153859178Y-91499707D01*
X154472845Y-91503952D01*
X154723042Y-91509850D01*
X154799201Y-91525100D01*
X154874089Y-91544955D01*
X154947509Y-91569265D01*
X155019265Y-91597879D01*
X155089161Y-91630648D01*
X155157000Y-91667421D01*
X155222586Y-91708050D01*
X155285723Y-91752384D01*
X155346213Y-91800274D01*
X155403862Y-91851569D01*
X155458472Y-91906119D01*
X155509847Y-91963776D01*
X155557790Y-92024388D01*
X155602106Y-92087806D01*
X155642598Y-92153880D01*
X155679070Y-92222461D01*
X155701485Y-92268065D01*
X155714945Y-92296544D01*
X155721217Y-92309815D01*
X155738438Y-92348980D01*
X155753319Y-92386833D01*
X155766028Y-92424645D01*
X155776738Y-92463686D01*
X155781397Y-92484066D01*
X155785619Y-92505229D01*
X155792841Y-92550544D01*
X155798574Y-92600903D01*
X155802990Y-92657576D01*
X155806259Y-92721836D01*
X155808550Y-92794953D01*
X155810036Y-92878199D01*
X155810886Y-92972844D01*
X155811362Y-93201419D01*
X155810480Y-93547610D01*
X155808757Y-93660771D01*
X155805629Y-93744476D01*
X155800682Y-93806602D01*
X155793502Y-93855023D01*
X155783677Y-93897614D01*
X155770792Y-93942252D01*
X155742608Y-94024387D01*
X155710355Y-94103397D01*
X155674096Y-94179219D01*
X155633898Y-94251788D01*
X155589823Y-94321039D01*
X155541938Y-94386908D01*
X155490306Y-94449330D01*
X155434992Y-94508240D01*
X155376060Y-94563575D01*
X155313576Y-94615269D01*
X155268844Y-94647808D01*
X155247604Y-94663258D01*
X155178208Y-94707477D01*
G37*
X155178208Y-94707477D02*
X155105453Y-94747862D01*
X155029404Y-94784348D01*
X154950125Y-94816870D01*
X154867681Y-94845364D01*
X154735389Y-94885933D01*
X149143862Y-94885933D01*
X149011570Y-94845364D01*
X148928309Y-94816551D01*
X148847948Y-94783121D01*
X148770615Y-94745211D01*
X148696440Y-94702957D01*
X148625551Y-94656497D01*
X148558078Y-94605967D01*
X148494150Y-94551505D01*
X148433896Y-94493247D01*
X148377446Y-94431331D01*
X148324928Y-94365892D01*
X148276472Y-94297069D01*
X148232206Y-94224998D01*
X148192261Y-94149816D01*
X148156766Y-94071661D01*
X148125848Y-93990668D01*
X148099639Y-93906975D01*
X148094631Y-93888180D01*
X148090172Y-93869062D01*
X148086229Y-93848967D01*
X148082772Y-93827242D01*
X148079769Y-93803232D01*
X148077191Y-93776285D01*
X148075005Y-93745746D01*
X148073181Y-93710963D01*
X148071687Y-93671280D01*
X148070494Y-93626044D01*
X148068881Y-93516301D01*
X148068096Y-93376502D01*
X148067889Y-93201419D01*
X148067924Y-93192600D01*
X148323653Y-93192600D01*
X148324552Y-93387950D01*
X148327870Y-93545929D01*
X148334536Y-93673315D01*
X148339416Y-93727654D01*
X148345481Y-93776888D01*
X148352849Y-93821864D01*
X148361635Y-93863429D01*
X148371956Y-93902431D01*
X148383928Y-93939717D01*
X148397668Y-93976135D01*
X148413291Y-94012533D01*
X148450653Y-94088655D01*
X148467914Y-94119479D01*
X148487788Y-94150943D01*
X148510033Y-94182820D01*
X148534410Y-94214884D01*
X148560679Y-94246906D01*
X148588598Y-94278659D01*
X148617928Y-94309917D01*
X148648429Y-94340450D01*
X148679860Y-94370034D01*
X148711981Y-94398438D01*
X148744551Y-94425438D01*
X148777331Y-94450804D01*
X148810079Y-94474310D01*
X148842557Y-94495728D01*
X148874522Y-94514831D01*
X148905736Y-94531391D01*
X148948345Y-94552174D01*
X148987478Y-94570324D01*
X149006645Y-94578468D01*
X149026027Y-94586020D01*
X149045987Y-94593003D01*
X149066884Y-94599439D01*
X149089081Y-94605351D01*
X149112939Y-94610760D01*
X149138820Y-94615689D01*
X149167085Y-94620161D01*
X149198095Y-94624198D01*
X149232211Y-94627821D01*
X149269796Y-94631053D01*
X149311210Y-94633917D01*
X149356816Y-94636435D01*
X149406973Y-94638629D01*
X149522391Y-94642134D01*
X149660356Y-94644611D01*
X149823758Y-94646237D01*
X150015489Y-94647192D01*
X150238440Y-94647653D01*
X150789570Y-94647808D01*
X152295931Y-94647808D01*
X152174223Y-94527864D01*
X152148515Y-94502730D01*
X152124248Y-94478182D01*
X152101336Y-94454105D01*
X152079689Y-94430381D01*
X152059221Y-94406896D01*
X152039843Y-94383531D01*
X152021468Y-94360172D01*
X152004007Y-94336702D01*
X151987374Y-94313005D01*
X151971479Y-94288964D01*
X151956235Y-94264462D01*
X151941555Y-94239385D01*
X151927350Y-94213615D01*
X151913532Y-94187037D01*
X151900015Y-94159533D01*
X151886709Y-94130989D01*
X151868328Y-94089987D01*
X151852106Y-94052179D01*
X151837890Y-94016375D01*
X151830395Y-93995169D01*
X152433514Y-93995169D01*
X152874486Y-93995169D01*
X152874486Y-92760447D01*
X152433514Y-92760447D01*
X152433514Y-93995169D01*
X151830395Y-93995169D01*
X151825524Y-93981389D01*
X151814853Y-93946030D01*
X151805721Y-93909111D01*
X151797975Y-93869442D01*
X151791459Y-93825836D01*
X151786017Y-93777103D01*
X151781495Y-93722056D01*
X151777739Y-93659505D01*
X151774591Y-93588262D01*
X151771899Y-93507139D01*
X151769506Y-93414946D01*
X151765000Y-93192600D01*
X151756925Y-92839326D01*
X151752877Y-92725093D01*
X151748023Y-92641825D01*
X151741763Y-92581543D01*
X151733498Y-92536268D01*
X151722629Y-92498020D01*
X151708556Y-92458822D01*
X151690895Y-92416571D01*
X152398209Y-92416571D01*
X152398602Y-92427910D01*
X152399684Y-92439320D01*
X152401464Y-92450782D01*
X152403952Y-92462277D01*
X152407157Y-92473787D01*
X152411088Y-92485292D01*
X152415755Y-92496773D01*
X152421167Y-92508211D01*
X152427648Y-92519506D01*
X152435144Y-92530237D01*
X152443597Y-92540397D01*
X152452948Y-92549979D01*
X152463137Y-92558978D01*
X152474106Y-92567385D01*
X152485794Y-92575197D01*
X152498144Y-92582404D01*
X152511096Y-92589002D01*
X152524591Y-92594984D01*
X152538570Y-92600343D01*
X152552973Y-92605073D01*
X152567742Y-92609167D01*
X152582817Y-92612620D01*
X152598140Y-92615423D01*
X152613651Y-92617572D01*
X152629292Y-92619059D01*
X152645002Y-92619878D01*
X152660724Y-92620023D01*
X152676397Y-92619487D01*
X152691963Y-92618264D01*
X152707363Y-92616347D01*
X152722537Y-92613730D01*
X152737427Y-92610406D01*
X152751973Y-92606369D01*
X152766116Y-92601613D01*
X152779798Y-92596130D01*
X152792958Y-92589915D01*
X152805539Y-92582961D01*
X152817480Y-92575261D01*
X152828723Y-92566810D01*
X152839209Y-92557600D01*
X152850306Y-92546035D01*
X152860437Y-92533873D01*
X152869587Y-92521179D01*
X152877739Y-92508018D01*
X152884878Y-92494453D01*
X152890988Y-92480550D01*
X152896055Y-92466373D01*
X152900063Y-92451987D01*
X152902995Y-92437456D01*
X152904838Y-92422845D01*
X152905574Y-92408218D01*
X152905189Y-92393641D01*
X152903667Y-92379177D01*
X152900993Y-92364891D01*
X152899219Y-92357836D01*
X152897151Y-92350849D01*
X152894787Y-92343939D01*
X152892125Y-92337114D01*
X152887170Y-92325671D01*
X152882166Y-92315110D01*
X152877022Y-92305360D01*
X152871763Y-92296544D01*
X153098500Y-92296544D01*
X153098546Y-92302508D01*
X153100605Y-92316801D01*
X153110379Y-92368643D01*
X153118634Y-92408218D01*
X153127057Y-92448597D01*
X153149874Y-92553190D01*
X153210866Y-92822404D01*
X153287237Y-93148502D01*
X153484792Y-93986350D01*
X153707042Y-93991642D01*
X153855201Y-93995169D01*
X153929292Y-93996933D01*
X153950459Y-93903447D01*
X153989760Y-93711018D01*
X154026747Y-93517596D01*
X154059103Y-93335420D01*
X154084514Y-93176725D01*
X154116264Y-92966822D01*
X154163889Y-93238461D01*
X154202695Y-93448005D01*
X154246792Y-93668629D01*
X154286921Y-93855850D01*
X154302603Y-93923032D01*
X154313820Y-93965183D01*
X154314693Y-93967752D01*
X154315677Y-93970170D01*
X154316800Y-93972440D01*
X154318092Y-93974568D01*
X154319580Y-93976555D01*
X154320406Y-93977498D01*
X154321292Y-93978407D01*
X154322242Y-93979283D01*
X154323258Y-93980127D01*
X154324345Y-93980939D01*
X154325506Y-93981720D01*
X154326744Y-93982469D01*
X154328063Y-93983188D01*
X154329467Y-93983877D01*
X154330959Y-93984536D01*
X154334222Y-93985768D01*
X154337880Y-93986887D01*
X154341962Y-93987898D01*
X154346497Y-93988804D01*
X154351511Y-93989610D01*
X154357035Y-93990319D01*
X154363096Y-93990934D01*
X154369723Y-93991461D01*
X154376945Y-93991902D01*
X154384789Y-93992262D01*
X154393284Y-93992544D01*
X154402459Y-93992753D01*
X154412341Y-93992891D01*
X154422960Y-93992964D01*
X154446521Y-93992928D01*
X154473369Y-93992675D01*
X154503731Y-93992236D01*
X154537834Y-93991642D01*
X154751264Y-93986350D01*
X154948820Y-93148502D01*
X155025191Y-92822404D01*
X155086183Y-92553190D01*
X155125677Y-92368643D01*
X155135451Y-92316801D01*
X155137556Y-92296544D01*
X155136928Y-92295888D01*
X155135716Y-92295243D01*
X155131599Y-92293988D01*
X155125328Y-92292785D01*
X155117023Y-92291638D01*
X155106806Y-92290554D01*
X155094799Y-92289537D01*
X155065898Y-92287725D01*
X155031292Y-92286243D01*
X154991952Y-92285134D01*
X154948851Y-92284438D01*
X154902959Y-92284197D01*
X154835431Y-92284400D01*
X154782436Y-92285162D01*
X154742131Y-92286708D01*
X154726164Y-92287847D01*
X154712679Y-92289268D01*
X154701448Y-92290999D01*
X154692239Y-92293068D01*
X154684824Y-92295504D01*
X154678972Y-92298336D01*
X154674454Y-92301591D01*
X154671038Y-92305298D01*
X154668496Y-92309486D01*
X154666598Y-92314183D01*
X154657981Y-92351025D01*
X154645955Y-92414118D01*
X154615224Y-92596405D01*
X154581518Y-92815734D01*
X154551945Y-93026794D01*
X154533893Y-93163826D01*
X154527605Y-93204520D01*
X154524975Y-93218598D01*
X154522620Y-93228759D01*
X154520493Y-93235200D01*
X154518545Y-93238116D01*
X154517622Y-93238314D01*
X154516725Y-93237705D01*
X154514986Y-93234161D01*
X154513278Y-93227683D01*
X154511551Y-93218466D01*
X154507848Y-93192600D01*
X154473507Y-93002982D01*
X154414362Y-92704884D01*
X154356539Y-92426631D01*
X154336289Y-92335047D01*
X154326167Y-92296544D01*
X154325404Y-92295733D01*
X154324118Y-92294953D01*
X154320024Y-92293485D01*
X154313993Y-92292141D01*
X154306130Y-92290922D01*
X154296541Y-92289826D01*
X154285332Y-92288855D01*
X154272609Y-92288007D01*
X154258478Y-92287284D01*
X154226414Y-92286209D01*
X154189989Y-92285630D01*
X154150050Y-92285547D01*
X154107445Y-92285961D01*
X153899306Y-92291252D01*
X153879903Y-92388266D01*
X153860280Y-92476461D01*
X153844625Y-92548780D01*
X153840291Y-92567532D01*
X153834097Y-92597590D01*
X153817285Y-92685261D01*
X153796504Y-92799060D01*
X153774070Y-92926253D01*
X153752545Y-93049863D01*
X153734162Y-93151810D01*
X153720740Y-93221676D01*
X153716458Y-93241324D01*
X153714098Y-93249044D01*
X153713757Y-93249242D01*
X153713396Y-93249176D01*
X153713015Y-93248853D01*
X153712616Y-93248279D01*
X153711764Y-93246401D01*
X153710846Y-93243587D01*
X153709865Y-93239885D01*
X153708827Y-93235340D01*
X153707737Y-93229999D01*
X153706601Y-93223909D01*
X153704210Y-93209667D01*
X153701695Y-93192986D01*
X153699098Y-93174237D01*
X153696459Y-93153794D01*
X153673638Y-92988512D01*
X153634282Y-92724508D01*
X153594263Y-92467448D01*
X153569459Y-92323002D01*
X153568791Y-92319632D01*
X153568083Y-92316462D01*
X153567297Y-92313487D01*
X153566393Y-92310700D01*
X153565331Y-92308095D01*
X153564072Y-92305666D01*
X153562576Y-92303407D01*
X153561727Y-92302340D01*
X153560805Y-92301312D01*
X153559803Y-92300324D01*
X153558718Y-92299375D01*
X153557544Y-92298463D01*
X153556277Y-92297588D01*
X153554911Y-92296750D01*
X153553442Y-92295948D01*
X153551864Y-92295180D01*
X153550173Y-92294446D01*
X153546432Y-92293078D01*
X153542178Y-92291836D01*
X153537373Y-92290715D01*
X153531976Y-92289709D01*
X153525949Y-92288811D01*
X153519252Y-92288016D01*
X153511846Y-92287317D01*
X153503692Y-92286708D01*
X153494749Y-92286184D01*
X153484979Y-92285736D01*
X153474342Y-92285361D01*
X153462799Y-92285051D01*
X153436835Y-92284604D01*
X153406774Y-92284345D01*
X153372300Y-92284226D01*
X153333098Y-92284197D01*
X153287205Y-92284438D01*
X153244104Y-92285134D01*
X153204764Y-92286243D01*
X153170158Y-92287725D01*
X153141257Y-92289537D01*
X153119033Y-92291638D01*
X153104457Y-92293988D01*
X153100340Y-92295243D01*
X153098500Y-92296544D01*
X152871763Y-92296544D01*
X152871648Y-92296351D01*
X152865953Y-92288015D01*
X152862958Y-92284076D01*
X152859848Y-92280280D01*
X152856613Y-92276616D01*
X152853242Y-92273077D01*
X152849722Y-92269654D01*
X152846044Y-92266338D01*
X152842195Y-92263119D01*
X152838164Y-92259990D01*
X152833939Y-92256942D01*
X152829511Y-92253966D01*
X152819995Y-92248195D01*
X152809526Y-92242608D01*
X152798013Y-92237134D01*
X152785365Y-92231704D01*
X152771493Y-92226248D01*
X152756306Y-92220697D01*
X152727946Y-92211354D01*
X152715533Y-92207612D01*
X152704051Y-92204491D01*
X152693312Y-92201990D01*
X152683132Y-92200109D01*
X152673324Y-92198848D01*
X152663702Y-92198207D01*
X152654080Y-92198187D01*
X152644271Y-92198786D01*
X152634091Y-92200006D01*
X152623353Y-92201845D01*
X152611870Y-92204305D01*
X152599458Y-92207385D01*
X152585929Y-92211085D01*
X152571098Y-92215405D01*
X152557767Y-92219314D01*
X152544900Y-92223751D01*
X152532506Y-92228699D01*
X152520596Y-92234136D01*
X152509178Y-92240046D01*
X152498261Y-92246407D01*
X152487855Y-92253202D01*
X152477970Y-92260412D01*
X152468614Y-92268017D01*
X152459797Y-92275998D01*
X152451529Y-92284336D01*
X152443819Y-92293013D01*
X152436675Y-92302009D01*
X152430108Y-92311304D01*
X152424127Y-92320881D01*
X152418742Y-92330720D01*
X152413961Y-92340801D01*
X152409794Y-92351106D01*
X152406250Y-92361616D01*
X152403339Y-92372312D01*
X152401070Y-92383175D01*
X152399452Y-92394185D01*
X152398496Y-92405323D01*
X152398209Y-92416571D01*
X151690895Y-92416571D01*
X151679323Y-92388887D01*
X151646589Y-92322017D01*
X151610449Y-92258299D01*
X151571000Y-92197822D01*
X151528336Y-92140672D01*
X151482554Y-92086938D01*
X151433749Y-92036707D01*
X151382016Y-91990068D01*
X151327451Y-91947109D01*
X151270150Y-91907917D01*
X151210209Y-91872579D01*
X151147722Y-91841185D01*
X151082786Y-91813822D01*
X151015496Y-91790577D01*
X150945948Y-91771538D01*
X150874237Y-91756794D01*
X150839793Y-91753659D01*
X150775955Y-91750896D01*
X150686403Y-91748547D01*
X150574816Y-91746652D01*
X150300256Y-91744392D01*
X149981709Y-91744447D01*
X149528086Y-91747341D01*
X149381280Y-91749625D01*
X149275051Y-91753046D01*
X149199827Y-91758038D01*
X149146039Y-91765035D01*
X149104115Y-91774471D01*
X149064486Y-91786780D01*
X149017053Y-91803977D01*
X148970105Y-91823732D01*
X148923797Y-91845916D01*
X148878286Y-91870400D01*
X148833725Y-91897053D01*
X148790271Y-91925749D01*
X148748077Y-91956356D01*
X148707299Y-91988746D01*
X148668092Y-92022789D01*
X148630611Y-92058357D01*
X148595011Y-92095320D01*
X148561447Y-92133550D01*
X148530074Y-92172916D01*
X148501048Y-92213290D01*
X148474522Y-92254542D01*
X148450653Y-92296544D01*
X148430914Y-92335152D01*
X148413291Y-92372161D01*
X148397668Y-92408409D01*
X148383928Y-92444738D01*
X148371956Y-92481987D01*
X148361635Y-92520996D01*
X148352849Y-92562603D01*
X148345481Y-92607650D01*
X148339416Y-92656976D01*
X148334536Y-92711420D01*
X148330726Y-92771822D01*
X148327870Y-92839023D01*
X148325851Y-92913861D01*
X148324552Y-92997177D01*
X148323653Y-93192600D01*
X148067924Y-93192600D01*
X148069019Y-92913850D01*
X148072960Y-92715909D01*
X148076244Y-92644657D01*
X148080540Y-92588743D01*
X148085952Y-92545811D01*
X148092584Y-92513503D01*
X148118279Y-92425012D01*
X148148983Y-92339542D01*
X148184582Y-92257220D01*
X148224958Y-92178171D01*
X148269995Y-92102522D01*
X148319578Y-92030400D01*
X148373588Y-91961932D01*
X148431912Y-91897244D01*
X148494431Y-91836462D01*
X148561031Y-91779714D01*
X148631593Y-91727126D01*
X148706004Y-91678825D01*
X148784145Y-91634936D01*
X148865901Y-91595588D01*
X148951156Y-91560906D01*
X149039792Y-91531016D01*
X149059478Y-91526009D01*
X149084420Y-91521546D01*
X149118012Y-91517595D01*
X149163650Y-91514122D01*
X149224729Y-91511093D01*
X149304644Y-91508475D01*
X149406790Y-91506235D01*
X149534563Y-91504338D01*
X149691357Y-91502751D01*
X149880568Y-91501440D01*
X150369820Y-91499514D01*
X151029480Y-91498291D01*
X151886709Y-91497502D01*
X153859178Y-91499707D01*
X154472845Y-91503952D01*
X154723042Y-91509850D01*
X154799201Y-91525100D01*
X154874089Y-91544955D01*
X154947509Y-91569265D01*
X155019265Y-91597879D01*
X155089161Y-91630648D01*
X155157000Y-91667421D01*
X155222586Y-91708050D01*
X155285723Y-91752384D01*
X155346213Y-91800274D01*
X155403862Y-91851569D01*
X155458472Y-91906119D01*
X155509847Y-91963776D01*
X155557790Y-92024388D01*
X155602106Y-92087806D01*
X155642598Y-92153880D01*
X155679070Y-92222461D01*
X155701485Y-92268065D01*
X155714945Y-92296544D01*
X155721217Y-92309815D01*
X155738438Y-92348980D01*
X155753319Y-92386833D01*
X155766028Y-92424645D01*
X155776738Y-92463686D01*
X155781397Y-92484066D01*
X155785619Y-92505229D01*
X155792841Y-92550544D01*
X155798574Y-92600903D01*
X155802990Y-92657576D01*
X155806259Y-92721836D01*
X155808550Y-92794953D01*
X155810036Y-92878199D01*
X155810886Y-92972844D01*
X155811362Y-93201419D01*
X155810480Y-93547610D01*
X155808757Y-93660771D01*
X155805629Y-93744476D01*
X155800682Y-93806602D01*
X155793502Y-93855023D01*
X155783677Y-93897614D01*
X155770792Y-93942252D01*
X155742608Y-94024387D01*
X155710355Y-94103397D01*
X155674096Y-94179219D01*
X155633898Y-94251788D01*
X155589823Y-94321039D01*
X155541938Y-94386908D01*
X155490306Y-94449330D01*
X155434992Y-94508240D01*
X155376060Y-94563575D01*
X155313576Y-94615269D01*
X155268844Y-94647808D01*
X155247604Y-94663258D01*
X155178208Y-94707477D01*
G36*
X149215327Y-92205342D02*
G01*
X149227798Y-92206245D01*
X149240227Y-92207649D01*
X149252589Y-92209562D01*
X149264857Y-92211993D01*
X149277007Y-92214947D01*
X149289013Y-92218434D01*
X149300847Y-92222461D01*
X149317781Y-92228895D01*
X149333545Y-92235656D01*
X149348166Y-92242777D01*
X149361674Y-92250297D01*
X149374097Y-92258251D01*
X149385462Y-92266675D01*
X149395800Y-92275606D01*
X149400592Y-92280272D01*
X149405137Y-92285079D01*
X149409440Y-92290030D01*
X149413503Y-92295131D01*
X149417331Y-92300385D01*
X149420926Y-92305798D01*
X149424293Y-92311373D01*
X149427435Y-92317116D01*
X149430355Y-92323030D01*
X149433057Y-92329121D01*
X149437821Y-92341850D01*
X149441755Y-92355338D01*
X149444889Y-92369622D01*
X149447250Y-92384739D01*
X149448559Y-92397672D01*
X149449185Y-92410337D01*
X149449137Y-92422725D01*
X149448425Y-92434827D01*
X149447058Y-92446633D01*
X149445045Y-92458133D01*
X149442396Y-92469319D01*
X149439120Y-92480182D01*
X149435226Y-92490710D01*
X149430724Y-92500896D01*
X149425624Y-92510731D01*
X149419934Y-92520203D01*
X149413664Y-92529305D01*
X149406823Y-92538027D01*
X149399421Y-92546359D01*
X149391467Y-92554292D01*
X149382971Y-92561818D01*
X149373941Y-92568925D01*
X149364387Y-92575606D01*
X149354319Y-92581850D01*
X149343745Y-92587648D01*
X149332676Y-92592992D01*
X149321121Y-92597871D01*
X149309088Y-92602276D01*
X149296588Y-92606198D01*
X149283629Y-92609627D01*
X149270222Y-92612555D01*
X149256375Y-92614971D01*
X149242097Y-92616867D01*
X149227399Y-92618232D01*
X149212290Y-92619058D01*
X149196778Y-92619336D01*
X149179455Y-92618896D01*
X149162557Y-92617597D01*
X149146108Y-92615467D01*
X149130129Y-92612535D01*
X149114644Y-92608831D01*
X149099675Y-92604383D01*
X149085245Y-92599221D01*
X149071376Y-92593374D01*
X149058092Y-92586870D01*
X149045413Y-92579739D01*
X149033364Y-92572010D01*
X149021967Y-92563711D01*
X149011244Y-92554873D01*
X149001218Y-92545524D01*
X148991912Y-92535693D01*
X148983347Y-92525409D01*
X148975548Y-92514701D01*
X148968536Y-92503599D01*
X148962334Y-92492131D01*
X148956965Y-92480326D01*
X148952451Y-92468214D01*
X148948815Y-92455824D01*
X148946079Y-92443184D01*
X148944266Y-92430324D01*
X148943399Y-92417273D01*
X148943501Y-92404060D01*
X148944593Y-92390713D01*
X148946699Y-92377263D01*
X148949840Y-92363737D01*
X148954041Y-92350166D01*
X148959323Y-92336578D01*
X148965709Y-92323002D01*
X148970815Y-92313893D01*
X148976526Y-92305091D01*
X148982816Y-92296605D01*
X148989659Y-92288441D01*
X148997029Y-92280608D01*
X149004900Y-92273114D01*
X149013247Y-92265966D01*
X149022043Y-92259172D01*
X149031263Y-92252739D01*
X149040881Y-92246676D01*
X149050871Y-92240991D01*
X149061207Y-92235690D01*
X149071863Y-92230782D01*
X149082814Y-92226274D01*
X149094034Y-92222175D01*
X149105497Y-92218492D01*
X149117177Y-92215233D01*
X149129048Y-92212405D01*
X149141084Y-92210016D01*
X149153260Y-92208074D01*
X149165549Y-92206587D01*
X149177927Y-92205563D01*
X149190366Y-92205008D01*
X149202841Y-92204932D01*
X149215327Y-92205342D01*
G37*
X149215327Y-92205342D02*
X149227798Y-92206245D01*
X149240227Y-92207649D01*
X149252589Y-92209562D01*
X149264857Y-92211993D01*
X149277007Y-92214947D01*
X149289013Y-92218434D01*
X149300847Y-92222461D01*
X149317781Y-92228895D01*
X149333545Y-92235656D01*
X149348166Y-92242777D01*
X149361674Y-92250297D01*
X149374097Y-92258251D01*
X149385462Y-92266675D01*
X149395800Y-92275606D01*
X149400592Y-92280272D01*
X149405137Y-92285079D01*
X149409440Y-92290030D01*
X149413503Y-92295131D01*
X149417331Y-92300385D01*
X149420926Y-92305798D01*
X149424293Y-92311373D01*
X149427435Y-92317116D01*
X149430355Y-92323030D01*
X149433057Y-92329121D01*
X149437821Y-92341850D01*
X149441755Y-92355338D01*
X149444889Y-92369622D01*
X149447250Y-92384739D01*
X149448559Y-92397672D01*
X149449185Y-92410337D01*
X149449137Y-92422725D01*
X149448425Y-92434827D01*
X149447058Y-92446633D01*
X149445045Y-92458133D01*
X149442396Y-92469319D01*
X149439120Y-92480182D01*
X149435226Y-92490710D01*
X149430724Y-92500896D01*
X149425624Y-92510731D01*
X149419934Y-92520203D01*
X149413664Y-92529305D01*
X149406823Y-92538027D01*
X149399421Y-92546359D01*
X149391467Y-92554292D01*
X149382971Y-92561818D01*
X149373941Y-92568925D01*
X149364387Y-92575606D01*
X149354319Y-92581850D01*
X149343745Y-92587648D01*
X149332676Y-92592992D01*
X149321121Y-92597871D01*
X149309088Y-92602276D01*
X149296588Y-92606198D01*
X149283629Y-92609627D01*
X149270222Y-92612555D01*
X149256375Y-92614971D01*
X149242097Y-92616867D01*
X149227399Y-92618232D01*
X149212290Y-92619058D01*
X149196778Y-92619336D01*
X149179455Y-92618896D01*
X149162557Y-92617597D01*
X149146108Y-92615467D01*
X149130129Y-92612535D01*
X149114644Y-92608831D01*
X149099675Y-92604383D01*
X149085245Y-92599221D01*
X149071376Y-92593374D01*
X149058092Y-92586870D01*
X149045413Y-92579739D01*
X149033364Y-92572010D01*
X149021967Y-92563711D01*
X149011244Y-92554873D01*
X149001218Y-92545524D01*
X148991912Y-92535693D01*
X148983347Y-92525409D01*
X148975548Y-92514701D01*
X148968536Y-92503599D01*
X148962334Y-92492131D01*
X148956965Y-92480326D01*
X148952451Y-92468214D01*
X148948815Y-92455824D01*
X148946079Y-92443184D01*
X148944266Y-92430324D01*
X148943399Y-92417273D01*
X148943501Y-92404060D01*
X148944593Y-92390713D01*
X148946699Y-92377263D01*
X148949840Y-92363737D01*
X148954041Y-92350166D01*
X148959323Y-92336578D01*
X148965709Y-92323002D01*
X148970815Y-92313893D01*
X148976526Y-92305091D01*
X148982816Y-92296605D01*
X148989659Y-92288441D01*
X148997029Y-92280608D01*
X149004900Y-92273114D01*
X149013247Y-92265966D01*
X149022043Y-92259172D01*
X149031263Y-92252739D01*
X149040881Y-92246676D01*
X149050871Y-92240991D01*
X149061207Y-92235690D01*
X149071863Y-92230782D01*
X149082814Y-92226274D01*
X149094034Y-92222175D01*
X149105497Y-92218492D01*
X149117177Y-92215233D01*
X149129048Y-92212405D01*
X149141084Y-92210016D01*
X149153260Y-92208074D01*
X149165549Y-92206587D01*
X149177927Y-92205563D01*
X149190366Y-92205008D01*
X149202841Y-92204932D01*
X149215327Y-92205342D01*
G36*
X145462335Y-93884238D02*
G01*
X145434531Y-93984483D01*
X145403000Y-94078314D01*
X145367654Y-94165841D01*
X145328410Y-94247172D01*
X145285181Y-94322416D01*
X145237883Y-94391680D01*
X145186430Y-94455074D01*
X145130737Y-94512706D01*
X145070719Y-94564685D01*
X145006290Y-94611119D01*
X144937365Y-94652116D01*
X144863859Y-94687786D01*
X144785687Y-94718236D01*
X144702763Y-94743576D01*
X144668401Y-94751327D01*
X144627460Y-94758045D01*
X144580887Y-94763730D01*
X144529627Y-94768380D01*
X144416827Y-94774582D01*
X144296628Y-94776649D01*
X144176594Y-94774582D01*
X144064291Y-94768380D01*
X144013402Y-94763730D01*
X143967284Y-94758045D01*
X143926881Y-94751327D01*
X143893138Y-94743576D01*
X143850436Y-94731052D01*
X143808974Y-94717284D01*
X143768740Y-94702257D01*
X143729724Y-94685957D01*
X143691914Y-94668368D01*
X143655300Y-94649477D01*
X143619871Y-94629269D01*
X143585615Y-94607729D01*
X143552523Y-94584843D01*
X143520582Y-94560596D01*
X143489781Y-94534974D01*
X143460111Y-94507962D01*
X143431559Y-94479546D01*
X143404115Y-94449712D01*
X143377768Y-94418443D01*
X143352507Y-94385727D01*
X143328320Y-94351548D01*
X143305198Y-94315893D01*
X143283128Y-94278746D01*
X143262100Y-94240093D01*
X143242104Y-94199919D01*
X143223127Y-94158210D01*
X143205159Y-94114951D01*
X143188189Y-94070129D01*
X143172207Y-94023727D01*
X143157200Y-93975733D01*
X143130070Y-93874905D01*
X143106714Y-93767531D01*
X143092214Y-93683479D01*
X143519194Y-93683479D01*
X143953111Y-94112104D01*
X144122747Y-94277441D01*
X144262453Y-94412185D01*
X144358171Y-94502282D01*
X144385143Y-94526194D01*
X144392638Y-94532098D01*
X144395847Y-94533673D01*
X144396507Y-94530085D01*
X144397163Y-94520840D01*
X144398437Y-94486572D01*
X144400697Y-94363238D01*
X144402296Y-94182687D01*
X144402902Y-93963937D01*
X144404666Y-93401257D01*
X144646319Y-93642909D01*
X144887972Y-93884562D01*
X144981458Y-93792840D01*
X145073180Y-93699354D01*
X144464638Y-93090812D01*
X144769791Y-92785659D01*
X145073180Y-92482271D01*
X144984986Y-92394076D01*
X144896791Y-92307645D01*
X144660430Y-92542243D01*
X144588472Y-92613374D01*
X144532576Y-92667782D01*
X144490611Y-92707101D01*
X144474188Y-92721612D01*
X144460449Y-92732963D01*
X144449129Y-92741359D01*
X144439961Y-92747002D01*
X144432680Y-92750098D01*
X144429663Y-92750754D01*
X144427018Y-92750850D01*
X144424712Y-92750411D01*
X144422710Y-92749463D01*
X144420981Y-92748031D01*
X144419490Y-92746141D01*
X144417092Y-92741087D01*
X144415249Y-92734507D01*
X144413948Y-92727817D01*
X144412693Y-92715886D01*
X144410344Y-92677483D01*
X144408242Y-92621676D01*
X144406430Y-92550842D01*
X144403839Y-92373598D01*
X144402902Y-92164771D01*
X144402902Y-91635604D01*
X143520958Y-92517548D01*
X143812000Y-92808590D01*
X144103041Y-93099632D01*
X143519194Y-93683479D01*
X143092214Y-93683479D01*
X143087041Y-93653493D01*
X143074653Y-93547432D01*
X143065323Y-93416194D01*
X143059136Y-93268338D01*
X143056173Y-93112420D01*
X143056518Y-92956998D01*
X143060252Y-92810629D01*
X143067459Y-92681872D01*
X143072391Y-92626772D01*
X143078222Y-92579284D01*
X143097804Y-92459033D01*
X143121520Y-92345624D01*
X143149411Y-92238995D01*
X143181520Y-92139084D01*
X143217886Y-92045829D01*
X143258552Y-91959167D01*
X143303559Y-91879038D01*
X143352947Y-91805378D01*
X143406760Y-91738126D01*
X143465037Y-91677221D01*
X143527821Y-91622599D01*
X143595152Y-91574199D01*
X143667071Y-91531958D01*
X143743621Y-91495816D01*
X143824843Y-91465709D01*
X143910777Y-91441576D01*
X143939477Y-91435524D01*
X143972279Y-91429949D01*
X144047920Y-91420327D01*
X144133151Y-91412896D01*
X144223427Y-91407842D01*
X144314198Y-91405351D01*
X144400918Y-91405609D01*
X144479039Y-91408803D01*
X144513454Y-91411559D01*
X144544013Y-91415118D01*
X144596167Y-91423389D01*
X144646803Y-91433327D01*
X144695931Y-91444949D01*
X144743564Y-91458268D01*
X144789712Y-91473298D01*
X144834387Y-91490055D01*
X144877601Y-91508553D01*
X144919363Y-91528806D01*
X144959687Y-91550829D01*
X144998583Y-91574637D01*
X145036062Y-91600243D01*
X145072136Y-91627663D01*
X145106816Y-91656911D01*
X145140113Y-91688002D01*
X145172039Y-91720949D01*
X145202605Y-91755769D01*
X145231823Y-91792474D01*
X145259702Y-91831081D01*
X145286256Y-91871602D01*
X145311494Y-91914054D01*
X145335430Y-91958449D01*
X145358073Y-92004804D01*
X145379435Y-92053132D01*
X145399527Y-92103448D01*
X145418361Y-92155766D01*
X145435948Y-92210102D01*
X145467426Y-92324881D01*
X145494052Y-92447904D01*
X145515916Y-92579284D01*
X145522038Y-92627279D01*
X145527185Y-92683195D01*
X145534630Y-92814267D01*
X145538395Y-92963447D01*
X145538626Y-93121680D01*
X145535467Y-93279913D01*
X145529063Y-93429093D01*
X145519558Y-93560165D01*
X145507097Y-93664076D01*
X145500687Y-93699354D01*
X145486495Y-93777472D01*
X145462335Y-93884238D01*
G37*
X145462335Y-93884238D02*
X145434531Y-93984483D01*
X145403000Y-94078314D01*
X145367654Y-94165841D01*
X145328410Y-94247172D01*
X145285181Y-94322416D01*
X145237883Y-94391680D01*
X145186430Y-94455074D01*
X145130737Y-94512706D01*
X145070719Y-94564685D01*
X145006290Y-94611119D01*
X144937365Y-94652116D01*
X144863859Y-94687786D01*
X144785687Y-94718236D01*
X144702763Y-94743576D01*
X144668401Y-94751327D01*
X144627460Y-94758045D01*
X144580887Y-94763730D01*
X144529627Y-94768380D01*
X144416827Y-94774582D01*
X144296628Y-94776649D01*
X144176594Y-94774582D01*
X144064291Y-94768380D01*
X144013402Y-94763730D01*
X143967284Y-94758045D01*
X143926881Y-94751327D01*
X143893138Y-94743576D01*
X143850436Y-94731052D01*
X143808974Y-94717284D01*
X143768740Y-94702257D01*
X143729724Y-94685957D01*
X143691914Y-94668368D01*
X143655300Y-94649477D01*
X143619871Y-94629269D01*
X143585615Y-94607729D01*
X143552523Y-94584843D01*
X143520582Y-94560596D01*
X143489781Y-94534974D01*
X143460111Y-94507962D01*
X143431559Y-94479546D01*
X143404115Y-94449712D01*
X143377768Y-94418443D01*
X143352507Y-94385727D01*
X143328320Y-94351548D01*
X143305198Y-94315893D01*
X143283128Y-94278746D01*
X143262100Y-94240093D01*
X143242104Y-94199919D01*
X143223127Y-94158210D01*
X143205159Y-94114951D01*
X143188189Y-94070129D01*
X143172207Y-94023727D01*
X143157200Y-93975733D01*
X143130070Y-93874905D01*
X143106714Y-93767531D01*
X143092214Y-93683479D01*
X143519194Y-93683479D01*
X143953111Y-94112104D01*
X144122747Y-94277441D01*
X144262453Y-94412185D01*
X144358171Y-94502282D01*
X144385143Y-94526194D01*
X144392638Y-94532098D01*
X144395847Y-94533673D01*
X144396507Y-94530085D01*
X144397163Y-94520840D01*
X144398437Y-94486572D01*
X144400697Y-94363238D01*
X144402296Y-94182687D01*
X144402902Y-93963937D01*
X144404666Y-93401257D01*
X144646319Y-93642909D01*
X144887972Y-93884562D01*
X144981458Y-93792840D01*
X145073180Y-93699354D01*
X144464638Y-93090812D01*
X144769791Y-92785659D01*
X145073180Y-92482271D01*
X144984986Y-92394076D01*
X144896791Y-92307645D01*
X144660430Y-92542243D01*
X144588472Y-92613374D01*
X144532576Y-92667782D01*
X144490611Y-92707101D01*
X144474188Y-92721612D01*
X144460449Y-92732963D01*
X144449129Y-92741359D01*
X144439961Y-92747002D01*
X144432680Y-92750098D01*
X144429663Y-92750754D01*
X144427018Y-92750850D01*
X144424712Y-92750411D01*
X144422710Y-92749463D01*
X144420981Y-92748031D01*
X144419490Y-92746141D01*
X144417092Y-92741087D01*
X144415249Y-92734507D01*
X144413948Y-92727817D01*
X144412693Y-92715886D01*
X144410344Y-92677483D01*
X144408242Y-92621676D01*
X144406430Y-92550842D01*
X144403839Y-92373598D01*
X144402902Y-92164771D01*
X144402902Y-91635604D01*
X143520958Y-92517548D01*
X143812000Y-92808590D01*
X144103041Y-93099632D01*
X143519194Y-93683479D01*
X143092214Y-93683479D01*
X143087041Y-93653493D01*
X143074653Y-93547432D01*
X143065323Y-93416194D01*
X143059136Y-93268338D01*
X143056173Y-93112420D01*
X143056518Y-92956998D01*
X143060252Y-92810629D01*
X143067459Y-92681872D01*
X143072391Y-92626772D01*
X143078222Y-92579284D01*
X143097804Y-92459033D01*
X143121520Y-92345624D01*
X143149411Y-92238995D01*
X143181520Y-92139084D01*
X143217886Y-92045829D01*
X143258552Y-91959167D01*
X143303559Y-91879038D01*
X143352947Y-91805378D01*
X143406760Y-91738126D01*
X143465037Y-91677221D01*
X143527821Y-91622599D01*
X143595152Y-91574199D01*
X143667071Y-91531958D01*
X143743621Y-91495816D01*
X143824843Y-91465709D01*
X143910777Y-91441576D01*
X143939477Y-91435524D01*
X143972279Y-91429949D01*
X144047920Y-91420327D01*
X144133151Y-91412896D01*
X144223427Y-91407842D01*
X144314198Y-91405351D01*
X144400918Y-91405609D01*
X144479039Y-91408803D01*
X144513454Y-91411559D01*
X144544013Y-91415118D01*
X144596167Y-91423389D01*
X144646803Y-91433327D01*
X144695931Y-91444949D01*
X144743564Y-91458268D01*
X144789712Y-91473298D01*
X144834387Y-91490055D01*
X144877601Y-91508553D01*
X144919363Y-91528806D01*
X144959687Y-91550829D01*
X144998583Y-91574637D01*
X145036062Y-91600243D01*
X145072136Y-91627663D01*
X145106816Y-91656911D01*
X145140113Y-91688002D01*
X145172039Y-91720949D01*
X145202605Y-91755769D01*
X145231823Y-91792474D01*
X145259702Y-91831081D01*
X145286256Y-91871602D01*
X145311494Y-91914054D01*
X145335430Y-91958449D01*
X145358073Y-92004804D01*
X145379435Y-92053132D01*
X145399527Y-92103448D01*
X145418361Y-92155766D01*
X145435948Y-92210102D01*
X145467426Y-92324881D01*
X145494052Y-92447904D01*
X145515916Y-92579284D01*
X145522038Y-92627279D01*
X145527185Y-92683195D01*
X145534630Y-92814267D01*
X145538395Y-92963447D01*
X145538626Y-93121680D01*
X145535467Y-93279913D01*
X145529063Y-93429093D01*
X145519558Y-93560165D01*
X145507097Y-93664076D01*
X145500687Y-93699354D01*
X145486495Y-93777472D01*
X145462335Y-93884238D01*
G36*
X144155958Y-93946298D02*
G01*
X144020138Y-93808715D01*
X143882555Y-93672896D01*
X144020138Y-93537076D01*
X144155958Y-93399493D01*
X144155958Y-93946298D01*
G37*
X144155958Y-93946298D02*
X144020138Y-93808715D01*
X143882555Y-93672896D01*
X144020138Y-93537076D01*
X144155958Y-93399493D01*
X144155958Y-93946298D01*
G36*
X144149233Y-92244499D02*
G01*
X144149563Y-92245548D01*
X144150218Y-92249661D01*
X144151493Y-92265450D01*
X144152685Y-92290375D01*
X144153753Y-92323300D01*
X144154656Y-92363087D01*
X144155352Y-92408601D01*
X144155799Y-92458703D01*
X144155958Y-92512257D01*
X144155958Y-92780368D01*
X144025430Y-92651604D01*
X143893138Y-92521076D01*
X144018375Y-92381729D01*
X144043083Y-92354041D01*
X144066551Y-92328234D01*
X144088200Y-92304865D01*
X144107451Y-92284495D01*
X144123726Y-92267679D01*
X144136445Y-92254977D01*
X144145030Y-92246946D01*
X144147591Y-92244857D01*
X144148902Y-92244146D01*
X144149233Y-92244499D01*
G37*
X144149233Y-92244499D02*
X144149563Y-92245548D01*
X144150218Y-92249661D01*
X144151493Y-92265450D01*
X144152685Y-92290375D01*
X144153753Y-92323300D01*
X144154656Y-92363087D01*
X144155352Y-92408601D01*
X144155799Y-92458703D01*
X144155958Y-92512257D01*
X144155958Y-92780368D01*
X144025430Y-92651604D01*
X143893138Y-92521076D01*
X144018375Y-92381729D01*
X144043083Y-92354041D01*
X144066551Y-92328234D01*
X144088200Y-92304865D01*
X144107451Y-92284495D01*
X144123726Y-92267679D01*
X144136445Y-92254977D01*
X144145030Y-92246946D01*
X144147591Y-92244857D01*
X144148902Y-92244146D01*
X144149233Y-92244499D01*
%LPC*%
D14*
X129136000Y-88825000D03*
X129136000Y-94605000D03*
D15*
X129636000Y-87395000D03*
D16*
X125456000Y-87395000D03*
X125456000Y-96035000D03*
D15*
X129636000Y-96035000D03*
D17*
X171811000Y-98065000D03*
X125456000Y-85365000D03*
X171811000Y-85365000D03*
X125456000Y-98065000D03*
D18*
X128300800Y-85339600D03*
D19*
X130840800Y-85339600D03*
X133380800Y-85339600D03*
X135920800Y-85339600D03*
X138460800Y-85339600D03*
X141000800Y-85339600D03*
X143540800Y-85339600D03*
X146080800Y-85339600D03*
X148620800Y-85339600D03*
X151160800Y-85339600D03*
X153700800Y-85339600D03*
X156240800Y-85339600D03*
X158780800Y-85339600D03*
X161320800Y-85339600D03*
X163860800Y-85339600D03*
X166400800Y-85339600D03*
X168940800Y-85339600D03*
D18*
X128300800Y-98039600D03*
D19*
X130840800Y-98039600D03*
X133380800Y-98039600D03*
X135920800Y-98039600D03*
X138460800Y-98039600D03*
X141000800Y-98039600D03*
X143540800Y-98039600D03*
X146080800Y-98039600D03*
X148620800Y-98039600D03*
X151160800Y-98039600D03*
X153700800Y-98039600D03*
X156240800Y-98039600D03*
X158780800Y-98039600D03*
X161320800Y-98039600D03*
X163860800Y-98039600D03*
X166400800Y-98039600D03*
X168940800Y-98039600D03*
M02*
